{"glyphs":{"0":{"ha":846,"x_min":92,"x_max":758,"o":"m 568 -22 q 369 -54 490 -83 q 221 43 286 -33 q 92 497 105 180 q 92 519 92 509 l 92 543 q 186 946 92 787 q 292 1064 230 1021 q 417 1106 353 1106 q 532 1077 481 1106 q 625 983 583 1047 q 741 578 717 847 q 722 255 758 403 q 568 -22 675 62 m 404 1025 l 373 1027 q 297 980 343 1027 q 214 851 241 924 q 162 530 162 709 q 335 33 162 147 q 435 -3 389 -3 q 524 31 482 -2 q 601 127 566 64 q 674 579 696 302 q 597 896 657 778 q 494 1019 554 981 q 457 1035 471 1032 q 443 1038 457 1035 q 420 1031 433 1038 q 404 1025 408 1025 z "},"1":{"ha":564,"x_min":-9,"x_max":420,"o":"m 335 -6 l 200 -16 q 189 9 166 -16 q 273 134 248 73 q 290 363 278 149 q 307 653 302 578 q 317 797 312 728 l 338 1029 q 321 1034 338 1044 l 298 1021 l 247 993 q 179 957 185 959 q 161 940 172 954 q 137 907 150 926 q 97 838 110 865 q 75 811 83 811 q 58 829 66 811 q 43 873 51 847 q 4 974 18 954 q -9 1000 -9 994 q 8 1014 -9 1017 q 143 996 106 981 q 228 1043 173 1010 q 305 1088 283 1076 q 368 1120 355 1116 q 405 1088 405 1135 l 395 979 q 353 412 368 667 q 339 137 339 157 q 404 33 339 97 q 420 5 420 16 q 389 -12 420 -12 l 335 -6 z "},"2":{"ha":916,"x_min":109,"x_max":773,"o":"m 152 -1 q 126 35 109 -1 q 275 240 139 60 l 503 534 q 673 867 673 760 q 627 990 673 944 q 511 1034 583 1034 q 385 995 449 1034 q 319 931 331 961 q 301 871 303 890 q 298 828 299 852 q 286 788 297 788 q 269 798 278 788 q 252 815 260 808 q 226 836 244 823 q 190 864 208 850 q 145 911 145 901 q 155 926 145 922 q 179 933 164 930 q 243 954 229 943 q 270 975 258 964 q 298 1002 281 987 q 336 1033 315 1017 q 385 1063 358 1049 q 499 1095 446 1094 q 594 1085 553 1095 q 667 1049 635 1075 q 741 867 741 991 q 574 525 741 739 q 463 377 519 454 q 375 258 407 300 q 317 180 344 216 q 245 87 260 102 q 252 62 220 62 q 592 39 387 62 q 735 95 642 29 q 773 90 773 122 q 765 53 773 73 q 751 -18 751 15 l 757 -78 q 726 -94 757 -108 q 712 -85 718 -91 q 692 -70 706 -79 q 663 -50 679 -60 q 604 -23 627 -28 q 536 -14 581 -19 q 439 -5 492 -9 q 238 3 315 3 l 152 -1 z "},"3":{"ha":927,"x_min":87,"x_max":823,"o":"m 437 674 l 483 675 q 720 598 629 675 q 823 356 823 512 q 705 103 823 203 q 385 20 564 -16 q 286 53 318 34 q 235 83 254 72 q 121 123 189 112 q 87 149 87 129 q 96 170 87 159 q 125 184 106 180 q 248 266 153 192 q 274 279 262 279 q 285 207 299 279 q 284 149 277 168 q 298 129 284 142 q 338 104 313 117 q 481 76 401 76 q 573 96 525 76 q 661 153 621 115 q 752 366 752 238 q 655 562 752 494 q 456 616 574 616 q 400 610 428 616 q 322 599 349 599 q 295 621 295 599 q 301 643 295 633 q 321 670 307 652 q 359 713 336 688 q 615 999 432 796 q 308 981 342 981 q 264 976 274 981 q 245 960 255 970 l 205 915 q 178 900 191 900 q 159 932 159 900 l 160 992 q 155 1079 160 1061 q 165 1120 145 1120 q 199 1104 180 1120 q 231 1077 218 1088 q 273 1049 263 1050 q 297 1048 282 1048 q 340 1049 312 1048 q 403 1051 368 1050 q 475 1055 437 1053 q 549 1059 513 1057 l 677 1069 q 709 1010 757 1069 q 694 993 707 1007 l 662 958 l 519 800 q 422 692 429 700 q 416 680 416 685 q 437 674 416 674 z "},"4":{"ha":922,"x_min":57,"x_max":852,"o":"m 404 -58 q 372 -39 372 -58 q 397 0 372 -18 q 466 90 460 42 l 481 285 q 494 460 487 363 l 102 470 q 57 493 57 470 q 69 523 57 509 q 101 560 81 536 q 153 623 121 585 l 222 708 q 542 1108 511 1059 q 589 1145 566 1145 q 611 1105 611 1145 q 568 512 611 1064 q 703 507 670 507 q 760 520 735 507 q 808 553 785 534 q 852 557 852 591 q 845 515 852 543 q 831 426 831 460 l 832 391 q 818 370 832 370 q 792 381 803 370 q 769 406 781 392 q 700 452 735 446 q 622 456 680 456 l 559 456 q 536 114 536 161 q 539 55 536 67 q 548 33 542 42 l 591 -14 q 604 -41 604 -31 q 569 -62 604 -62 q 552 -60 560 -62 q 537 -57 545 -58 q 503 -52 513 -52 l 404 -58 m 496 516 l 540 995 l 158 516 l 496 516 z "},"5":{"ha":905,"x_min":32,"x_max":803,"o":"m 96 140 q 32 164 32 140 q 51 189 32 180 q 88 213 69 199 q 125 243 107 227 q 172 297 161 276 q 193 319 182 319 q 212 309 203 319 q 220 286 220 300 l 203 184 q 216 170 207 181 q 241 144 225 159 q 279 115 257 130 q 328 85 300 99 q 453 56 391 56 q 566 75 516 56 q 654 129 616 94 q 737 327 737 206 q 595 581 737 524 q 494 600 547 600 q 409 594 441 600 q 353 579 377 588 q 311 560 329 570 q 280 541 294 549 q 199 534 227 506 q 186 568 186 547 l 191 614 q 195 755 195 702 l 195 840 q 193 977 195 943 l 191 1017 q 198 1063 189 1057 q 243 1070 211 1070 q 329 1069 292 1069 q 602 1067 578 1067 q 648 1084 626 1067 q 692 1122 671 1100 q 724 1144 713 1144 q 735 1114 735 1144 l 732 1071 q 737 1023 732 1048 q 728 948 753 948 q 694 967 709 948 q 655 998 680 987 q 604 1010 630 1010 l 422 1010 q 262 1010 351 1010 q 256 653 256 707 q 265 598 256 598 q 288 610 270 598 q 320 629 306 621 q 359 644 335 636 q 604 644 485 683 q 776 484 724 605 q 803 336 803 421 q 774 189 803 251 q 696 83 745 126 q 450 -4 596 -4 q 248 58 341 -4 q 190 104 212 82 q 157 132 167 126 q 123 141 143 141 l 96 140 z "},"6":{"ha":798,"x_min":112,"x_max":690,"o":"m 191 279 q 199 308 193 279 q 227 371 205 336 q 281 430 249 406 q 450 479 348 479 q 611 412 540 479 q 690 226 690 339 q 595 20 690 90 q 374 -28 498 -51 q 236 43 301 -14 q 129 241 161 110 q 112 420 112 311 q 143 629 112 529 q 224 809 174 729 q 460 1059 308 944 q 506 1100 496 1087 q 529 1149 524 1124 q 557 1199 539 1199 q 573 1187 564 1199 q 584 1154 581 1176 q 593 1115 587 1131 q 607 1085 599 1099 q 632 1044 612 1076 q 652 1002 652 1013 q 627 993 652 989 q 611 1000 621 994 q 593 1011 602 1006 q 575 1017 584 1015 q 520 1020 539 1027 q 490 1004 500 1012 q 206 593 275 861 q 182 391 182 503 q 191 279 182 279 m 259 309 q 241 224 241 269 q 250 154 241 180 q 275 107 260 127 q 310 72 290 87 q 351 47 330 57 q 548 65 450 0 q 619 207 619 113 q 560 363 619 303 q 370 406 487 437 q 259 309 293 384 z "},"7":{"ha":783,"x_min":85,"x_max":773,"o":"m 711 1061 q 745 1017 773 1061 l 664 840 l 504 487 l 410 278 q 363 170 369 189 q 357 129 357 152 q 368 53 357 87 q 381 -1 381 13 q 343 -3 381 -23 q 192 68 227 60 q 151 83 157 77 q 145 95 145 88 q 154 107 145 102 q 177 116 163 112 q 209 124 191 120 q 244 136 227 129 q 303 184 286 154 q 675 1006 346 269 q 487 1005 573 1005 l 261 1005 q 125 949 186 1005 q 85 943 85 912 q 89 978 85 957 q 92 1036 92 1000 l 88 1134 q 100 1160 88 1160 q 126 1142 109 1160 q 156 1111 144 1124 q 183 1087 169 1098 q 259 1061 217 1061 q 370 1062 330 1062 l 711 1061 z "},"8":{"ha":850,"x_min":102,"x_max":756,"o":"m 102 260 q 115 361 102 318 q 150 438 129 404 q 199 499 172 473 q 253 545 226 526 q 346 602 292 574 q 353 610 353 605 q 337 622 353 615 q 290 652 321 629 q 229 710 258 675 q 160 888 160 793 q 236 1066 160 996 q 426 1137 311 1137 q 610 1074 539 1137 q 686 889 686 1008 q 559 664 686 768 q 501 623 519 631 q 483 611 483 615 q 494 602 483 607 q 531 586 505 596 q 586 559 557 575 q 646 519 616 543 q 701 462 676 496 q 756 277 756 385 q 642 39 756 125 q 370 -28 524 -49 q 165 75 239 -11 q 102 260 102 148 m 421 641 q 541 727 481 669 q 622 877 622 804 q 573 1026 622 975 q 425 1078 524 1078 q 241 968 288 1078 q 226 883 226 931 q 247 796 226 835 q 298 726 268 757 q 421 641 355 667 m 215 415 q 205 400 215 415 q 183 347 195 385 q 172 263 172 309 q 186 176 172 218 q 233 102 201 135 q 427 29 304 29 q 622 104 549 29 q 689 273 689 172 q 604 475 689 410 q 503 532 557 510 q 413 570 448 554 q 305 505 326 519 q 259 468 284 491 q 215 415 234 445 z "},"9":{"ha":852,"x_min":66,"x_max":713,"o":"m 585 343 q 603 380 585 343 q 638 500 621 418 q 655 640 655 583 q 649 697 655 697 q 640 688 644 697 l 633 674 q 627 659 631 669 q 604 629 622 649 q 562 593 587 610 q 436 555 502 555 q 319 573 371 555 q 231 625 268 591 q 155 820 155 696 q 237 1006 155 933 q 429 1076 316 1076 q 635 967 557 1076 q 713 671 713 857 q 497 129 713 322 q 313 15 421 60 q 255 -71 286 3 q 226 -129 233 -121 q 212 -136 218 -136 q 199 -126 205 -136 q 193 -105 194 -116 q 183 -72 192 -94 q 160 -26 174 -51 q 108 58 131 28 q 100 112 66 112 q 146 94 111 112 q 228 61 212 61 q 254 63 244 61 q 278 71 263 65 q 368 112 297 79 q 494 207 439 146 q 585 343 549 269 m 434 614 q 512 633 477 614 q 573 681 548 652 q 636 814 618 734 q 543 973 606 922 q 434 1015 490 1015 q 339 1000 377 1015 q 275 960 302 986 q 218 813 218 904 q 286 661 218 715 q 434 614 345 615 z "},"\u0000":{"ha":0,"x_min":0,"x_max":0,"o":""},"\r":{"ha":0,"x_min":0,"x_max":0,"o":""},"\u0001":{"ha":0,"x_min":0,"x_max":0,"o":""},"\u0002":{"ha":0,"x_min":0,"x_max":0,"o":""},"\u0003":{"ha":0,"x_min":0,"x_max":0,"o":""},"\u0004":{"ha":0,"x_min":0,"x_max":0,"o":""},"\u0005":{"ha":0,"x_min":0,"x_max":0,"o":""},"\u0006":{"ha":0,"x_min":0,"x_max":0,"o":""},"\u0007":{"ha":0,"x_min":0,"x_max":0,"o":""},"\b":{"ha":0,"x_min":0,"x_max":0,"o":""},"\t":{"ha":0,"x_min":0,"x_max":0,"o":""},"\n":{"ha":0,"x_min":0,"x_max":0,"o":""},"\u0010":{"ha":0,"x_min":0,"x_max":0,"o":""},"\u0011":{"ha":0,"x_min":0,"x_max":0,"o":""},"\u0012":{"ha":0,"x_min":0,"x_max":0,"o":""},"\u0013":{"ha":0,"x_min":0,"x_max":0,"o":""},"\u0014":{"ha":0,"x_min":0,"x_max":0,"o":""},"\u0015":{"ha":0,"x_min":0,"x_max":0,"o":""},"\u0016":{"ha":0,"x_min":0,"x_max":0,"o":""},"\u0017":{"ha":0,"x_min":0,"x_max":0,"o":""},"\u0018":{"ha":0,"x_min":0,"x_max":0,"o":""},"\u0019":{"ha":0,"x_min":0,"x_max":0,"o":""},"\u001e":{"ha":0,"x_min":0,"x_max":0,"o":""},"\u001f":{"ha":0,"x_min":0,"x_max":0,"o":""}," ":{"ha":581,"x_min":0,"x_max":0,"o":""},"!":{"ha":546,"x_min":131,"x_max":459,"o":"m 309 243 l 260 248 q 195 255 208 248 q 189 297 168 271 q 220 335 210 323 q 235 356 230 348 q 245 382 243 368 l 296 1038 q 283 1082 296 1064 q 259 1115 271 1099 q 227 1186 227 1156 q 263 1210 227 1216 l 304 1198 q 395 1187 338 1187 l 414 1187 q 448 1181 437 1187 q 459 1161 459 1175 q 437 1119 459 1138 q 398 1083 414 1101 q 372 1051 382 1066 q 353 1007 353 1021 q 312 398 312 426 q 312 358 312 370 q 313 336 311 346 q 326 299 317 313 q 309 243 363 243 m 156 -157 q 131 -140 131 -157 q 160 -91 131 -124 q 202 -43 190 -57 q 221 -19 214 -28 q 244 0 237 0 q 265 -19 256 0 q 287 -54 275 -39 q 312 -84 300 -69 q 305 -158 372 -158 l 213 -154 l 156 -157 z "},"\"":{"ha":778,"x_min":115,"x_max":638,"o":"m 270 1112 q 311 1079 327 1112 q 293 1057 307 1072 q 271 1029 279 1042 q 258 1003 262 1015 q 249 947 254 992 l 245 789 q 237 732 250 750 q 213 715 224 715 q 193 726 201 715 q 188 785 180 745 l 192 959 q 179 1015 186 989 q 157 1053 172 1042 q 143 1107 115 1085 q 167 1114 153 1114 l 237 1111 l 270 1112 m 581 1112 q 622 1079 638 1112 q 604 1057 618 1072 q 582 1029 591 1042 q 569 1003 573 1015 q 560 947 566 992 l 556 789 q 549 732 562 750 q 524 715 536 715 q 505 726 513 715 q 499 785 491 745 l 503 959 q 491 1015 498 989 q 469 1053 484 1042 q 454 1107 427 1085 q 478 1114 465 1114 l 549 1111 l 581 1112 z "},"#":{"ha":1001,"x_min":45,"x_max":1000,"o":"m 90 687 q 105 819 105 791 l 97 886 q 114 917 97 917 q 152 885 130 917 q 214 823 173 852 q 229 815 224 815 l 359 817 q 388 1031 388 990 q 347 1078 385 1052 q 322 1098 334 1088 q 311 1120 311 1108 q 342 1141 311 1141 l 384 1139 q 448 1147 414 1139 q 514 1160 500 1160 q 535 1138 535 1160 q 517 1104 535 1117 q 487 1075 498 1091 q 465 1042 475 1059 q 445 989 447 1006 l 412 817 l 707 821 q 733 1007 733 981 q 730 1040 733 1034 q 723 1052 728 1047 q 710 1063 718 1057 q 697 1076 703 1068 q 686 1088 691 1083 q 677 1097 681 1093 q 666 1120 666 1109 q 703 1141 666 1141 l 736 1140 q 793 1148 760 1140 q 836 1158 827 1156 q 857 1160 846 1160 q 876 1153 869 1160 q 884 1135 884 1145 q 864 1099 884 1112 q 832 1071 844 1085 q 811 1042 820 1057 q 790 991 792 1011 q 764 822 787 964 l 833 823 q 887 838 869 823 q 940 906 911 861 q 969 924 955 924 q 996 889 996 924 l 991 813 q 996 750 991 770 q 1000 722 1000 730 q 994 707 1000 715 q 975 698 987 699 q 946 708 962 697 q 914 732 930 719 q 846 766 869 766 l 755 765 l 688 370 l 712 371 q 796 385 770 372 q 874 456 844 408 q 903 474 889 474 q 930 439 930 474 l 926 366 q 930 298 926 317 q 935 275 935 280 q 915 250 935 251 q 880 258 896 248 q 848 281 865 268 q 781 317 804 314 l 678 317 l 629 60 q 644 26 629 39 q 695 -12 654 18 q 711 -34 711 -22 q 698 -54 711 -45 q 662 -62 686 -62 l 601 -58 l 570 -58 q 458 -27 458 -58 q 478 -1 458 -12 q 510 19 498 10 q 530 39 522 28 q 570 110 560 74 q 587 175 581 146 q 618 317 601 230 q 314 313 384 315 l 264 56 q 271 22 260 37 q 292 -5 281 7 q 319 -53 319 -35 q 271 -78 319 -78 l 214 -74 l 140 -77 q 105 -68 118 -77 q 92 -50 92 -60 q 112 -22 92 -33 q 144 -4 132 -11 q 164 12 155 3 q 204 76 192 36 q 224 149 216 117 q 261 311 236 196 q 191 307 209 309 q 125 262 167 305 q 96 231 110 245 q 69 216 81 216 q 45 237 45 216 q 60 369 60 342 l 52 437 q 68 467 52 467 q 106 435 85 467 q 168 373 127 403 q 183 366 178 366 l 273 366 q 350 760 311 542 q 287 758 309 759 l 254 757 q 231 755 242 757 q 203 739 220 753 q 170 708 186 724 q 115 665 129 666 q 90 687 90 665 m 629 370 q 699 764 668 574 l 400 760 l 324 367 l 629 370 z "},"$":{"ha":806,"x_min":115,"x_max":747,"o":"m 136 50 q 115 83 115 50 q 128 296 128 172 q 152 319 128 332 q 183 289 172 307 q 202 256 194 271 q 220 227 210 241 q 267 186 244 191 q 406 170 342 170 q 421 640 416 425 q 287 734 326 694 q 230 817 249 775 q 211 907 211 858 q 227 990 211 956 q 273 1050 243 1025 q 427 1116 332 1103 q 424 1233 427 1200 q 410 1281 421 1266 q 385 1310 398 1297 l 362 1333 q 363 1374 339 1356 q 414 1380 380 1388 q 477 1373 447 1373 l 541 1380 q 564 1373 557 1380 q 558 1329 581 1355 q 528 1301 546 1321 q 494 1243 494 1260 q 492 1120 494 1227 q 591 1109 547 1118 q 650 1126 602 1109 q 712 1150 697 1143 q 747 1146 747 1167 q 739 1112 747 1136 l 720 1045 q 710 1006 713 1026 q 705 968 708 985 q 698 941 703 951 q 684 930 693 930 q 667 934 675 930 q 653 945 660 939 q 626 983 636 961 q 610 1017 616 1004 q 582 1050 594 1047 q 490 1061 538 1061 l 480 675 q 564 628 521 653 q 642 570 606 604 q 721 370 721 491 q 650 193 721 261 q 465 111 583 128 q 462 -14 462 8 q 468 -46 462 -35 q 484 -68 475 -58 q 500 -86 493 -79 q 513 -102 507 -94 q 517 -152 538 -136 q 487 -160 503 -163 q 463 -153 472 -156 q 362 -155 405 -140 q 310 -139 310 -173 q 331 -93 310 -117 q 362 -56 351 -69 q 393 -4 390 -21 q 402 106 398 19 q 263 119 326 106 q 182 85 228 123 q 154 61 166 72 q 136 50 142 50 m 422 710 q 427 1055 427 933 q 286 966 321 1034 q 319 798 246 886 q 422 710 355 754 m 466 174 q 650 396 650 202 q 543 565 650 492 q 478 606 512 586 l 466 174 z "},"%":{"ha":1263,"x_min":119,"x_max":1144,"o":"m 377 513 q 345 510 355 510 q 313 513 335 510 q 266 524 292 515 q 215 549 241 533 q 167 592 189 566 q 119 749 119 652 q 189 922 119 848 q 404 994 275 1013 q 552 903 500 981 q 595 736 595 839 q 538 585 595 642 q 377 513 479 524 m 355 56 l 360 -1 q 353 -23 360 -12 q 338 -34 347 -34 q 311 -19 321 -34 q 288 7 300 -3 q 262 26 276 17 l 207 60 q 195 77 195 68 q 225 109 196 102 q 279 120 254 116 q 309 131 303 125 q 336 164 315 137 q 393 236 357 191 q 475 340 429 281 q 572 462 522 399 q 672 589 622 526 q 766 708 723 653 l 892 868 q 913 922 913 894 l 908 967 q 914 988 908 977 q 932 1000 920 1000 q 962 979 944 1000 q 1053 901 1004 928 q 1069 878 1069 892 q 1031 854 1069 854 l 1010 855 q 966 848 981 855 q 944 831 951 840 q 909 787 937 823 l 841 703 q 368 102 433 193 q 355 56 355 83 m 252 607 q 265 597 252 607 q 307 580 279 587 q 346 573 334 573 q 374 575 358 573 q 411 582 391 576 q 453 599 431 588 q 494 628 475 610 q 536 741 536 671 q 433 924 536 882 q 313 928 368 951 l 262 906 q 246 897 256 905 q 223 871 235 889 q 202 832 210 852 q 186 743 186 791 q 205 661 186 695 q 252 607 224 626 m 681 137 q 667 226 667 175 q 686 322 667 277 q 737 401 705 367 q 952 475 823 493 q 1101 383 1048 460 q 1144 216 1144 319 q 1088 64 1144 122 q 926 -8 1027 3 q 764 29 838 -18 q 681 137 707 64 m 754 321 q 749 310 754 321 q 739 275 744 299 q 734 213 734 252 q 754 140 734 175 q 800 87 773 106 q 1002 79 889 23 q 1073 155 1050 102 q 1084 223 1084 182 q 1076 294 1084 263 q 1053 347 1067 326 q 1020 382 1038 369 q 982 404 1001 396 q 861 408 916 431 q 818 389 839 399 q 781 361 798 379 q 754 321 765 343 z "},"&":{"ha":1244,"x_min":104,"x_max":1187,"o":"m 1184 293 q 1156 277 1184 252 q 1124 308 1140 290 q 1099 334 1108 326 q 1031 358 1072 358 l 926 355 q 926 338 926 347 l 926 323 q 767 2 926 92 q 500 -49 671 -52 q 234 33 349 -47 q 122 182 157 85 q 104 304 104 233 q 128 432 104 376 q 189 529 152 488 q 270 595 226 569 q 354 635 314 621 q 446 661 416 659 q 475 667 475 663 q 465 675 475 670 q 445 685 454 680 q 416 706 435 691 q 378 745 397 720 q 329 870 329 807 q 342 970 329 932 q 378 1035 356 1008 q 428 1079 401 1062 q 484 1106 456 1097 q 659 1114 572 1135 q 715 1105 703 1103 q 739 1111 728 1107 l 820 1139 q 847 1128 847 1145 q 825 1071 847 1114 q 802 1000 804 1031 q 801 951 801 970 q 793 924 801 932 q 774 916 785 916 q 754 928 764 916 q 736 959 745 941 q 703 1021 712 1012 l 689 1035 q 590 1067 667 1057 q 449 1026 509 1077 q 392 892 392 977 q 473 742 392 806 q 543 701 507 715 q 594 686 578 686 q 617 689 610 686 q 633 696 625 691 q 684 730 646 704 q 720 726 720 757 q 714 675 720 704 q 708 606 708 647 l 709 582 q 688 566 709 553 l 640 605 q 612 627 627 615 q 551 623 590 623 q 473 617 511 623 q 393 595 434 610 q 313 555 353 580 q 241 495 273 531 q 174 260 159 401 q 210 149 180 198 q 278 72 241 100 q 506 7 364 7 q 838 184 765 7 q 864 328 864 248 l 863 350 q 791 349 824 349 q 698 347 711 347 q 672 339 684 347 q 647 320 659 332 q 611 279 625 300 q 578 250 591 250 q 558 279 558 250 l 563 345 q 554 417 563 388 q 546 463 546 446 q 560 479 546 479 q 586 466 574 479 q 612 437 598 452 q 680 395 647 395 l 1040 406 q 1098 426 1074 406 q 1139 473 1122 447 q 1171 510 1161 510 q 1187 476 1187 510 l 1181 365 l 1184 293 z "},"'":{"ha":453,"x_min":115,"x_max":327,"o":"m 270 1112 q 311 1079 327 1112 q 293 1057 307 1072 q 271 1029 279 1042 q 258 1003 262 1015 q 249 947 254 992 l 245 789 q 237 732 250 750 q 213 715 224 715 q 193 726 201 715 q 188 785 180 745 l 192 959 q 179 1015 186 989 q 157 1053 172 1042 q 143 1107 115 1085 q 167 1114 153 1114 l 237 1111 l 270 1112 z "},"(":{"ha":782,"x_min":74,"x_max":646,"o":"m 438 -264 l 441 -214 q 425 -128 441 -151 l 281 81 q 183 259 209 187 q 213 895 74 557 q 374 1177 276 1050 q 374 1315 395 1204 q 398 1360 366 1360 q 447 1336 415 1360 q 496 1299 479 1312 q 530 1274 513 1286 q 561 1252 548 1262 q 589 1222 589 1230 q 582 1205 589 1214 q 561 1195 574 1197 q 532 1188 547 1192 q 500 1176 517 1183 q 266 850 358 1112 q 222 381 172 587 q 471 -76 273 173 q 612 -119 491 -100 q 636 -125 626 -121 q 646 -138 646 -130 q 587 -197 646 -164 q 506 -260 524 -231 q 485 -282 498 -273 q 460 -292 471 -292 q 438 -264 438 -292 z "},")":{"ha":746,"x_min":136,"x_max":610,"o":"m 355 -263 q 334 -291 355 -291 q 309 -281 323 -291 q 287 -258 295 -271 q 265 -233 279 -245 q 236 -212 252 -222 l 182 -180 q 148 -143 148 -157 q 158 -124 148 -128 q 181 -118 168 -120 q 216 -112 195 -115 q 259 -102 237 -108 q 323 -75 311 -90 q 542 545 542 201 q 471 891 542 689 q 166 1261 350 1231 q 143 1273 151 1264 q 136 1288 136 1281 q 143 1302 136 1295 q 164 1320 151 1310 l 232 1369 q 326 1427 308 1427 q 349 1418 343 1427 q 354 1401 354 1410 q 352 1382 354 1393 q 347 1358 350 1371 q 355 1238 331 1269 q 410 1159 380 1207 q 469 1055 440 1111 q 524 935 498 998 q 568 806 549 872 q 610 564 610 663 q 603 403 610 465 q 582 288 596 342 q 548 184 568 233 q 500 85 528 134 q 369 -127 464 16 q 353 -213 353 -149 l 355 -263 z "},"*":{"ha":972,"x_min":119,"x_max":878,"o":"m 313 295 l 318 239 q 312 221 318 228 q 277 228 298 205 q 173 292 234 276 q 139 326 139 300 q 152 346 139 340 q 183 357 164 353 q 259 382 243 370 q 294 407 276 394 q 335 435 313 420 l 437 507 q 320 585 370 555 q 266 615 269 614 l 265 616 q 227 623 250 623 l 147 613 q 119 634 119 613 q 143 671 119 648 q 188 718 168 693 q 221 761 207 742 q 290 795 269 826 q 303 751 302 779 q 305 707 304 723 q 328 656 310 667 q 365 630 345 646 q 403 597 384 614 q 473 539 454 551 l 473 585 q 467 754 473 693 q 451 791 465 774 q 428 818 437 808 q 412 833 418 827 q 400 846 406 840 q 387 874 387 861 q 427 903 387 903 l 500 896 q 535 901 520 896 q 565 906 551 906 q 599 880 599 906 q 586 851 597 868 q 563 818 574 833 q 545 789 552 802 q 529 760 530 766 q 527 736 528 754 q 523 690 525 718 q 517 567 517 616 l 635 663 q 700 760 700 720 l 693 824 q 718 853 693 853 q 746 842 734 853 q 773 815 759 831 q 804 782 787 800 q 843 751 821 764 q 878 718 878 732 q 861 697 878 703 q 819 688 843 691 q 735 665 751 678 l 654 606 q 610 574 633 591 q 564 540 587 557 q 521 507 541 523 q 635 432 587 465 q 716 380 683 398 q 778 359 749 363 q 829 353 806 355 q 862 346 851 351 q 872 331 872 340 q 856 298 872 312 q 828 274 840 283 q 803 254 815 264 q 767 218 771 229 l 768 219 q 752 196 763 206 q 731 186 741 186 q 701 219 706 186 l 694 283 q 683 327 691 315 l 517 451 q 522 309 517 359 q 529 249 527 258 q 544 224 532 240 q 570 194 556 208 q 603 144 603 157 q 578 122 603 122 q 560 127 576 122 q 458 138 526 138 l 416 132 q 391 146 391 132 q 417 184 391 156 q 456 227 444 213 q 468 257 468 241 q 469 302 468 273 q 469 359 469 330 l 471 470 q 368 385 404 418 l 332 353 q 313 295 313 338 z "},"+":{"ha":1042,"x_min":104,"x_max":954,"o":"m 501 13 l 432 10 q 439 66 383 10 l 456 83 q 488 128 488 115 l 493 420 l 242 419 q 187 380 220 417 q 162 354 174 366 q 134 341 149 342 q 111 366 104 341 q 120 465 120 404 l 117 534 q 173 527 117 583 l 190 510 q 235 476 224 476 l 494 473 l 491 698 q 477 733 490 719 q 451 761 465 748 q 424 786 436 774 q 410 814 411 799 q 422 835 410 829 q 469 841 434 841 q 520 840 469 841 q 550 843 537 840 l 571 848 q 587 851 578 850 q 623 827 621 851 q 600 779 623 808 q 566 733 577 749 q 553 701 555 717 l 547 472 l 805 473 q 840 486 825 473 q 867 514 854 499 q 893 542 880 529 q 923 556 906 555 q 949 521 949 556 l 945 451 q 949 387 945 404 q 954 364 954 369 q 928 336 954 339 q 900 348 914 336 q 871 373 886 359 q 808 412 829 410 l 547 418 l 547 135 q 559 105 547 119 q 585 80 571 92 q 612 55 600 67 q 625 27 624 42 q 600 3 625 -3 q 501 13 562 13 z "},",":{"ha":505,"x_min":134,"x_max":387,"o":"m 387 131 q 379 108 387 120 q 361 77 371 96 q 338 35 351 58 q 309 -13 325 12 q 275 -62 293 -38 q 144 -134 183 -180 q 134 -111 134 -121 q 140 -96 134 -100 q 162 -81 146 -93 q 195 -53 178 -68 q 237 3 237 -15 q 225 35 237 21 q 198 68 212 49 q 175 98 183 87 q 164 115 168 109 q 159 133 159 125 q 182 151 159 151 l 261 144 q 334 149 316 144 q 387 131 387 165 z "},"-":{"ha":931,"x_min":149,"x_max":782,"o":"m 656 399 l 281 404 q 214 375 240 404 q 194 355 203 364 q 171 347 185 347 q 149 376 149 347 l 159 453 q 156 509 159 453 q 162 532 156 523 q 176 541 168 541 q 214 511 195 541 q 259 471 229 486 q 271 467 267 467 l 549 458 q 642 461 614 458 q 684 475 669 465 q 710 497 698 486 q 732 519 722 509 q 757 528 743 528 q 779 497 779 528 l 774 424 l 782 361 q 757 336 782 336 q 734 345 747 336 q 656 399 684 394 z "},".":{"ha":517,"x_min":146,"x_max":384,"o":"m 343 152 q 384 127 384 152 q 358 80 384 109 q 316 35 332 52 q 293 5 300 18 q 237 0 261 -50 q 198 60 222 31 q 146 134 146 121 q 185 161 146 169 q 302 151 236 151 l 343 152 z "},"/":{"ha":892,"x_min":28,"x_max":860,"o":"m 205 -206 q 186 -252 218 -252 q 161 -243 173 -252 q 135 -225 149 -233 q 106 -210 121 -217 q 46 -185 84 -199 q 28 -166 28 -178 q 33 -146 28 -154 q 51 -134 37 -138 q 81 -126 65 -130 q 138 -92 123 -115 q 300 244 163 -54 q 473 618 437 541 q 543 767 509 696 q 604 897 576 838 q 672 1039 656 1008 q 693 1095 693 1080 q 691 1119 693 1110 q 686 1135 688 1128 q 683 1181 673 1171 q 704 1192 692 1192 q 745 1174 719 1192 q 802 1135 778 1144 q 843 1117 827 1125 q 860 1096 860 1108 q 815 1067 860 1070 q 757 1046 782 1065 q 746 1032 750 1040 q 723 986 742 1024 q 678 893 705 949 q 618 769 651 838 q 548 623 585 699 q 474 466 512 546 q 399 309 435 385 q 329 162 362 232 q 269 35 296 92 q 197 -117 203 -105 q 191 -143 191 -130 q 194 -167 191 -156 l 205 -206 z "},":":{"ha":517,"x_min":146,"x_max":384,"o":"m 343 815 q 384 790 384 815 q 358 743 384 772 q 316 698 332 715 q 293 669 300 682 q 237 663 261 613 q 198 723 222 694 q 146 798 146 785 q 185 825 146 832 q 302 814 236 814 l 343 815 m 343 146 q 384 121 384 146 q 358 75 384 103 q 316 30 332 46 q 293 0 300 13 q 237 -5 261 -56 q 198 54 222 26 q 146 129 146 116 q 185 156 146 163 q 302 145 236 145 l 343 146 z "},";":{"ha":517,"x_min":134,"x_max":387,"o":"m 343 860 q 384 835 384 860 q 358 788 384 817 q 316 743 332 760 q 293 713 300 726 q 237 708 261 658 q 198 768 222 739 q 146 842 146 829 q 185 869 146 877 q 302 859 236 859 l 343 860 m 387 131 q 379 108 387 120 q 361 77 371 96 q 338 35 351 58 q 309 -13 325 12 q 275 -62 293 -38 q 144 -134 183 -180 q 134 -111 134 -121 q 140 -96 134 -100 q 162 -81 146 -93 q 195 -53 178 -68 q 237 3 237 -15 q 225 35 237 21 q 198 68 212 49 q 175 98 183 87 q 164 115 168 109 q 159 133 159 125 q 182 151 159 151 l 261 144 q 334 149 316 144 q 387 131 387 165 z "},"<":{"ha":1021,"x_min":127,"x_max":859,"o":"m 819 130 q 838 94 854 130 q 809 56 830 77 q 776 23 788 36 q 740 -30 747 -9 q 721 -65 733 -52 q 698 -79 708 -79 q 673 -50 677 -79 q 662 0 668 -21 q 648 37 655 22 q 625 73 637 61 q 582 112 613 85 q 507 176 550 140 q 413 254 464 212 q 313 339 363 296 q 136 494 187 446 q 127 513 127 499 q 151 556 127 542 q 219 603 175 571 q 312 672 262 634 q 414 751 362 710 q 510 829 465 792 q 623 926 602 904 q 649 961 644 949 q 658 987 654 973 q 670 1059 671 1037 q 671 1092 669 1081 q 700 1115 673 1115 q 759 1065 717 1115 l 809 1005 q 859 940 859 949 q 850 923 859 931 q 817 916 841 916 q 686 886 774 916 q 351 619 661 878 q 223 510 273 555 q 613 165 392 337 q 654 136 642 142 q 724 124 673 124 l 819 130 z "},"=":{"ha":844,"x_min":94,"x_max":768,"o":"m 618 612 l 229 626 q 181 601 208 625 q 142 566 155 576 q 117 555 129 555 q 94 576 94 555 l 102 623 q 105 662 105 642 l 96 741 q 115 772 96 772 q 165 738 134 772 q 225 685 210 685 q 386 678 305 685 q 523 671 467 671 q 601 671 579 671 q 640 677 622 672 q 711 733 680 689 q 725 743 715 738 q 742 749 734 749 q 766 717 766 749 l 762 665 l 768 570 q 743 536 768 536 q 713 547 728 536 q 682 571 699 558 q 618 612 638 608 m 618 258 l 229 271 q 181 246 208 271 q 142 211 155 222 q 117 200 129 200 q 94 221 94 200 l 102 269 q 105 307 105 288 l 96 387 q 115 418 96 418 q 165 383 134 418 q 225 330 210 330 q 386 323 305 330 q 523 316 467 316 q 601 317 579 316 q 640 323 622 317 q 711 378 680 334 q 725 389 715 383 q 742 394 734 394 q 766 362 766 394 l 762 311 l 768 215 q 743 182 768 182 q 713 193 728 182 q 682 217 699 203 q 618 258 638 254 z "},">":{"ha":1065,"x_min":176,"x_max":907,"o":"m 216 904 q 196 939 180 904 q 225 977 204 957 q 258 1010 246 998 q 294 1064 288 1042 q 314 1099 301 1085 q 336 1112 326 1112 q 362 1083 357 1112 q 373 1033 366 1055 q 386 997 379 1012 q 409 961 397 972 q 453 921 421 949 q 527 858 484 894 q 621 780 570 822 q 722 694 671 737 q 899 539 847 587 q 907 521 907 534 q 883 477 907 492 q 816 431 859 463 q 722 362 772 399 q 621 283 672 324 q 524 205 569 241 q 411 107 432 130 q 385 73 390 85 q 376 46 380 60 q 364 -25 363 -3 q 364 -58 365 -47 q 334 -81 361 -81 q 275 -31 317 -81 l 225 29 q 176 94 176 85 q 185 110 176 102 q 218 118 193 118 q 348 147 260 118 q 684 414 373 155 q 811 524 761 479 q 421 868 642 696 q 380 898 392 891 q 311 909 362 909 l 216 904 z "},"?":{"ha":789,"x_min":81,"x_max":696,"o":"m 403 292 l 347 288 q 319 301 319 288 q 331 323 319 314 q 357 345 343 333 q 395 417 395 374 q 427 641 395 564 q 507 756 452 699 q 551 801 530 779 q 590 846 573 822 q 629 958 629 901 q 616 1049 629 1015 q 579 1107 604 1083 q 443 1154 529 1154 q 248 1036 309 1154 q 258 940 227 996 q 246 909 275 909 q 207 922 233 909 q 128 945 152 947 q 93 951 104 944 q 81 967 81 958 q 92 985 81 977 q 117 1001 102 992 q 175 1048 159 1025 q 216 1102 190 1071 q 277 1158 242 1133 q 507 1213 383 1238 q 601 1174 564 1202 q 655 1119 637 1145 q 696 979 696 1061 q 612 773 696 857 q 523 679 544 706 q 491 623 501 652 q 474 564 480 594 q 465 503 469 533 q 460 387 452 404 q 476 361 468 371 l 513 320 q 522 301 522 311 q 463 288 522 275 q 403 292 441 292 m 490 109 q 527 88 527 109 q 504 44 527 73 q 472 3 480 16 q 456 -22 463 -10 q 428 -48 438 -48 q 410 -35 418 -48 q 389 -5 402 -21 q 361 27 375 11 q 319 78 323 72 q 316 92 316 83 q 341 109 316 109 l 398 106 l 490 109 z "},"@":{"ha":1331,"x_min":89,"x_max":1360,"o":"m 1197 266 q 1216 286 1198 286 q 1243 265 1230 286 q 1278 226 1257 243 q 1317 194 1299 208 q 1348 168 1335 180 q 1360 144 1360 156 q 1353 129 1360 133 q 1333 123 1345 125 q 1306 121 1321 121 q 1275 119 1291 121 q 1221 101 1238 115 q 1177 65 1204 86 q 1113 21 1149 44 q 1029 -24 1076 -1 q 928 -64 983 -46 q 392 -43 640 -156 q 112 255 179 53 q 89 430 89 325 q 118 637 89 535 q 198 817 148 739 q 316 948 249 894 q 458 1038 382 1003 q 764 1103 603 1103 q 1098 1004 969 1103 q 1239 694 1239 894 q 1175 437 1239 557 q 1035 269 1120 336 q 846 218 923 182 q 787 345 787 246 q 788 355 787 349 q 618 231 721 266 q 480 227 547 205 q 376 320 411 250 q 357 416 357 357 q 373 528 357 475 q 417 621 390 581 q 481 690 445 661 q 556 737 517 719 q 716 772 632 772 q 850 712 800 772 q 858 767 863 751 q 846 797 853 783 q 833 822 839 810 q 825 840 827 833 q 819 858 819 852 q 857 872 819 889 q 986 846 903 850 q 1025 821 1025 844 q 1010 795 1025 806 q 977 775 996 785 q 941 756 958 766 q 918 726 924 746 q 904 675 911 707 q 888 612 896 644 q 874 548 881 580 q 863 490 868 516 q 848 415 863 490 q 845 354 841 384 q 856 311 849 325 q 956 293 882 256 q 1074 397 1017 323 q 1162 579 1135 476 q 1151 830 1196 711 q 941 1017 1100 964 q 767 1045 861 1045 q 601 1026 673 1045 q 461 971 528 1008 q 338 881 395 935 q 240 755 281 827 q 152 408 152 605 q 244 131 152 241 q 453 -8 321 39 q 652 -45 559 -45 q 806 -35 746 -45 q 918 -6 866 -24 q 1013 32 970 11 q 1090 75 1056 54 q 1189 149 1139 106 q 1198 217 1198 158 l 1197 266 m 454 545 q 447 529 454 545 q 435 481 441 513 q 429 421 429 449 q 436 369 429 394 q 456 324 442 343 q 554 282 487 282 q 682 326 621 282 q 786 460 742 370 q 821 603 815 572 q 829 648 826 633 q 783 694 802 684 q 700 713 749 713 q 609 699 650 713 q 538 662 569 685 q 487 608 508 638 q 454 545 467 577 z "},"A":{"ha":1286,"x_min":56,"x_max":1219,"o":"m 271 -52 q 244 -77 271 -77 q 209 -63 224 -77 q 169 -39 194 -50 q 118 -18 143 -28 q 56 21 56 7 q 78 50 56 35 q 116 69 100 64 q 147 79 132 73 q 208 142 180 93 q 378 499 256 235 l 248 499 q 211 497 224 499 q 180 481 197 494 q 148 452 163 467 q 120 426 133 437 q 94 414 106 414 q 76 462 64 414 q 85 547 85 498 l 81 602 q 107 653 81 653 q 137 633 121 653 q 225 558 195 558 l 404 555 q 622 1052 604 994 q 639 1144 639 1110 q 649 1158 639 1154 q 670 1163 660 1163 q 703 1136 694 1163 q 732 1048 711 1109 q 780 906 753 986 q 902 552 858 677 q 1051 559 1031 549 q 1085 581 1071 570 q 1125 622 1112 602 q 1147 644 1139 641 q 1162 646 1155 646 q 1184 601 1197 646 q 1170 517 1171 556 q 1168 452 1169 478 q 1163 410 1168 426 q 1143 395 1159 395 q 1129 400 1137 395 q 1117 413 1120 405 l 1099 453 q 1039 499 1080 492 l 921 499 q 1096 81 1056 118 q 1124 64 1109 70 q 1149 55 1139 59 q 1171 47 1160 50 q 1190 40 1181 43 q 1197 5 1219 27 q 1144 -19 1189 -3 q 1082 -42 1099 -35 l 1005 -79 q 963 -65 963 -94 q 968 -34 963 -44 q 980 -9 974 -24 q 991 24 985 6 q 1004 98 1009 78 q 857 499 979 159 l 446 499 q 237 60 335 260 q 241 26 232 46 q 271 -52 271 -31 m 471 554 q 839 551 653 551 l 745 815 q 673 1017 680 998 q 471 554 617 869 z "},"B":{"ha":950,"x_min":123,"x_max":844,"o":"m 160 -87 q 123 -63 123 -87 q 137 -35 123 -47 q 159 -16 151 -22 q 175 -5 166 -9 q 190 3 184 -1 q 205 20 204 11 q 237 615 229 332 q 248 1019 245 898 q 205 1081 248 1040 q 178 1107 193 1093 q 164 1136 164 1121 q 191 1157 164 1157 l 269 1149 l 360 1156 q 395 1133 395 1156 q 376 1103 395 1118 q 345 1077 357 1088 q 326 1057 333 1065 q 314 1025 314 1041 l 315 994 q 311 859 315 941 q 494 1029 391 981 q 591 1050 537 1050 q 681 1033 645 1050 q 737 991 718 1017 q 770 898 770 950 q 759 814 770 846 q 729 754 747 782 q 686 704 710 726 q 638 663 663 681 q 551 612 597 632 q 731 507 651 579 q 844 271 844 405 q 760 83 844 153 q 568 19 682 19 q 385 71 476 19 q 275 157 325 104 q 278 11 269 34 q 292 -4 281 2 q 338 -50 323 -23 q 342 -65 342 -58 q 302 -88 342 -88 l 206 -83 l 160 -87 m 279 241 q 470 99 368 136 q 644 96 552 68 q 770 279 770 134 q 716 422 770 351 q 520 557 642 521 q 455 568 484 568 q 412 571 427 568 q 389 577 397 573 q 376 602 376 584 q 388 628 376 621 q 419 639 400 636 q 464 645 439 642 q 519 660 490 647 q 583 696 549 672 q 643 751 616 721 q 694 925 726 845 q 587 991 668 991 q 338 798 469 991 q 305 748 320 771 l 292 490 q 279 241 288 434 z "},"C":{"ha":1038,"x_min":88,"x_max":956,"o":"m 928 -37 q 885 -17 909 -37 q 850 9 861 3 q 805 23 829 22 q 765 21 782 24 q 723 14 747 18 q 568 3 628 -1 q 409 28 460 11 q 315 70 358 45 q 231 131 272 94 q 159 218 190 168 q 88 481 88 330 q 343 907 88 783 q 772 994 509 989 q 852 1025 814 994 q 869 1046 863 1035 q 909 1069 884 1069 q 934 1046 934 1069 q 924 1004 934 1046 q 909 880 909 937 l 911 852 q 892 827 911 827 q 857 855 876 827 q 818 897 838 882 q 776 920 798 912 q 679 929 746 929 q 547 917 611 929 q 425 881 482 905 q 318 821 367 857 q 233 736 269 785 q 156 496 156 634 q 307 153 156 264 q 602 62 429 62 q 822 121 762 62 q 849 160 836 135 q 882 203 862 185 q 916 222 901 222 q 939 182 939 222 l 934 115 q 945 20 934 77 q 928 -37 956 -37 z "},"D":{"ha":1020,"x_min":48,"x_max":941,"o":"m 105 3 q 113 26 105 16 q 130 48 121 36 q 149 73 139 60 q 168 98 159 86 q 186 136 186 125 q 168 470 177 266 q 139 994 151 836 q 120 1027 138 1010 l 64 1079 q 48 1110 48 1095 q 75 1131 48 1131 l 140 1124 q 208 1131 175 1124 q 273 1140 253 1140 q 293 1121 293 1140 q 264 1083 293 1106 q 205 999 205 1035 l 205 975 l 338 1009 q 777 971 597 1072 q 918 804 874 916 q 941 652 941 745 q 907 479 941 559 q 818 339 873 399 q 689 239 762 280 q 541 173 617 199 q 251 117 403 127 q 280 75 255 104 q 314 32 304 45 q 324 8 324 18 q 283 -15 324 -15 l 216 -14 q 172 -18 195 -14 q 105 3 105 -32 m 210 914 l 244 186 l 258 186 q 663 309 472 186 q 846 514 793 393 q 873 660 873 577 q 845 804 873 742 q 768 903 816 866 q 526 972 677 972 q 210 914 375 972 z "},"E":{"ha":874,"x_min":72,"x_max":770,"o":"m 570 470 q 334 470 458 470 q 140 461 210 470 l 140 446 q 224 161 143 271 q 502 1 313 40 q 614 -18 593 -18 q 654 -9 636 -18 q 688 12 673 1 q 715 33 703 24 q 739 43 728 43 q 758 20 758 43 q 747 -31 758 -2 q 719 -158 722 -94 q 698 -188 718 -188 q 630 -122 671 -188 q 557 -76 606 -84 q 88 290 167 -20 q 72 452 72 357 q 101 630 72 547 q 178 774 131 712 q 285 879 226 836 q 404 949 344 922 q 608 1006 511 999 q 679 1059 642 1008 q 736 1109 715 1109 q 758 1063 770 1109 q 765 928 749 1025 q 762 893 769 903 q 746 883 754 883 q 713 907 729 883 q 630 945 686 945 q 520 931 566 945 q 429 894 474 918 q 338 836 384 871 q 254 757 293 802 q 146 535 168 655 q 187 534 165 534 l 235 534 q 575 542 355 534 q 612 562 588 543 q 701 616 684 616 q 725 585 725 616 l 705 495 q 702 452 702 475 l 703 425 q 681 391 703 391 q 656 403 667 391 q 633 430 645 415 q 570 470 601 468 z "},"F":{"ha":897,"x_min":81,"x_max":850,"o":"m 163 -4 q 128 21 130 -4 q 136 44 129 33 q 157 74 144 54 q 199 156 199 136 q 184 492 190 275 q 161 1034 172 899 q 141 1074 160 1053 q 101 1114 121 1094 q 81 1149 81 1135 q 107 1171 81 1171 l 172 1164 l 278 1177 q 303 1158 303 1177 q 281 1124 303 1143 q 228 1019 222 1076 q 229 1001 229 1010 q 670 1085 393 1025 q 747 1160 713 1112 q 778 1181 764 1181 q 797 1174 791 1181 q 806 1154 803 1166 q 809 1125 808 1141 q 811 1089 810 1108 q 825 1018 814 1041 q 814 960 850 960 q 785 969 798 960 q 762 986 772 979 q 739 1000 751 993 q 687 1014 709 1015 q 631 1009 665 1013 q 557 998 597 1004 q 472 985 516 992 q 384 969 427 977 q 232 939 283 950 l 245 614 q 610 622 500 610 q 701 677 654 633 q 733 691 720 691 q 751 613 770 691 q 745 550 745 587 l 749 495 q 742 473 749 479 q 697 481 725 457 q 647 531 671 515 q 611 549 623 547 q 555 547 609 547 q 248 547 307 549 q 267 156 262 182 q 287 108 271 129 q 317 71 303 87 q 340 33 340 43 q 308 7 340 7 l 257 10 q 197 3 224 10 q 163 -4 170 -4 z "},"G":{"ha":959,"x_min":67,"x_max":900,"o":"m 842 583 q 881 494 900 583 l 833 167 q 808 26 816 54 q 784 -8 800 -1 q 715 -16 768 -16 q 580 -2 663 -16 q 422 42 498 12 q 282 118 347 72 q 170 229 217 164 q 67 568 67 368 q 170 871 67 747 q 403 1028 256 974 q 645 1074 524 1074 l 723 1068 q 760 1081 743 1068 q 806 1120 781 1097 q 846 1143 831 1143 q 859 1105 867 1143 q 852 1027 852 1070 l 856 954 q 839 916 856 916 q 805 941 826 916 q 762 982 784 967 q 718 1004 739 998 q 542 1004 660 1022 q 324 920 423 985 q 164 712 212 847 q 140 542 140 642 q 171 365 140 443 q 251 231 201 286 q 362 140 300 175 q 487 84 425 104 q 732 50 625 39 q 763 175 746 60 q 787 336 781 289 l 810 492 q 810 498 810 495 q 771 527 810 527 l 608 527 q 524 494 562 527 l 488 457 q 466 449 477 449 q 455 460 455 449 q 460 500 455 476 q 473 609 473 559 l 469 652 q 488 691 469 691 q 520 668 500 691 q 553 631 540 645 q 578 608 566 616 q 616 590 599 592 q 650 587 633 588 q 689 586 667 587 q 733 585 710 585 q 778 583 757 584 q 842 583 841 583 z "},"H":{"ha":1159,"x_min":73,"x_max":1088,"o":"m 73 24 q 81 46 73 36 q 103 75 90 56 q 132 115 117 94 q 148 149 147 136 l 165 823 q 174 1038 168 936 q 156 1069 174 1053 l 100 1120 q 84 1151 84 1136 q 111 1172 84 1172 l 176 1164 q 243 1171 212 1164 q 309 1181 289 1181 q 329 1162 329 1181 q 310 1131 329 1147 q 277 1100 290 1116 q 254 1069 263 1084 q 237 1022 237 1040 q 227 635 237 971 q 925 640 536 623 q 933 1070 925 925 q 916 1103 933 1086 l 860 1153 q 844 1184 844 1169 q 870 1205 844 1205 l 935 1198 q 1003 1204 971 1198 q 1068 1214 1048 1214 q 1088 1195 1088 1214 q 1069 1164 1088 1180 q 1036 1133 1050 1149 q 1014 1101 1023 1116 q 997 1051 997 1074 q 996 974 996 1028 q 994 850 995 920 q 992 699 993 779 q 990 538 991 618 q 990 170 985 198 q 999 133 994 142 q 1010 117 1003 124 l 1050 73 q 1065 41 1065 52 q 1025 18 1065 18 l 957 20 q 913 15 937 20 q 846 37 846 1 q 854 59 846 49 q 876 88 863 69 l 905 129 q 921 163 920 150 q 925 579 923 228 q 224 572 397 561 q 217 150 211 175 q 230 113 222 125 q 250 90 238 101 q 273 65 261 79 q 252 5 320 5 l 184 7 q 140 2 163 7 q 73 24 73 -12 z "},"I":{"ha":472,"x_min":118,"x_max":365,"o":"m 205 1 l 155 -6 q 118 22 118 -6 q 128 44 119 34 q 145 65 136 54 q 165 89 154 77 q 185 113 176 102 q 205 151 205 139 l 208 623 q 205 912 208 785 q 159 977 205 933 q 119 1034 119 1014 q 178 1048 119 1063 q 273 1044 227 1036 q 342 1053 319 1053 q 365 1034 365 1053 q 341 1001 365 1019 q 303 968 318 983 q 281 941 289 954 q 271 899 271 924 l 273 567 l 267 180 l 267 160 q 268 134 267 151 q 286 96 269 118 q 316 57 303 75 q 337 16 337 28 q 300 -5 337 -5 l 205 1 z "},"J":{"ha":699,"x_min":5,"x_max":655,"o":"m 612 1095 q 608 1045 655 1095 l 551 990 q 536 958 537 975 l 525 423 q 519 289 523 357 q 496 167 515 221 q 442 71 477 113 q 231 -64 376 -9 q 186 -101 212 -71 q 155 -141 161 -131 q 142 -160 149 -151 q 130 -179 136 -170 q 87 -172 95 -224 q 66 -86 77 -112 q 50 -48 55 -60 q 40 -26 45 -37 q 30 -5 35 -16 q 32 45 5 45 q 69 36 44 45 q 115 19 94 26 q 151 8 136 12 q 244 7 204 -7 q 309 37 283 20 q 450 252 429 111 q 464 514 458 310 q 470 770 469 719 l 473 918 l 474 934 q 466 977 474 968 q 447 997 458 986 q 424 1020 436 1008 q 387 1053 395 1048 q 377 1082 377 1059 q 396 1105 377 1105 l 481 1092 q 503 1090 492 1090 l 524 1090 l 612 1095 z "},"K":{"ha":1000,"x_min":88,"x_max":973,"o":"m 124 -69 q 88 -43 88 -69 q 119 9 88 -23 q 165 59 151 42 q 180 90 179 76 q 217 972 225 667 q 168 1040 217 994 q 140 1066 155 1052 q 126 1095 126 1080 q 153 1116 126 1116 l 238 1109 q 302 1112 277 1109 q 342 1116 327 1116 q 377 1093 377 1116 q 349 1055 377 1078 q 283 977 283 1001 l 283 915 q 275 585 283 735 l 271 530 q 507 740 378 617 q 728 955 669 895 q 750 1054 743 979 q 779 1091 756 1091 q 804 1078 793 1091 q 826 1046 814 1065 q 884 972 861 989 q 913 917 932 935 q 871 907 902 907 q 772 898 805 918 l 771 898 q 544 697 741 880 q 322 493 346 515 q 790 113 538 305 q 861 99 823 100 q 925 95 899 97 q 962 88 951 93 q 973 72 973 83 q 969 54 973 61 q 958 42 965 47 l 928 21 q 881 -39 901 -4 q 853 -85 861 -75 q 832 -96 844 -96 q 802 -64 808 -96 q 774 19 793 -22 q 751 66 755 60 l 730 83 q 281 455 401 349 l 266 440 q 248 148 248 187 q 250 91 248 108 q 260 56 253 73 q 292 -1 274 22 q 318 -45 318 -33 q 277 -68 318 -68 l 174 -62 q 149 -64 157 -62 q 124 -69 134 -69 z "},"L":{"ha":843,"x_min":73,"x_max":780,"o":"m 127 -47 q 73 -22 73 -47 q 82 0 73 -10 q 101 22 92 11 q 123 44 111 33 q 145 65 135 55 q 170 98 170 88 q 180 414 170 238 q 199 889 199 749 q 156 955 199 911 q 118 1012 118 992 q 159 1030 118 1039 l 203 1021 q 276 1020 237 1015 q 330 1025 315 1025 q 363 1006 363 1025 q 342 976 363 994 q 266 890 286 939 q 258 731 262 878 q 251 477 254 585 l 238 118 q 644 58 366 83 q 728 105 677 58 q 753 117 741 117 q 780 86 780 117 l 758 -5 q 754 -49 754 -26 l 755 -73 q 732 -108 755 -108 q 708 -95 720 -108 q 685 -66 697 -83 q 626 -15 652 -22 q 569 -2 600 -8 q 503 11 538 5 q 432 23 468 17 q 361 33 395 28 l 242 50 q 263 -16 250 5 q 285 -59 285 -50 q 235 -79 285 -85 q 191 -67 218 -77 q 127 -47 140 -47 z "},"M":{"ha":1302,"x_min":60,"x_max":1233,"o":"m 130 22 l 98 18 q 72 25 84 18 q 60 47 60 32 q 77 78 61 62 q 111 111 92 94 q 145 142 129 127 q 163 172 161 158 l 244 714 q 270 874 269 850 q 263 907 271 897 q 244 926 256 916 q 220 946 233 936 q 195 966 207 956 q 170 1006 170 990 q 199 1027 170 1027 l 243 1025 q 340 1034 299 1025 q 392 1042 380 1042 q 420 1021 418 1042 q 397 985 421 1007 q 338 910 349 939 l 434 666 l 555 355 q 602 232 589 269 q 623 195 614 195 q 638 210 632 195 q 656 251 644 225 q 686 316 668 277 q 728 405 705 355 q 777 509 751 454 q 829 618 803 563 q 880 726 856 674 q 959 893 954 881 q 929 936 952 908 q 898 977 907 964 q 890 1000 890 989 q 921 1020 890 1020 l 981 1016 l 1093 1025 q 1121 1006 1121 1025 q 1111 982 1121 991 q 1090 958 1101 972 q 1067 925 1079 943 q 1031 867 1035 879 q 1036 827 1032 859 l 1046 745 q 1129 159 1114 204 q 1187 95 1137 133 q 1219 68 1204 81 q 1233 46 1233 56 q 1228 31 1233 36 q 1214 23 1223 26 q 1176 16 1197 18 q 1133 8 1154 14 q 1090 -5 1111 1 q 1028 -24 1040 -24 q 1008 -5 1008 -24 q 1015 17 1008 8 q 1028 43 1021 26 q 1043 80 1036 60 q 1064 144 1063 133 q 1062 179 1065 155 q 1054 235 1059 203 l 1028 406 l 1008 551 l 975 798 l 850 538 q 674 159 682 182 q 660 120 666 136 q 648 92 654 104 q 618 67 635 67 q 596 83 602 67 l 572 146 q 454 444 546 205 l 318 795 l 275 495 q 231 172 231 222 q 275 59 231 125 q 257 6 308 6 l 167 20 q 130 22 146 22 z "},"N":{"ha":1168,"x_min":59,"x_max":1139,"o":"m 273 15 q 210 1 273 -12 q 79 11 163 11 q 59 27 59 11 q 79 58 59 47 q 111 77 100 68 q 129 98 123 86 q 149 181 141 119 q 162 293 156 242 q 174 404 168 343 q 187 527 180 465 q 200 646 194 588 q 221 844 200 646 q 176 911 221 873 q 149 929 163 922 q 123 956 123 941 q 155 985 123 985 l 252 979 q 305 982 281 979 q 349 986 328 986 q 370 968 370 986 q 347 936 370 947 q 277 864 290 909 q 599 439 304 799 q 907 84 888 84 q 907 88 909 84 l 962 879 q 945 923 962 898 q 910 970 927 948 q 893 1005 893 993 q 914 1022 893 1022 q 958 1018 935 1022 q 1015 1014 982 1014 l 1086 1017 q 1092 970 1139 1017 l 1066 944 q 1033 900 1038 914 q 1023 852 1027 885 q 1016 766 1020 819 q 1006 646 1011 713 q 997 507 1002 579 q 987 363 991 435 q 979 229 983 291 q 972 50 972 92 l 972 28 q 961 -14 972 -1 q 939 -26 949 -26 q 914 -19 921 -26 q 888 11 907 -12 q 838 69 869 33 q 767 153 808 105 q 682 253 727 200 q 590 363 637 307 q 498 474 543 420 q 413 578 454 529 q 342 667 373 628 q 271 768 276 751 q 206 153 206 168 l 206 136 q 218 90 206 107 q 245 57 218 90 q 273 15 273 24 z "},"O":{"ha":984,"x_min":71,"x_max":907,"o":"m 787 121 q 655 9 731 47 q 511 -29 580 -29 q 390 -16 441 -29 q 292 26 338 -2 q 204 100 245 55 q 134 208 164 144 q 71 536 71 343 q 191 920 71 772 q 497 1067 309 1067 q 783 956 675 1067 q 907 551 907 826 q 787 121 907 280 m 490 36 q 570 45 532 35 q 647 78 609 55 q 719 139 685 101 q 780 235 753 177 q 837 550 837 360 q 597 990 837 926 q 502 1006 537 1006 q 428 997 467 1006 q 350 969 389 989 q 272 917 310 949 q 205 834 234 884 q 140 564 140 725 q 325 83 140 200 q 490 36 397 37 z "},"P":{"ha":837,"x_min":94,"x_max":770,"o":"m 136 -56 q 108 -16 101 -56 q 121 -2 109 -8 q 149 18 134 5 q 174 43 163 31 q 199 87 195 71 q 198 111 199 87 l 195 275 q 190 532 195 275 q 168 1054 181 979 q 138 1098 163 1077 q 104 1132 114 1120 q 94 1157 94 1143 q 104 1177 94 1171 q 144 1184 115 1183 q 255 1192 231 1187 q 288 1199 282 1199 q 313 1171 313 1199 q 299 1147 313 1162 q 276 1120 286 1131 q 258 1100 267 1109 q 244 1084 249 1090 q 238 1061 237 1074 l 238 914 q 340 1059 260 1002 q 559 1108 442 1132 q 757 923 711 1076 q 770 813 770 880 q 748 685 770 746 q 688 581 726 623 q 484 492 610 492 q 294 581 378 492 q 243 660 264 612 q 264 149 264 192 q 271 88 264 106 q 290 55 279 71 l 340 -6 q 355 -36 355 -26 q 324 -61 355 -61 q 293 -56 316 -61 q 215 -51 269 -51 l 136 -56 m 408 570 q 563 567 483 536 q 682 696 644 599 q 701 806 701 745 q 691 904 701 867 q 663 968 680 942 q 625 1011 646 995 q 581 1038 603 1028 q 493 1054 542 1054 q 400 1030 444 1054 q 327 971 357 1007 q 264 806 264 896 q 337 623 264 699 q 408 570 369 589 z "},"Q":{"ha":1061,"x_min":92,"x_max":1053,"o":"m 718 56 q 421 3 595 -31 q 236 102 316 23 q 92 562 92 243 q 220 916 92 783 q 507 1039 338 1039 q 775 923 659 1039 q 920 538 909 789 l 921 513 q 834 186 921 333 q 767 98 806 136 q 930 26 892 26 l 1015 30 q 1053 5 1053 30 q 1041 -22 1053 -9 q 1014 -49 1030 -34 q 954 -118 966 -91 q 933 -152 941 -145 q 916 -159 926 -159 q 890 -125 895 -159 l 883 -67 q 861 -20 876 -28 q 718 56 795 14 m 367 88 q 386 78 367 88 q 444 60 406 68 q 529 52 482 52 q 635 79 576 52 q 741 161 694 105 q 846 522 846 287 q 728 873 846 751 q 435 968 604 1004 q 283 890 351 950 q 161 572 161 783 l 161 557 q 181 374 161 460 q 230 233 202 288 q 294 144 258 179 q 367 88 329 109 z "},"R":{"ha":985,"x_min":82,"x_max":938,"o":"m 160 -45 q 82 -28 82 -64 q 103 8 82 -13 q 136 43 125 29 q 154 68 148 56 q 169 141 168 95 q 171 227 170 186 q 173 317 172 267 q 175 425 174 368 q 176 539 176 481 q 178 654 177 598 q 178 936 181 909 q 169 977 176 963 q 152 1002 161 991 q 129 1024 142 1014 q 109 1042 117 1034 q 96 1063 96 1053 q 111 1074 96 1074 l 140 1073 q 275 1080 227 1073 q 335 1087 324 1087 q 347 1079 347 1087 q 332 1057 347 1071 q 260 977 278 1002 q 242 946 243 951 q 240 931 241 942 q 238 904 239 920 q 237 870 237 888 q 236 836 237 852 q 235 776 235 785 q 349 932 264 850 q 484 1017 409 991 q 648 1021 555 1042 q 774 917 736 1001 q 795 807 795 872 q 776 699 795 743 q 726 623 757 655 q 655 567 695 590 q 574 526 616 544 l 420 469 q 796 97 778 102 q 852 91 819 89 q 901 91 886 92 q 938 76 938 89 q 908 34 938 63 q 823 -73 845 -26 q 800 -104 810 -97 q 785 -111 790 -111 q 753 14 753 -111 q 748 44 753 40 q 726 65 743 47 q 682 110 709 82 q 623 171 656 137 q 554 242 589 205 q 486 313 519 278 q 425 376 452 348 q 352 448 361 441 q 334 471 343 456 q 324 496 324 487 q 352 520 324 517 q 419 533 380 524 q 501 557 459 542 q 584 594 543 572 q 656 646 625 616 q 728 804 728 713 q 687 934 728 895 q 562 974 646 974 q 401 903 479 974 q 254 688 309 821 q 235 635 241 654 l 235 101 q 252 71 235 85 q 306 19 298 29 q 319 1 314 8 q 305 -43 349 -43 l 231 -37 q 160 -45 188 -37 z "},"S":{"ha":764,"x_min":75,"x_max":633,"o":"m 609 905 q 574 881 609 867 q 534 913 549 891 q 477 979 511 943 q 292 944 361 992 q 226 804 226 897 q 307 646 226 728 q 395 567 356 595 q 462 517 433 539 q 518 469 491 495 q 567 412 546 444 q 614 263 614 345 q 439 37 614 106 q 229 -2 339 -2 q 129 -75 192 -2 q 89 -66 100 -108 l 90 3 q 82 110 90 74 q 75 153 75 146 q 93 176 75 176 q 118 163 105 176 q 146 133 131 151 q 227 68 191 83 q 243 67 235 67 l 258 67 q 482 132 408 67 q 547 280 547 188 q 431 458 547 364 l 301 564 q 163 804 163 676 q 246 987 163 928 q 439 1038 316 1038 l 473 1038 q 545 1076 499 1038 q 577 1103 562 1090 q 606 1115 593 1115 q 625 1078 633 1115 q 606 966 606 1004 l 609 905 z "},"T":{"ha":937,"x_min":43,"x_max":904,"o":"m 387 -3 l 316 -9 q 293 9 293 -9 q 332 65 293 29 q 387 142 384 113 q 415 649 404 385 q 428 966 425 913 q 256 966 342 966 l 193 966 q 152 950 168 964 q 123 921 136 936 q 98 895 111 907 q 73 884 86 884 q 54 932 43 884 q 63 1019 63 968 l 60 1074 q 85 1123 60 1123 q 116 1102 101 1123 q 141 1068 130 1082 q 161 1046 153 1054 q 188 1031 176 1031 l 569 1023 q 734 1027 642 1023 q 819 1080 775 1033 q 838 1103 831 1093 q 869 1119 849 1119 q 891 1074 904 1119 q 877 988 878 1029 q 876 921 876 948 q 870 878 875 895 q 850 862 866 862 q 836 870 844 862 q 819 897 827 878 q 800 929 810 915 q 779 952 789 944 q 746 966 766 962 l 493 966 q 462 434 474 711 q 450 148 450 157 q 455 125 450 140 q 467 95 459 110 q 496 50 484 61 q 522 15 522 28 q 513 -1 522 3 q 475 -5 503 -5 l 387 -3 z "},"U":{"ha":1048,"x_min":22,"x_max":1008,"o":"m 1008 1088 q 994 1065 1008 1082 q 968 1029 980 1048 q 938 954 939 984 q 936 882 937 924 q 932 789 935 840 q 926 683 930 739 q 917 572 922 627 q 890 401 903 450 q 863 311 876 352 q 828 226 849 269 q 778 141 807 182 q 708 66 749 100 q 492 -6 618 -6 q 275 94 359 -6 q 151 464 172 216 l 113 877 q 101 918 110 906 q 60 960 87 936 q 28 992 33 983 q 22 1008 22 1001 q 65 1033 22 1033 l 100 1029 l 205 1049 q 258 1038 258 1058 q 242 1008 258 1024 q 215 976 226 992 q 197 943 205 960 q 181 882 181 906 q 183 818 181 859 q 189 724 185 778 q 236 327 212 421 q 293 178 260 233 q 496 56 366 56 q 782 279 692 56 q 878 945 878 515 q 868 987 878 973 q 832 1027 858 1002 q 793 1079 793 1063 q 833 1094 793 1094 l 900 1090 q 949 1097 930 1090 q 1008 1088 1008 1119 z "},"V":{"ha":913,"x_min":-19,"x_max":970,"o":"m 741 1013 q 768 1038 741 1038 q 808 1021 782 1038 q 891 978 865 987 q 920 922 970 952 l 877 899 q 851 884 862 890 q 835 869 840 878 q 818 832 830 860 q 788 763 806 804 q 748 668 770 721 q 701 556 725 614 q 651 438 676 498 q 602 323 626 378 q 493 74 517 119 q 460 7 470 30 q 437 -16 451 -16 q 418 -7 427 -16 q 403 22 409 2 q 381 84 397 41 q 343 181 364 127 q 297 294 321 234 q 247 418 273 355 q 197 544 222 481 q 149 665 172 607 q 76 865 96 802 q 52 902 68 889 q 21 925 37 915 q -7 945 5 935 q -19 973 -19 955 q 21 996 -19 996 l 39 996 q 137 999 101 996 q 178 1003 173 1003 q 212 983 212 1003 q 200 958 212 969 q 176 936 189 947 q 151 914 162 925 q 140 889 135 900 q 210 683 158 818 q 286 488 262 549 q 333 368 309 427 q 377 258 357 309 l 414 166 q 439 102 430 125 l 549 357 q 761 916 761 857 q 751 972 761 941 q 741 1013 741 1003 z "},"W":{"ha":1333,"x_min":8,"x_max":1377,"o":"m 1168 985 q 1188 1038 1150 1038 q 1225 1022 1208 1038 l 1223 1023 q 1297 981 1260 994 q 1348 929 1377 956 q 1316 912 1337 919 q 1284 901 1295 905 q 1251 868 1256 888 q 1003 134 1107 360 l 966 45 q 888 43 930 -43 q 749 446 847 129 q 683 686 705 588 q 486 150 587 355 l 442 49 q 404 1 422 1 q 368 27 385 1 q 282 281 355 48 q 184 593 209 515 q 118 810 136 747 q 94 882 100 873 q 80 898 87 890 q 54 917 76 902 q 8 969 8 947 q 44 991 8 991 l 109 989 q 173 994 153 989 q 236 979 236 1009 q 211 943 236 964 q 175 909 186 921 q 165 885 160 894 q 368 205 210 682 q 401 111 388 145 q 653 784 552 443 q 619 813 643 798 q 573 865 573 842 q 610 887 573 887 l 663 886 l 766 895 q 801 874 801 895 q 785 848 801 861 l 767 831 q 741 806 752 818 q 730 781 730 795 q 866 286 745 639 q 924 112 917 138 q 1122 658 1015 304 q 1185 908 1185 868 q 1168 985 1185 925 z "},"X":{"ha":1048,"x_min":9,"x_max":1080,"o":"m 916 -25 q 888 6 888 -25 q 894 43 888 26 q 890 107 907 83 l 876 123 l 705 322 q 535 522 575 475 l 220 140 q 208 84 210 115 q 206 27 207 54 q 201 -18 205 0 q 180 -36 196 -36 q 154 -26 163 -36 q 132 1 145 -16 q 51 80 94 54 q 9 123 9 107 q 19 142 9 133 q 47 152 28 152 l 77 150 q 152 170 132 150 q 208 230 172 189 q 290 324 244 271 q 498 572 384 433 q 192 924 207 916 q 154 933 176 932 q 110 935 131 935 q 73 940 88 936 q 58 956 58 945 q 93 994 58 978 q 146 1030 127 1010 q 177 1069 164 1050 q 199 1100 189 1087 q 224 1114 210 1114 q 243 1100 238 1114 q 248 1058 248 1086 l 245 1017 q 258 961 245 987 q 281 923 270 935 q 319 879 292 911 q 378 805 345 847 q 536 613 477 682 q 798 948 694 804 q 808 975 804 956 q 812 996 812 993 l 799 1089 q 819 1109 799 1109 q 856 1092 832 1109 q 906 1062 879 1074 q 960 1039 934 1050 q 1023 990 1023 1011 q 987 964 1023 969 q 914 944 956 964 q 824 888 839 907 q 715 739 804 855 q 579 564 627 623 q 847 259 766 344 q 945 160 928 174 q 984 141 961 146 q 1028 132 1007 136 q 1065 124 1050 129 q 1080 108 1080 119 q 1062 73 1080 90 q 1023 40 1043 56 q 982 9 1003 24 q 916 -25 932 -25 z "},"Y":{"ha":957,"x_min":16,"x_max":941,"o":"m 368 -54 q 346 -35 346 -54 q 384 20 346 -14 q 434 97 434 64 l 436 320 q 431 495 436 437 l 230 787 q 146 906 191 843 q 112 932 132 926 q 81 941 93 939 q 59 945 69 943 q 39 951 49 947 q 16 978 16 962 q 51 1007 16 994 q 110 1035 85 1021 q 153 1059 136 1048 q 207 1082 193 1082 q 227 1062 227 1082 q 221 1039 227 1050 q 208 1015 214 1027 q 195 951 182 966 q 380 672 302 780 q 472 546 457 565 q 747 971 625 756 q 758 1021 762 999 q 750 1055 753 1043 q 763 1131 732 1131 q 791 1113 770 1131 q 829 1082 813 1095 q 895 1044 871 1052 q 941 1000 941 1026 q 891 975 941 977 q 820 951 835 974 q 782 894 805 928 q 733 820 760 860 q 676 734 706 780 q 617 642 647 689 q 503 458 553 542 q 500 340 500 387 l 500 269 l 501 164 l 502 107 q 536 22 502 69 q 554 1 547 8 q 575 -28 575 -16 q 563 -45 575 -41 q 519 -49 551 -49 l 446 -48 l 368 -54 z "},"Z":{"ha":1080,"x_min":80,"x_max":1010,"o":"m 244 -7 q 218 -7 244 -7 q 169 -14 193 -7 q 134 -21 144 -21 q 117 -19 124 -21 q 103 -12 110 -16 q 94 27 80 3 q 116 52 98 36 q 177 116 134 68 q 275 228 220 164 q 393 367 330 292 q 518 519 456 441 q 641 672 581 597 q 751 812 701 747 q 886 998 861 956 q 332 993 399 998 q 252 985 265 988 q 225 970 239 981 q 197 945 210 959 q 160 902 181 929 q 138 890 150 890 q 123 907 123 890 l 123 948 q 113 1097 123 1063 q 111 1111 111 1104 q 127 1131 111 1131 q 151 1119 136 1131 q 183 1092 165 1107 q 256 1052 231 1053 q 420 1048 300 1048 l 930 1052 q 973 1000 1004 1052 q 612 532 934 935 q 189 47 258 90 l 629 53 q 805 62 762 56 q 868 80 847 68 q 906 106 889 92 l 956 154 q 986 168 970 168 q 998 121 1010 168 q 983 -17 983 64 l 985 -54 q 966 -77 985 -77 q 921 -53 948 -77 q 879 -18 894 -29 q 852 -5 865 -7 l 815 -5 q 244 -7 295 -8 z "},"[":{"ha":644,"x_min":136,"x_max":509,"o":"m 202 -212 q 154 -181 154 -212 l 161 -135 q 163 14 163 -122 l 161 391 q 154 744 161 537 q 144 1017 146 951 q 140 1135 142 1083 q 136 1265 136 1241 q 172 1308 136 1308 l 222 1309 q 346 1314 332 1311 q 372 1325 360 1316 q 396 1347 383 1334 l 453 1407 q 480 1421 467 1421 q 496 1412 493 1421 q 500 1385 500 1403 l 498 1290 q 503 1199 498 1228 q 509 1161 509 1171 q 501 1145 509 1152 q 487 1139 493 1139 q 475 1145 481 1139 q 461 1158 468 1150 l 437 1189 q 349 1246 387 1243 q 334 1246 343 1246 l 311 1246 l 241 1246 q 205 1245 223 1245 l 206 1222 l 212 1063 q 216 905 212 1061 l 223 680 l 229 429 q 232 238 232 319 q 220 -148 232 157 l 279 -148 l 355 -147 q 410 -131 384 -147 q 456 -100 437 -115 q 502 -117 502 -67 l 496 -195 l 499 -267 q 484 -294 499 -294 q 461 -281 473 -294 q 437 -259 449 -269 q 412 -242 425 -250 q 350 -214 370 -216 q 307 -213 330 -213 q 256 -212 283 -212 l 202 -212 z "},"\\":{"ha":888,"x_min":28,"x_max":860,"o":"m 682 -206 q 702 -252 669 -252 q 727 -243 715 -252 q 753 -225 739 -233 q 782 -210 767 -217 q 842 -185 804 -199 q 860 -166 860 -178 q 855 -146 860 -154 q 837 -134 850 -138 q 807 -126 823 -130 q 749 -92 764 -115 q 588 244 725 -54 q 414 618 450 541 q 345 767 378 696 q 284 897 312 838 q 216 1039 232 1008 q 195 1095 195 1080 q 197 1119 195 1110 q 202 1135 199 1128 q 205 1181 214 1171 q 184 1192 196 1192 q 142 1174 169 1192 q 85 1135 110 1144 q 44 1117 61 1125 q 28 1096 28 1108 q 73 1067 28 1070 q 131 1046 106 1065 q 142 1032 138 1040 q 164 986 146 1024 q 210 893 183 949 q 270 769 237 838 q 339 623 303 699 q 414 466 376 546 q 489 309 452 385 q 559 162 526 232 q 619 35 592 92 q 691 -117 685 -105 q 696 -143 696 -130 q 694 -167 696 -156 l 682 -206 z "},"]":{"ha":627,"x_min":136,"x_max":490,"o":"m 490 -169 q 442 -200 490 -200 q 293 -222 330 -200 q 226 -277 243 -252 q 199 -298 212 -298 q 182 -262 183 -298 q 174 -168 179 -191 q 163 -114 163 -126 q 203 -100 163 -77 q 302 -138 269 -138 q 425 -136 380 -136 q 393 500 393 236 l 395 777 q 392 1168 395 897 l 323 1166 q 260 1153 281 1165 q 215 1119 227 1133 q 194 1097 202 1105 q 178 1080 186 1088 q 136 1086 136 1041 l 144 1196 q 145 1272 145 1241 l 144 1308 q 156 1343 144 1343 q 178 1328 164 1343 q 209 1298 193 1314 q 241 1270 226 1282 q 294 1237 276 1240 q 425 1230 326 1230 q 451 1222 441 1230 q 461 1185 461 1213 l 467 559 q 475 71 467 257 q 483 -125 482 -116 l 490 -169 z "},"^":{"ha":872,"x_min":50,"x_max":838,"o":"m 89 47 q 50 72 50 47 q 62 100 50 92 q 87 114 75 108 q 111 129 99 119 q 136 176 123 138 q 173 290 149 215 q 223 451 197 366 q 278 627 250 536 q 334 803 307 718 q 427 1094 392 991 q 456 1114 433 1114 q 509 1087 502 1114 l 667 469 q 743 191 711 298 q 765 154 749 168 q 797 132 781 141 q 825 112 813 122 q 838 83 838 102 q 798 61 838 61 l 760 62 l 645 54 q 610 74 610 54 q 633 110 610 89 q 668 141 657 130 q 678 168 682 155 q 540 708 604 463 q 464 1000 476 952 l 205 152 q 224 123 209 136 q 258 93 239 111 q 264 42 294 60 q 226 36 247 32 q 190 42 205 40 q 127 50 146 50 l 89 47 z "},"_":{"ha":1042,"x_min":-14,"x_max":1059,"o":"m -14 -186 l 730 -192 q 1059 -186 973 -192 l 1058 -249 l 411 -253 q -10 -249 104 -253 l -14 -186 z "},"`":{"ha":538,"x_min":97,"x_max":410,"o":"m 127 1099 q 97 1120 97 1099 q 116 1151 97 1133 q 143 1191 134 1170 q 159 1231 152 1213 q 174 1263 166 1250 q 197 1276 182 1276 q 220 1261 213 1276 q 232 1226 228 1246 q 241 1189 237 1207 q 252 1165 245 1171 q 276 1147 260 1160 q 312 1120 292 1135 q 379 1072 361 1082 q 410 1036 410 1054 q 379 1002 410 1002 q 332 1026 356 1002 q 271 1069 320 1038 q 214 1104 222 1100 q 195 1107 205 1107 l 127 1099 z "},"a":{"ha":1055,"x_min":37,"x_max":1065,"o":"m 894 2 q 871 47 862 2 q 880 151 888 130 l 755 347 q 680 474 720 405 q 622 335 648 389 q 549 225 595 281 q 458 130 503 170 q 186 -2 310 -2 q 83 40 121 -2 q 67 191 37 92 q 257 431 106 323 q 547 564 393 528 q 621 578 588 574 q 524 755 547 708 q 490 777 512 770 q 395 813 406 806 q 383 829 383 820 q 418 862 383 851 q 526 917 479 879 q 578 939 553 939 q 603 913 603 939 l 578 830 q 579 783 570 800 l 723 519 q 896 239 817 351 q 939 189 924 199 q 976 170 954 179 q 1017 153 998 161 q 1065 116 1065 133 q 1031 83 1065 97 q 976 56 997 70 q 940 30 954 41 q 916 10 926 18 q 894 2 906 2 m 137 182 q 128 134 128 152 q 132 104 128 117 q 144 83 136 92 q 184 62 161 62 q 276 83 224 62 q 368 135 328 104 q 448 205 409 165 q 576 380 530 292 q 638 523 616 458 q 410 453 531 513 q 222 316 298 398 q 137 182 157 245 z "},"b":{"ha":750,"x_min":64,"x_max":668,"o":"m 111 -30 q 75 -3 75 -30 q 93 32 76 10 q 119 66 109 53 q 137 91 129 79 q 155 122 154 115 q 157 155 157 130 q 156 222 157 180 q 156 320 156 264 q 155 438 155 376 q 154 567 155 501 q 154 697 154 633 q 153 817 153 760 q 151 917 152 873 q 148 1024 150 1012 q 125 1058 145 1037 q 85 1099 105 1079 q 64 1135 64 1120 q 91 1156 64 1156 l 156 1148 q 220 1152 195 1148 q 260 1155 245 1155 q 295 1132 295 1155 q 276 1102 295 1117 q 245 1075 257 1086 q 227 1055 233 1064 q 214 1024 214 1040 l 218 652 l 218 525 q 359 614 270 594 q 518 602 438 632 q 655 450 621 562 q 668 354 668 408 q 654 263 668 300 q 619 200 641 227 q 569 157 597 174 q 513 132 541 141 q 273 156 385 89 q 221 199 244 172 q 232 111 224 132 q 250 75 239 90 q 273 46 261 61 q 254 -15 322 -15 l 237 -15 q 141 -22 159 -15 q 111 -30 123 -30 m 276 499 q 264 485 276 499 q 239 435 252 471 q 226 362 226 399 q 235 296 226 324 q 260 247 245 267 q 296 212 276 226 q 337 191 316 199 q 490 187 410 162 q 602 351 602 222 q 487 547 602 503 q 409 561 451 561 q 333 544 367 561 q 276 499 300 527 z "},"c":{"ha":904,"x_min":67,"x_max":852,"o":"m 815 208 q 836 59 815 126 q 820 7 852 7 q 787 17 806 7 q 758 35 767 27 q 741 50 749 43 q 648 57 713 71 q 457 30 519 30 q 357 37 395 30 q 278 60 318 43 q 201 107 239 77 q 133 181 163 136 q 67 434 67 279 q 141 659 67 564 q 307 780 202 736 q 481 816 395 816 l 589 806 q 680 844 642 806 q 718 862 698 862 q 736 833 745 862 q 707 686 707 746 q 709 662 707 686 q 704 643 709 651 q 692 635 699 635 q 663 656 677 635 q 639 692 648 677 q 620 720 629 708 q 572 750 597 747 q 475 758 511 758 q 399 748 439 758 q 321 720 359 739 q 249 675 283 702 q 190 613 216 648 q 135 442 135 538 q 163 278 135 347 q 238 167 192 209 q 464 90 324 90 q 573 100 523 90 q 651 119 623 111 q 696 136 678 127 q 725 154 714 144 q 742 174 735 163 l 767 220 q 798 247 781 247 q 815 208 815 247 z "},"d":{"ha":755,"x_min":75,"x_max":743,"o":"m 539 -77 q 511 -50 511 -77 q 526 -4 511 -40 q 551 63 551 52 q 547 85 551 74 q 524 195 537 113 q 391 79 483 104 q 240 87 323 60 q 90 224 127 122 q 75 323 75 264 q 98 431 75 383 q 157 509 121 478 q 331 570 230 570 q 457 524 397 570 q 494 488 477 509 q 496 937 479 720 q 433 1039 496 967 q 418 1069 418 1056 q 440 1091 418 1091 q 490 1085 463 1091 q 544 1079 517 1079 l 608 1086 q 640 1078 626 1086 q 653 1056 653 1069 q 631 1020 653 1042 q 569 949 576 962 q 558 916 562 937 q 553 863 555 895 q 563 377 539 639 q 611 93 578 198 q 648 60 617 71 q 697 39 690 43 q 703 -12 743 5 q 641 -34 693 -17 q 578 -60 589 -51 q 539 -77 557 -77 m 142 317 q 152 252 142 280 q 178 202 162 223 q 216 168 195 182 q 258 146 237 155 q 439 176 372 104 q 488 318 488 228 q 435 463 488 409 q 326 511 389 511 q 193 452 245 511 q 142 317 142 396 z "},"e":{"ha":937,"x_min":83,"x_max":877,"o":"m 877 112 q 837 87 877 74 q 758 102 772 106 q 721 87 745 98 q 666 66 698 77 q 420 44 555 28 q 239 104 322 56 q 104 271 144 159 q 83 407 83 329 q 103 545 83 484 q 159 654 124 606 q 238 737 193 703 q 332 795 283 772 q 631 829 471 861 q 802 721 749 804 q 830 623 830 677 q 819 534 830 568 q 788 475 807 500 q 745 434 769 450 q 696 407 721 417 q 617 388 650 388 q 503 400 542 388 q 436 414 464 412 q 389 417 408 416 q 360 423 370 418 q 351 437 351 427 q 370 473 351 456 q 444 558 418 514 q 502 582 475 606 q 512 540 509 575 q 543 458 517 470 q 623 448 560 448 q 709 492 665 448 q 759 597 759 541 q 511 779 759 779 q 260 667 369 779 q 153 414 153 557 q 245 182 153 264 q 495 102 334 102 q 711 155 640 102 q 752 203 739 176 q 773 247 766 231 q 789 272 781 262 q 806 282 796 282 q 821 278 816 282 q 829 267 827 273 q 835 239 831 264 q 857 157 845 178 q 877 112 877 121 z "},"f":{"ha":827,"x_min":50,"x_max":832,"o":"m 326 -48 q 317 -50 326 -48 q 293 -55 308 -51 q 262 -63 277 -58 q 228 -68 248 -68 q 208 -51 208 -68 q 236 0 208 -32 q 273 45 264 33 q 292 87 292 69 l 292 113 l 289 419 q 288 662 288 549 l 211 662 q 125 622 168 662 q 98 598 112 610 q 72 585 84 585 q 50 608 50 585 l 58 686 q 60 749 60 724 l 60 783 q 79 817 60 817 q 114 787 96 817 q 183 724 134 751 q 205 717 196 717 l 288 716 l 288 766 q 463 1107 288 1036 q 651 1122 536 1137 q 724 1121 708 1115 q 751 1134 741 1126 l 810 1183 q 832 1164 832 1196 l 825 1067 l 831 989 q 796 975 831 957 q 760 1005 779 985 q 730 1034 741 1025 q 689 1061 705 1057 q 663 1067 674 1065 q 636 1069 651 1068 l 560 1068 q 359 764 359 1068 l 359 717 q 617 725 573 722 q 679 742 661 729 q 705 763 696 755 q 721 780 713 772 q 738 796 729 788 q 772 816 762 816 q 787 774 800 816 q 774 664 774 736 l 779 596 q 772 578 779 585 q 757 571 766 571 q 741 577 748 571 q 728 593 734 584 l 705 622 q 638 663 663 663 l 359 663 l 357 137 l 357 91 q 397 22 357 37 q 440 -4 429 9 q 451 -24 451 -18 q 419 -40 451 -38 q 366 -44 387 -42 q 326 -48 344 -46 z "},"g":{"ha":924,"x_min":50,"x_max":863,"o":"m 679 743 q 710 649 710 697 q 699 572 710 600 q 668 522 687 545 q 624 482 649 499 q 573 452 600 465 q 471 420 523 429 q 427 359 427 386 q 444 316 427 332 q 486 290 460 301 q 547 269 513 278 q 616 247 581 259 q 686 217 652 234 q 746 174 720 199 q 805 20 805 115 q 674 -182 805 -111 q 363 -237 541 -256 q 213 -201 274 -228 q 121 -149 153 -175 q 50 -3 50 -90 q 71 85 50 28 q 81 149 79 115 l 83 203 q 86 248 84 223 q 107 273 87 273 q 131 260 118 273 q 160 229 143 248 q 260 157 209 180 q 281 134 281 147 q 269 112 281 121 q 237 101 256 102 q 195 97 217 99 q 157 85 174 95 q 119 -10 119 63 q 220 -134 119 -87 q 438 -178 311 -178 q 647 -120 559 -178 q 735 20 735 -62 q 616 182 735 136 q 514 216 584 195 q 417 253 444 238 q 358 339 358 286 q 385 422 358 391 q 255 496 309 439 q 198 622 198 555 q 221 727 198 688 q 282 792 245 767 q 462 840 353 840 q 643 782 572 840 q 689 894 672 820 q 701 932 694 917 q 720 947 707 947 q 739 941 732 947 q 758 920 746 935 l 844 816 q 848 775 863 793 q 832 768 841 768 q 807 767 823 768 q 768 764 790 766 q 679 743 709 756 m 318 523 q 330 513 318 523 q 373 491 342 503 q 427 479 404 479 q 471 482 450 479 q 515 492 492 485 q 561 512 538 500 q 603 541 585 524 q 644 628 644 581 q 629 702 644 675 q 588 746 614 729 q 460 777 541 777 q 282 701 331 777 q 264 637 264 673 q 279 572 264 600 q 318 523 294 544 z "},"h":{"ha":907,"x_min":119,"x_max":853,"o":"m 213 22 l 138 16 q 119 32 119 16 q 129 63 119 48 q 152 94 140 78 q 185 163 185 135 l 193 414 q 208 1070 208 962 l 208 1095 q 159 1156 208 1110 q 139 1175 149 1166 q 130 1194 130 1183 q 155 1211 130 1211 q 207 1213 180 1211 q 258 1218 234 1215 q 328 1227 323 1227 q 317 1158 375 1227 q 273 1091 274 1106 q 270 1045 271 1076 q 268 971 269 1014 q 266 878 267 928 q 264 779 265 827 q 262 621 262 633 q 347 726 293 682 q 473 777 409 777 q 632 669 580 777 q 671 556 661 610 q 697 420 682 501 q 739 192 735 204 q 751 167 743 179 q 770 143 760 155 q 810 110 796 117 q 828 66 853 89 q 761 49 819 59 q 688 31 703 39 q 654 20 666 20 q 636 60 618 20 l 658 109 q 675 165 674 152 q 673 196 675 178 q 668 237 671 213 q 661 291 665 262 q 652 350 657 321 q 614 546 628 502 q 587 617 600 589 q 556 666 574 644 q 463 713 517 713 q 349 648 399 713 q 267 465 295 581 q 252 312 254 414 l 248 161 q 307 64 248 127 q 317 37 317 52 q 296 18 317 18 l 213 22 z "},"i":{"ha":477,"x_min":134,"x_max":400,"o":"m 169 -31 q 134 -5 134 -31 q 153 31 134 5 q 190 80 172 56 q 210 118 208 104 l 225 679 q 211 715 224 699 q 182 745 198 730 q 154 772 167 759 q 141 802 141 786 q 189 820 141 831 q 268 811 226 811 l 345 814 q 379 789 379 814 q 358 759 379 774 q 325 731 338 743 q 304 711 311 720 q 291 684 291 696 l 277 163 l 277 117 q 297 59 277 87 q 327 17 317 30 q 336 -5 336 4 q 297 -29 336 -29 l 267 -28 l 169 -31 m 340 1063 q 370 1024 400 1063 l 295 933 q 248 931 269 885 l 197 996 q 165 1053 165 1039 q 190 1072 165 1072 q 321 1063 269 1063 l 340 1063 z "},"j":{"ha":594,"x_min":-74,"x_max":479,"o":"m 433 954 q 470 941 470 960 q 442 902 470 920 q 389 818 404 878 q 389 645 382 788 q 400 447 397 501 q 416 106 416 163 q 413 10 416 48 q 406 -59 410 -28 q 263 -278 377 -243 q 90 -250 181 -304 q -12 -208 23 -210 q -61 -195 -47 -205 q -74 -171 -74 -184 q -59 -149 -74 -157 q 9 -110 -24 -129 q 65 -66 43 -90 q 101 -43 87 -43 q 121 -78 121 -43 l 119 -113 q 164 -213 119 -186 q 240 -218 195 -232 q 294 -185 275 -208 q 324 -132 313 -163 q 346 114 351 -61 q 313 803 330 669 q 290 849 310 829 q 247 886 271 869 q 208 936 208 916 q 233 956 208 956 q 293 950 259 956 q 350 944 327 944 q 386 945 373 944 l 433 954 m 420 1240 q 450 1200 479 1240 l 374 1109 q 327 1107 349 1061 l 276 1172 q 244 1229 244 1215 q 269 1249 244 1249 q 401 1239 348 1239 l 420 1240 z "},"k":{"ha":749,"x_min":75,"x_max":747,"o":"m 179 24 l 99 20 q 77 37 77 20 q 87 65 77 51 q 110 94 98 79 q 144 155 143 135 q 146 207 146 174 q 148 286 147 239 q 149 393 148 334 q 149 517 149 452 q 151 776 151 710 l 151 897 q 149 992 151 951 l 104 1050 q 75 1105 75 1088 q 95 1124 75 1128 q 251 1124 162 1108 q 288 1113 288 1131 q 265 1065 288 1094 q 231 1019 243 1036 q 214 985 218 1002 l 211 500 q 492 745 371 624 q 512 811 505 758 q 528 873 519 865 q 548 882 536 882 q 571 869 561 882 q 593 837 581 856 q 656 758 628 779 q 684 721 684 736 q 644 697 684 697 l 596 701 q 545 693 557 701 q 516 673 532 686 q 477 642 500 661 q 425 600 454 623 q 368 552 397 576 q 258 460 320 513 q 597 175 534 220 q 639 161 614 163 q 688 158 664 159 q 729 153 712 157 q 747 135 747 149 q 735 109 747 121 q 708 84 724 97 q 652 28 662 47 q 593 -5 620 -35 q 578 36 583 5 q 572 80 574 67 q 558 121 568 111 l 339 312 q 210 425 277 366 q 208 162 208 286 q 232 115 208 148 q 276 35 276 52 q 257 18 276 18 l 179 24 z "},"l":{"ha":585,"x_min":49,"x_max":629,"o":"m 578 17 q 528 22 553 17 q 465 28 503 28 q 421 13 454 26 q 309 -12 359 -14 q 222 11 258 -11 q 163 76 185 33 q 119 330 119 157 l 129 957 q 116 1131 129 1095 q 93 1164 107 1155 q 64 1185 79 1174 q 49 1210 49 1196 q 91 1233 49 1233 l 142 1230 l 256 1235 q 290 1212 290 1235 q 276 1187 290 1198 q 246 1164 263 1177 q 196 1085 201 1129 q 185 330 185 993 q 292 50 185 65 q 351 51 330 44 q 387 64 372 57 q 437 90 398 68 q 458 116 450 96 q 475 166 467 136 q 494 202 484 195 q 514 210 503 210 q 530 200 524 210 q 543 173 536 191 q 581 90 564 114 q 578 17 629 22 z "},"m":{"ha":1137,"x_min":104,"x_max":1054,"o":"m 255 470 q 260 136 260 310 q 279 79 260 107 q 308 37 299 50 q 317 13 317 24 q 310 -6 317 3 q 288 -15 302 -15 l 208 -7 q 178 -12 191 -7 q 153 -16 166 -16 q 128 -9 140 -16 q 117 9 117 -1 q 127 41 117 26 q 149 70 138 56 q 170 96 161 83 q 193 148 191 123 q 187 673 208 338 q 174 789 181 778 q 159 808 167 800 l 119 848 q 104 879 104 863 q 129 899 104 899 l 181 893 q 254 903 226 893 q 321 892 321 926 q 297 859 321 879 q 239 774 239 808 q 243 697 239 741 q 250 608 248 654 q 410 795 317 753 q 466 806 435 806 q 519 792 496 806 q 557 757 542 779 q 602 653 584 721 q 655 746 621 710 q 789 814 722 814 q 905 719 859 814 q 953 496 947 629 l 963 283 q 976 64 967 200 q 1035 -5 1017 3 q 1054 -34 1054 -15 q 1039 -59 1054 -53 q 1002 -67 1023 -65 q 959 -71 981 -69 q 925 -77 937 -72 q 885 -90 899 -90 q 869 -38 847 -90 q 911 73 903 45 q 787 750 911 746 q 635 604 690 750 q 624 567 627 581 l 621 552 l 620 460 l 619 340 q 627 147 619 164 q 647 115 635 130 q 669 89 659 100 q 695 50 695 62 q 654 25 695 25 l 584 28 l 519 19 q 484 45 484 19 q 498 77 484 60 q 558 158 519 100 l 562 329 q 557 523 562 471 q 545 610 552 574 q 526 676 537 647 q 460 742 500 742 q 385 709 420 742 q 321 625 347 673 q 255 470 275 534 z "},"n":{"ha":962,"x_min":73,"x_max":903,"o":"m 288 -5 q 267 -24 288 -24 l 232 -20 l 110 -16 q 106 32 73 -14 l 148 94 q 161 122 159 109 q 165 161 163 134 q 170 227 168 187 q 174 316 172 267 q 179 418 176 366 q 184 525 182 471 q 187 624 186 578 q 191 777 191 726 q 164 826 186 797 q 132 866 142 854 q 123 884 123 878 q 144 899 123 899 q 188 900 165 899 q 235 901 212 900 l 323 909 q 332 861 362 909 l 266 787 q 255 768 256 774 q 253 743 254 762 q 251 697 252 724 q 246 591 248 663 q 346 751 282 679 q 519 842 427 842 q 722 650 652 842 q 757 513 743 593 q 781 379 772 433 q 795 292 790 325 q 808 224 806 232 q 818 203 810 216 q 838 180 827 191 q 882 145 861 155 q 903 120 903 136 q 890 100 903 105 q 856 92 878 96 q 763 71 787 83 q 721 57 734 57 q 700 90 688 57 l 713 119 q 742 203 742 187 q 740 242 742 220 q 734 292 737 264 q 718 394 726 358 q 704 467 710 429 q 689 547 698 505 q 667 630 680 589 q 632 705 653 671 q 512 779 587 779 q 311 595 397 779 q 241 370 247 462 q 227 137 227 157 q 233 102 227 117 q 249 70 240 86 l 285 10 q 288 -5 288 3 z "},"o":{"ha":850,"x_min":92,"x_max":757,"o":"m 522 92 q 502 87 522 92 q 452 78 483 81 q 408 75 422 75 q 363 79 393 75 q 298 95 334 83 q 227 130 263 107 q 160 190 190 153 q 92 408 92 273 q 178 637 92 537 q 350 745 256 729 q 490 751 410 763 q 633 690 568 739 q 741 526 709 636 q 757 393 757 469 q 734 266 757 318 q 677 179 712 214 q 602 124 643 144 q 522 92 560 103 m 316 158 q 330 153 316 158 q 369 143 344 147 q 408 138 394 138 q 446 141 421 138 q 502 153 471 144 q 566 178 532 161 q 627 223 600 195 q 691 394 691 288 q 536 671 691 610 q 293 652 417 718 q 263 637 276 643 q 186 532 215 604 q 161 411 161 471 q 175 310 161 351 q 211 238 189 268 q 260 189 233 208 q 316 158 288 170 z "},"p":{"ha":793,"x_min":66,"x_max":720,"o":"m 102 -283 q 66 -263 66 -283 q 82 -236 66 -250 q 117 -203 98 -221 q 168 -119 168 -157 l 167 -20 l 164 206 l 161 478 q 155 810 157 797 q 146 833 152 823 q 132 852 140 843 l 100 886 q 69 931 69 917 q 97 953 69 953 l 161 945 q 214 950 191 945 q 252 955 237 955 q 300 929 300 955 q 281 899 300 913 q 250 873 262 884 q 232 853 238 862 q 220 825 220 836 q 220 800 220 814 q 221 768 220 786 l 222 688 q 328 793 256 755 q 515 823 411 838 q 707 662 664 803 q 720 566 720 620 q 707 474 720 512 q 671 409 693 437 q 621 363 649 382 q 564 334 593 345 q 484 315 513 315 q 437 316 454 315 q 398 321 420 317 q 352 333 376 325 q 305 353 328 340 q 225 431 252 383 l 227 313 q 231 34 231 143 q 234 -109 232 -76 q 244 -157 237 -142 q 262 -184 251 -172 l 310 -233 q 325 -264 325 -251 q 286 -288 325 -288 q 256 -283 282 -288 q 179 -278 231 -278 l 102 -283 m 582 410 q 618 444 602 423 q 654 549 654 490 q 644 641 654 608 q 617 697 634 674 q 580 733 601 720 q 538 754 559 747 q 458 766 503 766 q 373 747 413 766 q 302 699 332 728 q 239 567 239 637 q 374 390 239 434 q 582 410 492 352 z "},"q":{"ha":728,"x_min":72,"x_max":663,"o":"m 431 -193 q 393 -171 393 -193 q 428 -127 393 -147 q 473 -92 464 -108 q 489 -27 488 -68 l 498 436 q 355 368 452 382 q 176 401 261 353 q 87 511 115 437 q 72 609 72 551 q 96 712 72 667 q 157 789 120 758 q 321 851 231 851 q 506 768 439 851 l 507 818 l 507 863 q 460 928 507 897 q 414 984 414 958 q 440 1002 414 1002 l 499 996 l 623 1002 q 663 981 663 1002 q 644 945 663 954 q 587 895 603 928 q 571 810 571 863 l 555 -13 l 555 -46 q 565 -95 555 -82 q 585 -115 574 -108 q 607 -127 595 -122 q 629 -140 619 -133 q 653 -172 653 -155 q 643 -194 653 -189 q 606 -199 632 -199 l 541 -192 l 496 -191 l 431 -193 m 206 461 q 220 451 206 461 q 264 432 233 440 q 313 425 294 425 q 350 427 331 425 q 389 435 369 429 q 429 453 410 441 q 464 484 448 465 q 498 600 498 527 q 391 779 498 739 q 316 791 357 791 q 242 773 275 791 q 186 728 209 755 q 140 614 140 674 q 159 518 140 554 q 206 461 178 482 z "},"r":{"ha":667,"x_min":95,"x_max":612,"o":"m 297 56 l 180 62 q 134 60 142 62 q 95 77 95 52 q 118 113 95 91 q 158 156 140 136 q 178 190 176 177 q 184 392 180 204 q 186 765 190 739 q 178 802 183 791 q 150 832 171 817 q 118 854 128 846 q 107 870 107 862 q 109 882 107 878 q 114 890 110 886 q 141 899 123 899 l 195 894 q 254 900 233 894 q 285 907 275 907 q 305 901 295 907 q 315 884 315 895 q 306 864 315 873 q 285 844 296 855 q 245 792 252 813 l 242 645 q 361 810 286 756 q 475 852 417 850 q 565 913 492 852 l 566 913 q 577 923 571 918 q 592 928 583 928 q 612 900 612 928 l 609 804 l 611 762 q 605 741 611 750 q 563 741 591 719 l 563 741 q 507 781 537 768 q 460 793 477 793 q 418 779 444 793 q 369 741 392 764 q 327 687 347 718 q 292 625 307 657 q 257 509 261 557 q 251 423 254 460 q 247 348 249 385 q 245 178 239 193 q 260 153 252 164 l 310 85 q 297 56 327 56 z "},"s":{"ha":578,"x_min":106,"x_max":478,"o":"m 450 764 q 438 743 450 743 q 415 753 427 743 q 392 774 404 762 q 349 805 360 804 q 323 805 338 806 q 290 798 307 803 q 254 785 272 793 q 221 764 235 777 q 187 688 187 734 q 279 566 187 635 q 382 484 351 511 q 433 429 412 456 q 478 297 478 367 q 330 103 478 165 q 257 83 283 83 q 213 69 231 83 q 178 40 194 56 q 151 10 163 24 q 133 -3 139 -3 q 122 0 126 -3 q 115 8 118 3 q 110 28 110 19 l 106 148 q 134 209 106 231 q 152 190 141 204 q 171 168 163 176 q 188 156 178 161 q 298 157 229 136 q 408 243 379 180 q 323 453 454 341 l 219 534 q 124 688 124 609 q 254 849 124 806 q 330 863 296 863 q 366 889 338 863 q 404 924 393 915 q 433 945 428 945 q 445 902 445 945 l 444 846 l 450 764 z "},"t":{"ha":827,"x_min":35,"x_max":773,"o":"m 223 266 l 224 287 q 234 446 227 367 q 248 610 241 525 q 194 610 209 610 q 175 610 194 610 q 133 598 149 610 q 108 575 118 587 q 56 538 74 538 q 35 561 35 538 q 44 613 35 575 q 54 684 54 652 l 50 730 q 66 754 50 754 q 101 725 75 754 q 140 682 127 695 q 164 669 154 669 q 251 666 206 669 q 262 856 262 816 q 211 928 262 873 q 194 959 194 945 q 233 983 194 983 q 260 979 243 983 q 301 975 277 975 l 385 981 q 414 958 414 981 q 402 930 414 944 q 385 915 389 917 q 353 883 369 907 q 335 852 337 859 q 330 827 332 845 q 326 784 328 809 l 316 663 q 551 656 521 653 q 600 673 582 659 q 628 695 618 686 q 643 710 637 704 q 655 720 648 715 q 682 732 670 732 q 705 688 705 732 l 701 608 q 705 575 701 591 q 683 520 720 520 q 655 531 669 520 q 624 555 641 542 q 559 595 574 594 l 312 607 l 298 422 q 293 224 283 274 q 320 146 303 174 q 441 85 358 85 q 571 130 503 85 q 594 147 587 140 q 611 176 602 154 q 625 235 621 199 q 649 272 628 272 q 673 256 665 272 l 706 191 q 742 143 723 159 q 767 121 762 126 q 773 107 773 115 q 735 85 773 85 l 663 90 q 585 71 617 90 q 335 42 439 -10 q 223 266 223 98 z "},"u":{"ha":920,"x_min":97,"x_max":769,"o":"m 634 167 l 635 182 l 616 491 l 583 395 q 517 230 536 267 q 480 169 498 194 q 440 125 463 144 q 331 81 389 81 q 157 408 157 81 l 165 739 q 147 781 165 763 q 118 812 130 800 q 97 847 97 833 q 135 869 97 869 l 179 867 q 262 876 231 867 q 300 884 293 884 q 317 870 317 884 q 274 806 317 846 q 243 776 258 791 q 228 750 229 761 q 225 707 227 739 q 221 631 223 675 q 219 352 213 413 q 232 261 224 292 q 251 206 239 230 q 331 152 279 152 q 545 453 446 152 q 592 781 631 718 q 559 810 583 795 q 526 850 526 833 q 564 877 526 877 l 597 876 q 673 882 646 876 q 706 888 702 888 q 727 869 727 888 q 705 825 727 850 q 672 783 683 799 q 662 752 662 766 q 663 711 661 738 q 666 644 664 684 q 671 557 668 605 q 676 460 673 509 q 683 362 680 410 q 689 275 686 315 q 699 172 696 185 q 706 149 702 159 q 715 130 709 138 l 757 81 q 745 49 769 56 q 679 44 726 44 q 615 39 632 44 q 568 53 568 24 q 575 78 568 69 q 591 97 582 86 q 609 121 600 108 q 634 167 633 153 z "},"v":{"ha":833,"x_min":-3,"x_max":817,"o":"m 616 926 q 644 951 616 951 q 676 938 661 951 q 714 916 692 925 q 760 897 737 906 q 817 859 817 871 q 780 824 817 838 l 736 810 q 713 782 720 800 q 691 723 707 764 q 655 628 676 682 q 608 509 633 573 q 556 380 583 445 q 467 165 492 220 q 404 19 435 92 q 377 5 394 5 q 336 26 342 5 q 92 757 223 349 q 66 797 83 783 l 14 836 q -3 865 -3 848 q 33 887 -3 887 l 68 886 q 159 891 126 886 q 195 895 192 895 q 225 874 225 895 q 206 844 225 859 q 177 819 186 828 q 154 781 148 792 q 349 191 201 602 q 377 112 366 140 q 642 810 610 662 q 637 852 646 827 q 616 926 616 913 z "},"w":{"ha":1158,"x_min":-3,"x_max":1095,"o":"m 1044 1032 q 1095 1019 1095 1046 q 1044 914 1095 1003 q 1027 871 1027 884 q 1028 839 1027 859 q 1031 787 1029 818 q 1035 716 1033 755 q 1039 635 1038 677 q 1040 389 1046 455 q 1024 271 1034 323 q 997 171 1014 220 q 958 85 981 123 q 831 3 906 3 q 696 100 744 3 q 649 221 663 169 q 629 304 636 273 q 616 359 622 334 l 603 421 l 590 350 q 511 84 553 162 q 454 1 476 21 q 383 -32 416 -32 q 288 30 319 -32 q 203 351 248 108 q 126 736 129 703 q 40 806 121 768 q 2 827 8 820 q -3 842 -3 834 q 47 870 -3 864 q 141 892 110 878 q 186 913 172 906 q 258 911 258 947 q 244 872 258 897 q 221 829 231 848 q 205 795 211 810 q 194 740 194 767 q 201 667 194 713 q 221 569 209 621 q 274 353 223 558 l 300 218 q 386 34 339 34 q 464 133 416 34 q 513 268 504 218 q 530 350 523 317 q 545 421 538 384 q 553 690 574 585 q 495 765 547 725 q 475 778 484 774 q 456 793 466 783 q 446 812 446 803 q 486 831 446 831 q 557 834 525 831 q 614 840 589 837 q 693 849 680 849 q 686 795 724 849 q 651 750 669 769 q 630 727 634 731 q 625 716 627 722 q 624 699 624 710 l 624 668 q 637 557 624 600 q 676 346 664 399 q 751 134 707 217 q 808 80 770 96 q 904 131 866 57 q 954 250 943 209 q 972 753 1006 446 q 957 859 962 846 q 941 880 951 872 q 918 895 931 888 q 892 908 905 901 q 867 921 878 914 q 849 969 825 949 q 880 980 857 976 q 923 989 903 984 q 960 1000 943 994 l 1044 1032 z "},"x":{"ha":1050,"x_min":37,"x_max":1017,"o":"m 220 92 q 191 45 220 45 q 152 75 168 45 q 75 109 140 93 q 37 143 37 119 q 84 178 37 161 q 124 190 103 184 q 160 204 145 196 q 461 528 262 307 q 182 792 227 757 q 115 809 159 808 q 57 814 72 810 q 43 830 43 818 q 76 870 43 852 q 132 907 109 888 q 170 942 155 926 q 195 966 184 957 q 220 976 205 976 q 247 943 247 976 l 241 857 q 252 821 241 831 q 377 688 296 768 q 498 570 458 609 l 659 751 q 729 853 729 833 l 719 932 q 749 966 719 966 q 771 957 761 966 q 786 941 781 948 q 801 924 790 935 q 824 902 811 913 q 875 865 854 877 q 909 829 909 846 q 873 804 909 808 q 766 779 791 804 q 541 529 758 774 q 870 224 799 285 q 938 208 890 215 q 1002 195 987 201 q 1017 179 1017 189 q 992 139 1017 152 q 951 108 968 125 q 921 74 934 90 q 898 46 908 58 q 876 35 887 35 q 846 68 850 35 l 840 132 q 829 172 838 159 l 817 184 q 504 487 809 192 l 264 216 q 231 176 239 187 q 218 129 218 159 l 220 92 z "},"y":{"ha":861,"x_min":13,"x_max":890,"o":"m 311 -20 l 278 -21 q 258 12 241 -21 q 284 44 267 27 q 311 71 302 60 q 335 118 332 94 q 341 166 338 142 q 347 214 345 190 l 373 426 q 155 668 212 478 q 129 760 138 722 q 112 806 121 797 q 93 824 102 816 q 72 841 84 832 q 46 861 59 850 q 13 911 13 889 q 32 925 13 925 q 75 927 52 925 q 123 932 99 928 q 202 947 181 939 q 231 955 224 955 q 242 943 242 955 q 233 916 242 931 q 212 884 223 901 q 180 813 180 837 q 187 757 180 789 q 208 688 194 724 q 241 615 221 652 q 289 550 262 579 q 427 484 351 484 q 665 665 571 484 q 713 793 706 742 q 681 850 713 813 q 649 899 649 886 q 669 916 649 916 q 699 913 675 916 q 749 909 724 909 q 788 911 774 909 q 813 915 802 913 q 850 920 842 920 q 861 870 890 920 q 825 829 848 848 q 770 765 779 789 q 748 707 761 741 q 715 635 734 673 q 671 559 696 597 q 611 491 645 522 q 441 420 534 423 q 420 270 439 412 q 399 107 399 117 q 410 80 399 97 q 433 46 420 62 q 456 15 446 30 q 467 -12 467 1 q 442 -27 467 -27 l 311 -20 z "},"z":{"ha":886,"x_min":87,"x_max":878,"o":"m 148 66 q 133 63 148 66 q 111 59 118 59 q 95 67 104 59 q 87 86 87 75 q 107 130 87 109 q 152 178 127 151 q 216 250 178 205 q 707 876 435 503 q 258 867 323 873 q 168 805 220 863 q 139 777 146 780 q 125 773 132 773 q 111 795 106 773 q 116 935 127 865 q 112 981 112 960 q 131 1002 112 1002 q 160 987 145 1002 q 183 963 174 972 q 201 945 192 953 q 236 929 218 928 q 292 930 253 930 q 532 930 412 930 q 735 931 730 929 q 746 937 739 934 q 783 943 774 948 q 795 932 791 937 q 800 898 808 912 q 783 874 791 883 q 755 837 775 866 q 699 760 734 808 q 508 507 599 622 l 273 212 q 205 127 231 160 q 283 128 243 128 l 555 124 q 700 134 665 124 q 759 157 735 144 q 801 183 783 171 q 831 205 819 196 q 852 214 844 214 q 867 174 878 214 q 850 62 850 111 l 852 33 q 833 9 852 9 q 788 31 820 9 q 705 73 727 71 l 663 74 q 232 73 286 72 q 148 66 178 73 z "},"{":{"ha":861,"x_min":125,"x_max":759,"o":"m 729 -255 q 675 -224 703 -255 q 624 -196 656 -204 q 530 -164 551 -176 q 366 20 420 -102 q 297 309 325 115 q 270 438 282 414 q 240 475 257 462 q 202 499 223 488 q 169 513 181 510 q 146 521 157 517 q 125 549 125 528 q 152 575 125 568 q 283 662 244 601 q 331 857 326 727 q 337 991 334 920 q 359 1109 341 1062 q 401 1188 376 1156 q 549 1276 454 1257 q 635 1303 610 1288 q 669 1318 661 1318 q 682 1280 691 1318 l 673 1241 q 667 1191 671 1233 q 634 1121 661 1121 q 607 1136 616 1121 q 592 1162 597 1152 q 579 1181 587 1173 q 543 1203 563 1203 q 511 1194 524 1203 q 482 1172 498 1185 q 454 1144 467 1158 q 431 1105 442 1129 q 408 969 408 1051 q 369 682 408 831 q 301 576 353 618 q 252 546 279 557 q 344 454 325 504 q 360 384 356 421 q 370 315 364 347 q 383 241 375 283 q 400 157 391 198 q 438 29 420 66 q 477 -34 456 -8 q 522 -80 497 -60 q 623 -125 575 -125 q 688 -55 650 -125 q 713 -33 701 -33 q 732 -43 725 -33 q 739 -72 743 -59 q 732 -143 726 -113 q 748 -215 738 -176 q 729 -255 759 -255 z "},"|":{"ha":549,"x_min":166,"x_max":370,"o":"m 254 -216 l 192 -224 q 166 -199 166 -224 q 176 -176 166 -190 q 230 -98 224 -126 l 231 13 l 233 772 l 234 1021 l 234 1088 q 205 1156 234 1130 q 186 1176 195 1166 q 177 1199 177 1185 q 201 1221 177 1221 q 241 1215 224 1221 q 273 1210 258 1210 l 340 1214 q 362 1207 353 1214 q 370 1192 370 1201 q 342 1156 370 1174 q 302 1111 317 1143 q 299 1099 299 1103 l 297 366 q 300 -92 297 81 q 334 -152 300 -119 q 356 -174 346 -163 q 366 -199 366 -185 q 335 -222 366 -222 l 254 -216 z "},"}":{"ha":822,"x_min":99,"x_max":732,"o":"m 129 1320 q 182 1290 155 1320 q 234 1261 201 1270 q 328 1230 307 1242 q 492 1045 438 1168 q 561 757 533 951 q 588 627 576 651 q 618 591 601 604 q 656 567 635 578 q 689 552 677 555 q 711 545 701 549 q 732 517 732 537 q 706 490 732 498 q 574 404 614 465 q 527 208 532 338 q 521 75 524 146 q 499 -43 517 3 q 456 -123 482 -90 q 309 -210 404 -191 q 223 -238 248 -222 q 189 -253 197 -253 q 176 -215 167 -253 l 185 -176 q 191 -125 187 -167 q 224 -56 197 -56 q 251 -71 241 -56 q 266 -97 260 -86 q 279 -116 271 -107 q 315 -138 295 -138 q 347 -129 334 -138 q 376 -106 360 -120 q 404 -78 391 -93 q 427 -40 416 -64 q 450 96 450 14 q 489 384 450 235 q 557 490 505 447 q 606 520 579 508 q 514 611 533 562 q 498 682 502 644 q 488 750 494 719 q 475 825 483 782 q 458 908 467 867 q 419 1036 437 999 q 381 1099 402 1074 q 336 1145 361 1125 q 235 1190 283 1190 q 170 1120 208 1190 q 145 1098 157 1098 q 126 1109 133 1098 q 119 1137 115 1124 q 126 1208 132 1178 q 110 1281 120 1241 q 129 1320 99 1320 z "},"~":{"ha":1062,"x_min":11,"x_max":1021,"o":"m 857 606 q 887 663 857 663 q 914 637 905 663 q 1000 525 936 576 q 1021 494 1021 507 q 979 470 1021 461 q 889 478 907 484 l 821 435 q 699 397 752 397 q 611 411 645 397 q 550 447 576 425 q 502 493 524 468 q 457 538 480 517 q 341 589 404 589 q 213 534 262 589 q 196 513 202 522 q 187 486 189 505 q 182 449 184 467 q 173 416 179 430 q 153 402 167 402 q 130 412 140 402 q 119 434 120 422 q 112 460 118 446 q 96 491 106 475 q 51 543 75 525 q 40 591 11 573 q 77 595 60 603 q 147 572 130 572 q 179 585 164 572 q 216 612 195 597 q 332 652 273 652 q 427 638 391 652 q 489 602 463 624 q 535 555 515 581 q 576 509 555 530 q 793 487 668 417 q 848 530 832 509 q 857 569 857 538 l 857 606 z "},"":{"ha":0,"x_min":0,"x_max":0,"o":""},"":{"ha":581,"x_min":0,"x_max":0,"o":"z "},"":{"ha":546,"x_min":125,"x_max":453,"o":"m 275 702 l 324 698 q 389 690 376 698 q 395 649 416 675 q 364 610 374 623 q 349 589 354 597 q 338 563 341 577 l 288 -93 q 300 -136 288 -119 q 325 -169 313 -154 q 357 -241 357 -211 q 321 -264 357 -271 l 279 -252 q 189 -242 246 -242 l 170 -242 q 136 -236 147 -242 q 125 -216 125 -229 q 147 -174 125 -193 q 186 -138 170 -155 q 212 -106 201 -121 q 231 -62 231 -76 q 272 547 272 520 q 272 587 272 575 q 271 610 273 600 q 258 646 267 633 q 275 702 221 702 m 428 1103 q 453 1085 453 1103 q 424 1036 453 1069 q 382 988 394 1002 q 363 964 370 974 q 340 945 347 945 q 319 965 328 945 q 297 999 309 984 q 272 1029 284 1015 q 279 1103 212 1103 l 371 1099 l 428 1103 z "},"":{"ha":1001,"x_min":1,"x_max":758,"o":"m 193 -118 q 165 -149 193 -149 q 123 -136 149 -149 q 49 -110 75 -110 q 13 -100 24 -110 q 1 -81 1 -91 q 36 -45 1 -61 q 111 3 82 -24 q 210 202 134 38 q 73 454 73 303 q 290 798 73 712 q 484 833 374 831 q 564 1048 564 1029 q 557 1079 564 1067 q 544 1103 551 1090 q 534 1171 511 1152 q 576 1176 553 1187 q 616 1156 598 1165 q 691 1125 663 1131 q 743 1093 743 1115 q 726 1073 743 1082 q 689 1053 709 1063 q 625 1007 631 1025 q 554 831 614 979 l 612 826 q 681 861 644 826 q 708 885 695 874 q 737 897 722 897 q 752 871 758 897 q 738 769 738 817 q 741 711 738 722 q 744 692 744 701 q 727 668 744 668 q 698 687 714 668 q 670 719 682 705 q 648 743 659 733 q 564 774 619 770 q 531 777 547 775 q 292 227 413 496 q 593 198 459 133 q 646 238 631 216 q 668 274 660 260 q 682 298 675 289 q 726 311 705 333 q 733 286 733 302 l 732 256 q 745 169 732 224 q 758 101 758 113 q 704 86 758 60 q 673 110 687 94 q 652 130 660 125 q 634 134 645 134 q 576 123 614 134 q 482 113 537 113 q 265 168 368 113 l 207 35 q 190 -2 196 12 l 184 -16 q 181 -35 181 -23 l 193 -118 m 238 263 q 459 774 374 567 q 232 681 319 762 q 140 459 140 595 q 238 263 140 345 z "},"":{"ha":944,"x_min":83,"x_max":966,"o":"m 288 -85 q 262 -74 268 -85 q 245 -51 257 -64 q 216 -23 233 -37 q 157 20 177 10 q 137 40 137 29 q 151 61 137 52 q 178 72 164 71 q 210 76 192 73 q 243 84 227 79 q 284 105 283 94 l 288 245 l 292 535 q 224 530 245 530 q 193 524 203 530 q 175 509 184 517 q 159 489 167 500 q 142 469 151 478 q 106 448 122 448 q 83 469 83 448 l 90 545 l 84 641 q 118 650 84 677 l 180 600 q 204 588 195 588 q 294 601 271 598 l 296 827 q 296 890 296 857 q 304 968 296 924 q 327 1054 312 1013 q 365 1130 342 1095 q 418 1191 388 1165 q 561 1247 484 1247 q 684 1232 638 1247 q 761 1193 730 1216 q 811 1145 792 1171 q 841 1103 830 1120 q 861 1073 852 1087 q 880 1045 869 1058 q 930 1013 905 1014 q 951 987 966 1011 q 914 960 935 962 q 878 954 893 958 q 848 943 863 949 q 774 912 777 912 q 758 932 758 912 q 767 963 758 949 q 783 987 777 978 q 793 1040 802 1021 q 744 1116 767 1093 q 699 1152 722 1139 q 573 1183 646 1183 q 450 1124 500 1183 q 373 932 393 1059 q 359 608 363 868 q 401 612 380 610 q 445 616 422 614 q 535 629 498 623 q 588 651 571 635 q 614 676 605 666 q 628 692 623 686 q 640 704 633 698 q 684 709 665 728 q 692 684 692 702 l 690 644 q 699 569 690 599 q 709 532 709 537 q 689 507 709 508 q 654 515 670 505 q 622 536 639 525 q 555 570 576 568 l 357 543 l 353 243 q 351 102 351 169 q 786 37 763 37 l 822 37 q 911 68 867 37 q 937 79 926 79 q 956 54 956 79 q 948 28 956 37 q 934 -37 934 11 l 940 -93 q 911 -118 940 -118 q 899 -115 901 -118 q 888 -103 897 -113 q 868 -80 880 -93 q 821 -39 838 -48 q 779 -25 804 -30 q 719 -14 754 -20 q 327 35 606 3 q 316 -59 316 -33 q 288 -85 316 -85 z "},"":{"ha":969,"x_min":6,"x_max":964,"o":"m 181 -54 q 161 -81 181 -81 q 137 -71 149 -81 q 118 -51 125 -60 q 103 -35 111 -43 q 64 -4 89 -20 q 28 52 6 31 q 51 63 38 62 q 77 64 63 63 q 140 89 117 64 l 227 184 q 156 399 156 270 q 233 627 156 529 l 163 704 q 87 734 134 734 q 40 760 40 734 q 65 792 40 778 q 102 816 91 807 q 121 833 113 825 l 155 868 q 180 880 167 880 q 199 852 199 880 l 193 800 q 205 751 193 764 q 275 671 220 735 q 494 756 369 756 q 707 684 618 756 q 795 782 795 781 q 808 847 808 804 q 816 900 808 890 q 833 909 825 909 q 849 903 842 909 q 863 888 856 897 q 911 836 893 849 q 940 814 929 823 q 964 781 964 794 q 950 762 964 767 q 916 756 936 758 q 874 752 896 755 q 833 732 852 749 q 746 643 800 701 q 821 391 821 550 q 756 190 821 268 q 823 121 796 144 q 872 93 850 97 q 915 87 895 90 q 950 81 935 85 q 964 65 964 76 q 957 46 964 54 q 940 30 950 39 l 892 -8 l 849 -59 q 821 -61 834 -72 q 808 -24 808 -50 q 795 62 808 40 l 715 151 q 473 75 618 75 q 328 109 403 75 q 270 144 298 122 q 184 43 216 79 q 174 -1 174 32 l 181 -54 m 302 606 q 284 587 302 606 q 246 516 267 567 q 226 409 226 465 q 239 312 226 354 q 275 241 253 271 q 325 192 297 211 q 380 161 352 172 q 457 141 429 141 q 510 143 485 141 q 566 154 534 146 q 631 179 597 163 q 693 224 665 196 q 758 394 758 290 q 600 675 758 617 q 493 693 552 693 q 386 669 435 693 q 302 606 338 646 z "},"":{"ha":1042,"x_min":95,"x_max":939,"o":"m 423 207 l 251 208 q 183 179 210 208 q 164 159 173 168 q 140 151 155 151 q 119 180 119 151 l 129 257 q 125 313 129 257 q 132 336 125 327 q 146 345 138 345 q 183 315 164 345 q 229 274 199 290 q 256 271 236 271 q 427 265 277 271 q 435 444 431 332 l 271 445 q 203 416 229 445 q 183 397 193 406 q 160 388 174 388 q 138 417 138 388 l 149 494 l 145 551 q 151 573 145 564 q 165 583 157 583 q 203 553 184 583 q 248 511 218 528 q 273 508 256 508 l 427 503 q 211 841 354 641 q 162 878 199 859 q 110 908 124 898 q 95 930 95 918 q 132 959 95 955 q 258 991 197 965 q 298 1000 278 1000 q 317 984 317 1000 q 302 951 317 972 q 264 889 264 897 q 272 868 264 882 q 302 822 281 855 q 349 751 324 788 l 485 545 l 614 691 q 731 848 692 782 q 730 896 741 865 q 713 951 713 946 q 741 977 713 977 q 781 959 754 977 q 863 916 836 923 q 883 856 939 895 q 850 842 874 849 q 814 831 825 836 q 786 803 804 826 q 736 739 768 779 q 669 659 703 699 q 601 578 635 618 q 535 500 566 538 q 574 500 555 500 l 610 500 q 718 503 690 500 q 760 516 745 506 q 786 539 774 527 q 808 560 798 551 q 832 570 819 570 q 849 563 844 570 q 854 530 854 555 l 850 465 l 858 403 q 833 377 858 377 q 810 387 823 377 q 732 441 760 435 q 500 444 679 441 q 487 264 499 424 q 693 264 654 260 q 747 279 732 269 q 773 301 761 290 q 795 323 785 313 q 819 332 806 332 q 837 325 831 332 q 842 292 842 318 l 837 228 l 845 165 q 820 140 845 140 q 797 149 810 140 q 719 203 747 198 q 482 206 664 203 q 480 150 480 170 l 480 120 q 480 101 480 111 q 482 78 481 91 q 488 53 483 64 q 507 20 496 32 q 525 1 518 9 q 540 -30 540 -19 q 499 -53 540 -53 l 420 -47 l 372 -56 q 339 -30 339 -56 q 349 -4 339 -18 l 415 81 l 420 157 q 423 207 422 180 z "},"":{"ha":549,"x_min":166,"x_max":370,"o":"m 254 668 l 192 660 q 166 685 166 660 q 176 708 166 694 q 230 786 224 758 q 234 1088 230 786 q 205 1156 234 1130 q 186 1176 195 1166 q 177 1199 177 1185 q 201 1221 177 1221 q 241 1215 224 1221 q 273 1210 258 1210 l 340 1214 q 362 1207 353 1214 q 370 1192 370 1201 q 342 1156 370 1174 q 302 1111 317 1143 q 299 1099 299 1103 l 300 793 q 334 732 301 764 q 356 710 346 721 q 366 685 366 699 q 335 663 366 663 l 254 668 m 254 -225 l 192 -233 q 166 -208 166 -233 q 176 -185 166 -199 q 230 -107 224 -135 l 234 195 q 205 263 234 237 q 186 282 195 273 q 177 306 177 292 q 201 328 177 328 q 241 322 224 328 q 273 317 258 317 l 340 321 q 362 314 353 321 q 370 300 370 308 q 342 263 370 281 q 302 217 317 250 q 299 206 299 210 l 300 -100 q 334 -160 301 -129 q 356 -183 346 -172 q 366 -208 366 -194 q 335 -231 366 -231 l 254 -225 z "},"":{"ha":601,"x_min":112,"x_max":635,"o":"m 158 -149 q 140 -125 140 -149 q 145 -102 140 -117 q 155 -66 150 -87 q 165 -24 161 -45 q 175 54 172 16 q 185 101 178 92 q 207 110 193 110 q 229 95 220 110 q 244 57 237 79 q 297 -40 267 -11 q 445 -49 357 -74 q 549 24 515 -28 q 566 87 566 52 q 552 151 566 122 q 516 205 538 180 q 466 252 494 230 q 411 293 439 273 q 358 329 383 312 q 303 372 332 345 q 244 428 273 398 q 197 484 215 458 q 162 574 162 532 q 170 644 162 616 q 191 694 178 673 q 247 756 214 735 q 172 841 191 810 q 152 1040 112 940 q 269 1152 183 1119 q 461 1157 349 1181 q 511 1179 469 1157 q 593 1215 582 1215 q 604 1204 604 1215 q 599 1177 604 1193 q 589 1147 594 1162 l 570 1103 q 561 1047 564 1084 q 555 999 558 1010 q 543 987 552 987 q 506 1027 529 987 q 458 1097 496 1047 q 245 1067 315 1135 q 203 962 203 1027 q 321 777 203 876 q 404 716 343 758 q 490 653 464 674 q 535 608 515 633 q 578 479 578 552 q 490 319 578 386 q 584 234 557 272 q 635 102 635 163 q 614 1 635 41 q 559 -65 594 -38 q 378 -120 488 -120 q 313 -115 336 -120 q 203 -126 255 -103 q 181 -140 192 -132 q 158 -149 170 -149 m 434 357 q 507 481 507 401 q 433 613 507 555 l 296 712 q 238 636 255 690 q 301 465 211 552 q 384 391 360 408 q 434 357 408 374 z "},"":{"ha":747,"x_min":96,"x_max":641,"o":"m 456 1145 q 487 1140 461 1145 q 604 1135 513 1135 q 641 1112 641 1135 q 618 1071 641 1095 q 562 1006 566 1015 q 519 989 543 975 q 510 1001 513 994 q 498 1020 506 1009 q 479 1044 490 1031 q 431 1124 431 1106 q 456 1145 431 1145 m 327 1112 q 304 1070 327 1094 q 247 1006 253 1017 q 191 1002 218 962 l 137 1081 q 142 1145 96 1145 l 180 1141 q 279 1135 231 1135 q 327 1112 327 1135 z "},"":{"ha":1155,"x_min":75,"x_max":1080,"o":"m 75 562 q 153 836 75 713 q 461 1051 258 1001 q 719 1055 585 1081 q 932 953 842 1031 q 1080 551 1080 822 q 941 106 1080 256 q 598 -29 817 -29 q 240 101 382 -29 q 96 357 137 195 q 75 544 75 439 q 75 562 75 553 m 225 834 q 207 810 225 834 q 166 719 189 785 q 143 556 143 652 q 161 383 143 461 q 212 246 180 304 q 288 148 244 188 q 381 83 331 108 q 593 35 474 38 q 761 58 701 35 q 864 114 821 81 q 939 205 906 148 q 1010 550 1010 330 q 719 990 1010 926 q 602 1006 646 1006 q 508 997 557 1006 q 409 969 459 989 q 310 917 358 949 q 225 834 262 884 m 850 218 q 827 196 850 196 q 780 209 815 196 q 733 221 744 221 q 711 217 722 221 q 685 208 701 213 q 648 197 669 202 q 482 190 547 170 q 365 263 418 209 q 268 523 268 361 q 444 840 268 749 q 552 871 505 871 q 622 868 600 871 q 659 861 644 865 q 710 851 698 851 q 736 856 722 851 q 762 867 750 861 q 809 882 795 882 q 829 852 844 882 q 817 827 824 842 l 800 793 q 765 704 765 724 q 743 665 764 665 q 719 691 728 665 q 703 733 709 716 q 690 765 697 751 q 651 804 675 795 q 607 814 627 814 l 565 814 q 404 738 469 814 q 335 530 335 658 q 399 309 335 389 q 541 239 456 239 q 696 288 643 239 q 723 329 716 305 q 734 368 730 353 q 760 400 743 400 q 782 375 776 400 q 793 334 787 349 q 806 305 799 319 l 838 254 q 850 218 850 232 z "},"":{"ha":796,"x_min":88,"x_max":741,"o":"m 412 1137 q 439 1103 439 1137 q 430 1065 439 1090 q 412 1001 408 1006 q 431 971 416 996 q 470 910 447 946 q 518 833 492 875 q 568 755 545 792 q 634 653 631 658 q 668 634 650 642 q 703 618 687 626 q 741 579 741 599 q 727 554 741 560 q 693 545 713 549 q 653 537 673 542 q 623 520 633 532 q 583 495 601 495 q 555 554 541 495 l 568 608 q 570 640 573 632 q 560 659 567 647 q 509 741 554 670 l 487 706 q 294 505 397 557 q 171 490 229 471 q 111 543 129 505 q 113 652 88 587 q 237 800 139 724 q 378 861 285 836 q 425 871 404 867 q 357 975 368 955 q 306 995 342 985 q 259 1010 271 1004 q 248 1028 248 1016 q 280 1058 248 1048 q 332 1083 313 1067 q 373 1118 352 1099 q 412 1137 393 1137 m 183 569 q 189 562 183 569 q 219 554 195 554 q 274 570 243 554 q 331 611 304 586 q 382 665 359 635 q 425 722 406 695 q 470 800 458 772 l 459 817 q 279 743 361 802 q 183 623 202 688 q 183 569 172 585 m 174 110 q 151 139 151 110 q 153 167 151 152 q 157 197 155 182 q 163 252 163 241 l 157 300 q 163 317 157 311 q 176 323 169 323 q 198 311 184 323 q 227 285 212 299 q 273 246 267 246 q 535 259 396 246 q 602 301 563 262 l 629 328 q 652 340 642 340 q 678 289 678 340 l 677 232 q 683 190 677 210 q 689 163 689 170 q 652 129 689 119 q 620 149 646 131 q 546 195 557 193 q 520 196 535 197 q 484 196 506 196 q 436 195 463 195 q 381 193 409 194 q 296 189 326 191 q 251 174 266 186 q 222 147 235 161 q 174 110 187 110 z "},"":{"ha":1300,"x_min":171,"x_max":1118,"o":"m 925 89 q 933 168 925 89 q 929 192 933 183 q 903 227 924 200 q 845 295 881 253 q 655 518 703 461 q 646 536 646 523 q 665 576 646 561 q 744 669 705 627 q 815 747 783 711 q 907 888 907 849 l 901 959 q 926 991 901 991 q 949 980 937 991 q 975 952 960 968 q 1045 889 1019 903 q 1086 850 1086 866 q 1070 830 1086 834 q 1033 823 1055 825 q 986 818 1011 821 q 950 805 962 814 q 923 777 939 796 q 878 725 906 758 q 719 542 762 591 q 980 244 902 322 q 1028 228 990 232 q 1092 220 1067 224 q 1118 196 1118 216 q 1103 173 1118 184 q 1068 149 1088 161 q 996 94 1008 112 q 946 56 970 56 q 925 89 922 56 m 450 89 q 458 168 450 89 q 453 192 458 183 q 427 227 449 200 q 370 295 406 253 q 180 518 227 461 q 171 536 171 523 q 190 576 171 561 q 269 669 230 627 q 340 747 307 711 q 431 888 431 849 l 426 959 q 450 991 426 991 q 473 980 462 991 q 500 952 485 968 q 570 889 543 903 q 610 850 610 866 q 595 830 610 834 q 558 823 580 825 q 511 818 536 821 q 475 805 486 814 q 447 777 464 796 q 402 725 431 758 q 243 542 287 591 q 505 244 427 322 q 553 228 515 232 q 617 220 591 224 q 642 196 642 216 q 628 173 642 184 q 593 149 613 161 q 521 94 533 112 q 470 56 494 56 q 450 89 446 56 z "},"":{"ha":1379,"x_min":109,"x_max":1265,"o":"m 336 612 l 243 613 q 197 589 222 613 q 160 553 173 564 q 132 542 146 542 q 109 563 109 542 l 115 600 q 116 631 116 614 l 111 741 q 166 737 111 797 q 214 696 193 708 q 239 684 235 684 l 382 684 q 735 683 594 683 l 1082 684 q 1089 722 1089 701 l 1084 785 q 1107 820 1084 820 q 1137 805 1122 820 q 1165 781 1152 791 q 1194 761 1179 771 q 1239 731 1221 743 q 1265 698 1265 714 q 1252 674 1265 682 q 1220 664 1239 667 q 1180 657 1201 660 q 1144 645 1159 654 l 1141 350 l 1141 323 q 1206 222 1141 287 q 1223 189 1223 201 q 1203 176 1223 176 l 1121 179 l 1034 175 q 1008 195 1008 175 q 1019 221 1008 208 q 1042 251 1029 235 q 1076 315 1076 292 q 1077 354 1077 338 l 1077 386 l 1076 545 l 1076 583 q 1077 620 1076 602 q 336 612 600 612 z "},"":{"ha":1021,"x_min":0,"x_max":0,"o":""},"":{"ha":1155,"x_min":75,"x_max":1080,"o":"m 75 562 q 153 836 75 713 q 461 1051 258 1001 q 719 1055 585 1081 q 932 953 842 1031 q 1080 551 1080 822 q 941 106 1080 256 q 598 -29 817 -29 q 240 101 382 -29 q 96 357 137 195 q 75 544 75 439 q 75 562 75 553 m 919 174 q 1010 550 1010 304 q 719 990 1010 926 q 602 1006 646 1006 q 508 997 557 1006 q 409 969 459 989 q 310 917 358 949 q 225 834 262 884 q 143 564 143 725 q 313 127 143 259 q 356 224 350 164 q 368 554 368 386 q 365 747 368 722 q 355 786 362 771 q 336 811 348 800 q 313 831 323 822 q 298 859 298 846 q 315 873 298 873 l 390 871 q 451 874 422 871 q 488 878 481 878 q 500 842 536 878 q 430 745 439 781 q 424 623 424 720 q 458 688 431 652 q 524 755 485 724 q 707 828 616 828 q 876 642 876 828 q 777 464 876 534 q 680 409 728 429 q 609 377 632 388 q 842 185 804 223 q 882 174 857 174 l 919 174 m 424 219 l 420 153 q 447 93 420 105 q 474 72 462 85 q 489 47 486 58 q 709 43 595 24 q 806 75 758 52 q 779 146 801 116 q 704 218 770 163 q 613 293 638 273 q 543 354 553 342 q 513 398 513 386 q 537 427 513 420 q 589 444 561 434 q 646 466 616 453 q 702 497 675 479 q 751 535 729 514 q 798 637 798 581 q 787 720 798 699 q 692 762 765 762 q 517 651 608 762 q 447 546 467 591 q 424 481 427 501 l 424 219 z "},"":{"ha":654,"x_min":90,"x_max":532,"o":"m 343 1145 l 233 1143 q 194 1127 216 1143 q 155 1101 171 1112 q 113 1096 130 1084 q 102 1120 102 1104 q 107 1147 102 1137 q 112 1171 112 1157 q 109 1196 112 1185 q 103 1217 106 1206 q 100 1268 90 1259 q 121 1278 111 1278 q 142 1270 132 1278 q 165 1252 153 1262 q 217 1215 201 1221 q 317 1216 285 1216 q 385 1216 359 1216 q 416 1218 410 1216 q 449 1243 422 1220 q 507 1277 483 1277 q 532 1244 532 1277 q 525 1211 532 1232 q 511 1146 511 1171 l 513 1111 q 494 1079 513 1079 q 461 1099 477 1079 q 435 1129 445 1119 q 412 1142 425 1139 q 343 1145 394 1145 z "},"":{"ha":479,"x_min":46,"x_max":422,"o":"m 289 797 q 278 794 289 797 q 250 789 267 791 q 224 787 233 787 q 199 790 216 787 q 162 799 182 792 q 122 818 142 806 q 84 852 101 831 q 46 976 46 900 q 102 1112 46 1053 q 271 1171 170 1186 q 413 1042 380 1154 q 422 967 422 1010 q 410 895 422 924 q 378 846 397 866 q 335 815 358 827 q 289 797 311 803 m 153 874 q 162 866 153 874 q 191 852 170 859 q 229 846 211 846 q 270 850 247 846 q 312 869 292 855 q 359 974 359 901 q 313 1089 359 1053 q 245 1114 281 1114 q 187 1103 210 1114 q 148 1074 164 1093 q 113 988 113 1035 q 124 915 113 941 q 153 874 136 889 z "},"":{"ha":997,"x_min":72,"x_max":926,"o":"m 134 -4 q 111 17 111 -4 l 119 64 q 127 182 127 113 q 161 197 127 229 l 220 140 q 241 126 233 126 q 456 119 288 123 l 461 498 l 210 499 q 181 486 194 498 q 155 459 168 473 q 130 433 142 445 q 102 420 117 420 q 79 449 72 420 q 87 524 87 480 l 79 609 q 100 633 79 633 q 140 605 115 633 q 178 565 165 578 q 203 553 191 553 l 462 551 l 459 777 q 418 840 457 804 q 391 866 404 853 q 378 893 378 879 q 390 913 378 907 q 437 920 402 920 l 488 918 q 518 922 505 918 l 538 927 q 555 930 547 929 q 591 905 589 930 q 568 858 591 887 q 534 812 545 828 q 522 779 523 795 l 515 551 l 773 551 q 807 566 792 553 q 836 593 822 578 q 862 621 849 608 q 890 634 876 633 q 910 623 904 635 q 916 575 916 610 l 915 524 q 920 489 915 505 q 926 457 925 474 q 902 422 926 424 q 854 445 884 422 q 808 478 825 467 q 776 491 792 490 l 515 497 l 515 117 q 648 115 595 115 l 714 115 q 739 116 727 115 q 766 129 751 117 q 794 155 781 141 q 822 179 808 168 q 854 191 836 191 q 878 154 878 191 l 876 105 l 880 8 q 873 -13 880 -4 q 853 -22 867 -22 q 825 -12 840 -22 q 795 12 810 -1 q 740 51 750 49 q 712 54 730 54 q 665 56 694 55 q 597 58 635 57 q 518 60 559 59 q 435 62 477 61 q 357 64 393 63 l 245 67 q 199 43 224 67 q 162 7 175 18 q 134 -4 149 -4 z "},"":{"ha":633,"x_min":15,"x_max":531,"o":"m 528 593 q 480 577 528 557 l 429 627 q 381 641 412 640 q 315 643 349 643 q 189 640 223 643 q 140 636 154 636 q 99 678 75 636 q 115 703 105 690 q 140 735 125 715 q 175 779 156 755 q 243 864 214 827 q 385 1085 350 998 q 394 1122 393 1105 q 385 1153 394 1139 q 362 1176 376 1166 q 246 1190 317 1208 q 215 1181 224 1184 q 200 1168 206 1179 q 190 1144 195 1158 q 176 1084 178 1111 q 151 1037 174 1037 q 136 1044 142 1037 q 117 1064 130 1052 q 90 1089 104 1076 q 39 1134 63 1114 q 15 1167 15 1153 q 103 1204 15 1196 q 141 1211 125 1207 q 174 1221 158 1215 q 208 1234 189 1227 q 408 1214 330 1277 q 433 1044 480 1155 q 269 803 400 966 q 193 702 193 709 q 222 695 193 694 l 381 699 q 421 721 393 699 q 469 770 449 743 q 513 808 498 808 q 531 770 531 808 l 524 713 q 523 682 523 701 l 528 593 z "},"":{"ha":698,"x_min":91,"x_max":590,"o":"m 547 1125 q 586 1105 586 1125 q 573 1078 586 1093 q 439 899 450 924 q 566 807 526 877 q 590 719 590 766 q 579 642 590 671 q 550 592 568 612 q 510 558 532 571 q 468 537 489 545 q 254 545 401 511 l 132 552 q 114 555 116 553 q 106 587 91 566 q 127 604 111 595 q 157 627 144 613 q 180 655 170 641 q 196 683 189 669 q 210 708 203 697 q 243 732 225 732 q 267 701 261 732 l 277 639 q 313 592 288 601 q 465 597 397 561 q 526 709 526 631 q 477 822 526 786 q 368 838 428 859 q 304 854 304 817 q 353 895 304 876 q 483 1050 392 911 l 488 1058 q 422 1059 453 1058 l 334 1059 q 267 1043 307 1059 q 219 1011 247 1035 q 178 980 191 988 q 152 971 165 971 q 139 991 139 971 l 144 1057 l 138 1163 q 184 1183 138 1219 q 275 1123 254 1128 q 460 1116 322 1109 l 547 1125 z "},"":{"ha":538,"x_min":102,"x_max":415,"o":"m 385 1099 l 317 1107 q 298 1104 307 1107 q 270 1087 290 1100 q 231 1061 250 1074 q 175 1021 183 1029 q 138 1002 156 1002 q 111 1010 119 1002 q 102 1029 102 1019 q 129 1069 102 1054 q 258 1164 155 1084 q 273 1208 265 1168 q 315 1276 287 1276 q 338 1263 330 1276 q 352 1233 345 1251 q 368 1193 359 1215 q 389 1158 376 1172 q 415 1120 415 1131 q 385 1099 415 1099 z "},"":{"ha":904,"x_min":110,"x_max":870,"o":"m 144 -209 q 111 -182 111 -209 q 136 -140 111 -165 q 169 -104 160 -114 q 187 -74 187 -85 l 182 585 l 184 816 q 168 844 183 829 q 136 875 153 858 q 110 915 110 901 q 139 942 110 942 q 177 938 156 942 q 229 933 198 933 l 307 937 q 334 920 334 937 q 296 865 334 898 q 254 815 256 833 q 247 688 250 796 q 243 523 243 579 q 247 397 243 466 q 262 273 250 328 q 357 152 288 152 q 591 480 516 152 q 623 749 623 623 l 624 786 q 602 862 624 835 q 578 884 592 873 q 552 918 552 903 q 599 945 552 945 l 655 943 q 707 947 690 943 q 753 932 753 956 q 739 901 753 918 q 717 874 725 885 q 703 852 709 864 q 687 766 689 829 q 680 628 685 704 q 669 488 674 552 q 656 275 656 323 q 703 136 656 170 q 751 146 721 121 q 778 184 772 164 q 788 209 783 204 q 798 214 793 213 q 829 209 821 223 q 837 183 837 195 q 861 97 837 142 q 870 68 870 81 q 848 50 870 50 l 806 58 q 752 60 781 60 l 715 60 q 597 311 580 60 l 563 218 q 503 132 536 158 q 357 81 439 81 q 260 129 296 81 q 243 170 248 146 q 249 -34 245 14 q 263 -98 253 -81 q 286 -131 274 -115 q 309 -159 298 -146 q 319 -182 319 -172 q 309 -200 319 -192 q 281 -208 299 -208 l 227 -201 l 144 -209 z "},"":{"ha":1004,"x_min":127,"x_max":930,"o":"m 350 -201 q 313 -173 313 -201 q 322 -151 313 -161 q 340 -130 331 -141 q 359 -106 349 -119 q 380 -81 370 -93 q 400 -45 400 -56 l 400 52 l 401 453 q 142 652 199 500 q 127 754 127 692 q 152 870 127 817 q 217 958 177 923 q 305 1014 256 994 q 400 1045 353 1035 q 720 1051 502 1067 q 775 1051 762 1048 q 799 1059 787 1054 l 891 1111 q 918 1078 930 1125 l 905 1038 q 903 1017 903 1027 l 909 942 q 903 914 909 924 q 888 903 897 903 q 857 927 873 903 q 824 965 841 951 q 794 986 808 979 q 748 994 777 994 q 745 127 748 269 q 741 -24 741 -16 l 741 -39 q 755 -91 741 -72 l 798 -147 q 774 -201 834 -201 l 680 -195 l 630 -201 q 604 -195 616 -201 q 593 -175 593 -188 q 602 -152 593 -161 q 620 -130 611 -142 q 640 -106 629 -119 q 659 -81 650 -93 q 680 -45 680 -56 l 683 634 q 680 998 683 844 q 473 996 523 1004 q 470 517 478 833 q 461 115 461 202 q 464 -19 461 27 q 471 -76 466 -65 q 484 -99 476 -87 l 521 -147 q 498 -201 557 -201 l 400 -195 l 350 -201 m 401 522 l 402 732 q 401 981 402 879 q 213 836 259 938 q 196 754 196 798 q 207 676 196 709 q 234 619 217 644 q 274 576 252 594 q 319 547 296 559 q 401 522 360 526 z "},"":{"ha":517,"x_min":146,"x_max":384,"o":"m 343 585 q 384 559 384 585 q 358 513 384 541 q 316 468 332 484 q 293 438 300 451 q 237 433 261 382 q 198 492 222 464 q 146 567 146 554 q 185 594 146 602 q 302 583 236 583 l 343 585 z "},"":{"ha":553,"x_min":29,"x_max":470,"o":"m 346 48 q 338 -23 316 -1 q 370 -42 347 -33 q 408 -63 393 -51 q 434 -92 422 -75 q 460 -182 470 -140 q 433 -246 450 -224 q 395 -279 417 -267 q 304 -298 357 -298 q 227 -290 252 -298 q 180 -274 201 -283 q 140 -258 159 -266 q 104 -251 121 -251 l 62 -257 q 29 -235 29 -257 q 45 -213 29 -225 q 115 -127 94 -174 q 139 -103 125 -103 q 159 -111 152 -103 q 166 -129 166 -119 l 165 -159 q 288 -236 165 -236 q 376 -182 361 -236 q 373 -128 385 -146 q 347 -99 361 -109 q 317 -81 333 -89 q 288 -64 301 -73 q 258 0 244 -37 q 286 62 279 53 q 312 82 297 82 q 336 74 327 82 q 346 48 346 65 z "},"":{"ha":569,"x_min":8,"x_max":421,"o":"m 389 647 l 350 648 q 265 645 286 648 q 197 661 197 636 q 256 737 197 677 q 293 803 288 770 q 298 867 298 836 q 298 920 298 897 q 297 967 298 943 l 295 1063 q 292 1171 293 1116 q 204 1112 211 1120 q 190 1091 197 1103 q 175 1065 183 1079 q 154 1016 157 1033 q 142 987 151 998 q 126 975 134 975 q 108 985 117 975 q 90 1011 99 996 q 71 1045 80 1027 q 54 1081 62 1064 q 25 1131 34 1122 q 8 1165 8 1150 q 37 1179 8 1185 q 174 1171 141 1158 q 258 1218 213 1186 q 309 1258 303 1250 q 326 1266 314 1266 q 347 1257 337 1266 q 356 1226 356 1248 q 353 814 346 857 q 399 705 365 730 q 421 673 421 687 q 389 647 421 647 z "},"":{"ha":782,"x_min":137,"x_max":675,"o":"m 569 570 q 554 547 569 570 q 499 498 538 524 q 418 472 459 472 q 346 476 376 471 q 287 495 315 481 q 232 534 258 509 q 188 598 207 559 q 146 826 146 684 q 221 1080 146 986 q 408 1169 292 1169 q 618 994 562 1169 q 638 840 638 929 q 619 684 638 750 q 569 570 600 617 m 278 590 q 291 574 278 590 q 339 546 305 557 q 404 535 372 534 q 464 554 435 535 q 517 610 493 572 q 571 847 571 695 q 514 1050 571 975 q 465 1096 491 1082 q 427 1110 439 1110 q 406 1109 414 1110 q 389 1107 398 1108 q 322 1083 348 1103 q 280 1044 297 1063 q 248 995 262 1024 q 216 834 216 927 q 233 682 216 741 q 278 590 250 623 m 675 163 q 639 129 675 119 q 606 149 633 131 q 533 195 544 193 q 507 196 522 197 q 471 196 492 196 q 422 195 449 195 q 368 193 395 194 q 282 189 313 191 q 237 174 252 186 q 209 147 222 161 q 161 110 174 110 q 137 139 137 110 q 139 167 137 152 q 143 197 141 182 q 149 252 149 241 l 143 300 q 149 317 143 311 q 163 323 155 323 q 184 311 170 323 q 213 285 198 299 q 260 246 254 246 q 522 259 382 246 q 589 301 549 262 l 616 328 q 639 340 628 340 q 665 289 665 340 l 663 232 q 669 190 663 210 q 675 163 675 170 z "},"":{"ha":1274,"x_min":182,"x_max":1103,"o":"m 375 89 q 367 168 375 89 q 371 192 367 183 q 397 227 376 200 q 455 295 419 253 q 645 518 597 461 q 654 536 654 523 q 635 576 654 561 q 556 669 595 627 q 485 747 517 711 q 393 888 393 849 l 399 959 q 374 991 399 991 q 351 980 363 991 q 325 952 340 968 q 255 889 281 903 q 214 850 214 866 q 230 830 214 834 q 267 823 245 825 q 314 818 289 821 q 350 805 338 814 q 377 777 361 796 q 423 725 394 758 q 581 542 538 591 q 320 244 398 322 q 272 228 310 232 q 208 220 233 224 q 182 196 182 216 q 197 173 182 184 q 232 149 212 161 q 304 94 292 112 q 354 56 330 56 q 375 89 378 56 m 824 89 q 816 168 824 89 q 820 192 816 183 q 846 227 825 200 q 904 295 868 253 q 1094 518 1046 461 q 1103 536 1103 523 q 1084 576 1103 561 q 1005 669 1044 627 q 934 747 966 711 q 842 888 842 849 l 848 959 q 823 991 848 991 q 800 980 812 991 q 774 952 789 968 q 704 889 730 903 q 663 850 663 866 q 679 830 663 834 q 716 823 694 825 q 763 818 738 821 q 799 805 787 814 q 826 777 810 796 q 871 725 843 758 q 1030 542 987 591 q 769 244 847 322 q 721 228 759 232 q 657 220 682 224 q 631 196 631 216 q 646 173 631 184 q 681 149 661 161 q 753 94 741 112 q 803 56 779 56 q 824 89 827 56 z "},"":{"ha":1232,"x_min":56,"x_max":1160,"o":"m 688 1000 q 701 1030 688 1030 q 743 1004 715 1030 q 806 960 771 978 q 869 930 840 943 q 917 909 898 918 q 935 889 935 899 q 890 859 935 869 q 772 817 790 839 l 686 707 q 377 320 377 314 l 377 321 q 350 187 357 283 q 326 178 349 161 q 257 242 297 199 q 209 292 216 285 q 180 327 180 317 q 218 352 180 347 q 274 359 256 357 q 304 364 292 361 q 341 378 325 369 q 386 417 358 387 q 450 490 414 447 q 526 584 486 532 q 604 684 566 635 q 723 849 676 781 q 694 976 734 863 q 688 1000 688 993 m 726 350 l 618 345 q 580 354 592 345 q 568 370 568 363 q 573 385 568 378 q 585 399 578 392 q 701 513 631 443 q 798 612 770 584 q 872 686 844 659 q 922 723 909 723 q 940 693 940 723 q 937 665 940 663 q 933 574 934 666 q 933 409 933 481 l 1017 410 q 1086 461 1057 431 q 1136 500 1124 500 q 1148 428 1160 500 q 1144 369 1144 404 l 1149 307 q 1121 296 1149 279 q 1036 338 1053 335 q 922 345 1000 345 q 920 262 920 283 q 920 210 920 240 q 921 158 920 180 q 928 123 922 137 q 959 77 935 105 q 991 28 991 41 q 949 6 991 6 l 909 7 l 849 7 q 790 31 790 7 q 803 54 790 42 q 830 84 817 66 q 850 111 844 101 q 859 132 856 121 q 871 212 870 163 l 875 347 q 726 350 749 350 m 721 435 q 719 409 695 409 l 798 409 q 871 410 831 409 l 877 594 q 721 435 814 528 m 437 647 l 397 648 q 313 645 334 648 q 244 661 244 636 q 304 737 244 677 q 341 803 336 770 q 346 867 346 836 q 346 920 346 897 q 345 967 345 943 l 342 1063 q 339 1171 340 1116 q 252 1112 258 1120 q 238 1091 245 1103 q 222 1065 231 1079 q 201 1016 204 1033 q 190 987 198 998 q 173 975 182 975 q 156 985 165 975 q 137 1011 146 996 q 118 1045 127 1027 q 101 1081 109 1064 q 73 1131 81 1122 q 56 1165 56 1150 q 84 1179 56 1185 q 221 1171 189 1158 q 306 1218 260 1186 q 356 1258 351 1250 q 373 1266 361 1266 q 394 1257 385 1266 q 404 1226 404 1248 q 400 814 393 857 q 447 705 412 730 q 469 673 469 687 q 437 647 469 647 z "},"":{"ha":1126,"x_min":90,"x_max":1143,"o":"m 688 1000 q 701 1030 688 1030 q 743 1004 715 1030 q 806 960 771 978 q 869 930 840 943 q 917 909 898 918 q 935 889 935 899 q 890 859 935 869 q 772 817 790 839 l 624 628 l 490 458 q 377 320 381 320 q 359 252 366 300 q 350 187 351 203 q 326 178 349 161 q 257 242 297 199 q 209 292 216 285 q 180 327 180 317 q 218 352 180 347 q 274 359 256 357 q 304 364 292 361 q 341 378 325 369 q 386 417 358 387 q 450 490 414 447 q 526 584 486 532 q 604 684 566 635 q 723 849 676 781 q 694 976 734 863 q 688 1000 688 993 m 471 647 l 431 648 q 347 645 368 648 q 278 661 278 636 q 338 737 278 677 q 375 803 370 770 q 380 867 380 836 q 379 920 380 897 q 378 967 379 943 l 376 1063 q 373 1171 374 1116 q 286 1112 292 1120 q 272 1091 279 1103 q 256 1065 264 1079 q 235 1016 238 1033 q 224 987 232 998 q 207 975 216 975 q 190 985 199 975 q 171 1011 180 996 q 152 1045 161 1027 q 135 1081 143 1064 q 106 1131 115 1122 q 90 1165 90 1150 q 118 1179 90 1185 q 255 1171 222 1158 q 339 1218 294 1186 q 390 1258 385 1250 q 407 1266 395 1266 q 428 1257 418 1266 q 437 1226 437 1248 q 434 814 427 857 q 481 705 446 730 q 503 673 503 687 q 471 647 503 647 m 1139 -43 q 1092 -59 1139 -79 l 1040 -9 q 992 5 1024 3 q 926 7 961 7 q 800 3 835 7 q 751 0 766 0 q 711 42 686 0 q 727 66 717 54 q 752 99 736 79 q 787 142 768 119 q 855 228 826 191 q 997 449 962 361 q 1005 486 1005 469 q 997 516 1006 503 q 974 540 988 530 q 858 553 929 572 q 827 545 836 548 q 812 532 818 543 q 802 508 806 522 q 788 448 789 475 q 763 401 785 401 q 748 408 754 401 q 729 428 741 416 q 701 453 716 439 q 651 497 675 478 q 627 531 627 517 q 715 568 627 559 q 753 575 736 571 q 785 585 770 578 q 819 598 801 591 q 1019 578 942 641 q 1044 408 1092 519 q 880 167 1012 330 q 804 66 804 73 q 833 59 804 58 l 993 63 q 1033 85 1005 63 q 1081 134 1061 107 q 1124 172 1110 172 q 1143 134 1143 172 l 1136 77 q 1135 46 1135 64 l 1139 -43 z "},"":{"ha":1304,"x_min":117,"x_max":1241,"o":"m 785 1000 q 799 1030 785 1030 q 841 1004 812 1030 q 903 960 869 978 q 967 930 938 943 q 1014 909 996 918 q 1033 889 1033 899 q 988 859 1033 869 q 870 817 888 839 l 784 707 q 475 320 475 314 l 475 321 q 448 187 454 283 q 423 178 446 161 q 354 242 395 199 q 307 292 314 285 q 278 327 278 317 q 316 352 278 347 q 372 359 353 357 q 401 364 390 361 q 439 378 422 369 q 484 417 456 387 q 548 490 512 447 q 624 584 584 532 q 701 684 664 635 q 821 849 774 781 q 791 976 832 863 q 785 1000 785 993 m 806 307 l 699 302 q 661 311 673 302 q 649 328 649 320 q 654 342 649 335 q 666 357 659 349 q 781 471 712 400 q 879 570 850 541 q 954 644 925 616 q 1002 680 989 680 q 1021 650 1021 680 q 1018 622 1021 621 q 1014 531 1015 623 q 1014 366 1014 439 l 1097 367 q 1166 418 1137 389 q 1217 457 1205 457 q 1229 385 1241 457 q 1225 326 1225 361 l 1230 264 q 1202 252 1230 236 q 1117 296 1133 292 q 1003 302 1081 302 q 1001 219 1001 241 q 1001 167 1001 197 q 1002 116 1001 137 q 1008 80 1003 94 q 1040 35 1015 62 q 1072 -14 1072 -1 q 1030 -37 1072 -37 l 990 -35 l 930 -36 q 871 -12 871 -36 q 884 12 871 -1 q 911 41 897 24 q 930 68 924 58 q 940 89 937 79 q 951 170 951 121 l 956 304 q 806 307 830 307 m 802 392 q 800 366 776 366 l 879 366 q 951 367 911 366 l 958 551 q 802 392 895 486 m 573 1207 q 612 1187 612 1207 q 599 1160 612 1175 q 465 981 475 1006 q 592 890 551 959 q 616 801 616 848 q 605 724 616 753 q 575 674 593 694 q 536 640 557 653 q 494 618 515 627 q 279 627 427 593 l 157 635 q 140 636 142 635 q 132 670 117 648 q 153 686 136 677 q 183 709 170 695 q 205 737 196 723 q 222 765 215 751 q 236 790 229 779 q 269 814 251 814 q 293 783 287 814 l 302 720 q 338 674 314 683 q 490 680 423 643 q 551 791 551 713 q 503 904 551 868 q 393 920 454 941 q 330 937 330 899 q 379 978 330 958 q 509 1132 418 994 l 514 1140 q 448 1141 479 1140 l 360 1141 q 293 1125 333 1141 q 244 1094 273 1117 q 204 1062 216 1070 q 178 1053 191 1053 q 165 1073 165 1053 l 170 1139 l 163 1245 q 210 1265 163 1301 q 301 1205 280 1210 q 486 1199 348 1192 l 573 1207 z "},"":{"ha":789,"x_min":93,"x_max":708,"o":"m 387 739 l 442 743 q 470 730 470 743 q 458 707 470 717 q 433 686 446 698 q 395 614 395 656 q 362 390 395 467 q 282 275 337 332 q 238 230 260 252 q 199 185 216 209 q 160 73 160 130 q 173 -18 160 16 q 210 -76 186 -52 q 347 -123 260 -123 q 542 -5 481 -123 q 531 91 563 35 q 543 121 515 121 q 583 109 556 121 q 661 86 637 84 q 696 80 685 87 q 708 63 708 73 q 698 46 708 54 q 673 30 687 39 q 615 -17 630 5 q 573 -71 600 -40 q 513 -127 547 -102 q 282 -182 406 -207 q 189 -143 225 -171 q 134 -88 153 -115 q 93 52 93 -30 q 178 258 93 174 q 267 352 246 325 q 299 408 288 379 q 315 467 309 437 q 324 528 321 498 q 329 644 337 627 q 313 670 321 660 l 276 711 q 267 730 267 720 q 327 743 267 756 q 387 739 349 739 m 299 922 q 262 943 262 922 q 286 986 262 958 q 318 1028 309 1015 q 334 1053 326 1041 q 361 1079 351 1079 q 379 1065 371 1079 q 401 1036 387 1052 q 429 1004 414 1020 q 470 953 467 959 q 473 939 473 947 q 448 922 473 922 l 391 925 l 299 922 z "},"":{"ha":1286,"x_min":56,"x_max":1219,"o":"m 271 -52 q 244 -77 271 -77 q 209 -63 224 -77 q 169 -39 194 -50 q 118 -18 143 -28 q 56 21 56 7 q 78 50 56 35 q 116 69 100 64 q 147 79 132 73 q 208 142 180 93 q 378 499 256 235 l 248 499 q 211 497 224 499 q 180 481 197 494 q 148 452 163 467 q 120 426 133 437 q 94 414 106 414 q 76 462 64 414 q 85 547 85 498 l 81 602 q 107 653 81 653 q 137 633 121 653 q 225 558 195 558 l 404 555 q 622 1052 604 994 q 639 1144 639 1110 q 649 1158 639 1154 q 670 1163 660 1163 q 703 1136 694 1163 q 732 1048 711 1109 q 780 906 753 986 q 902 552 858 677 q 1051 559 1031 549 q 1085 581 1071 570 q 1125 622 1112 602 q 1147 644 1139 641 q 1162 646 1155 646 q 1184 601 1197 646 q 1170 517 1171 556 q 1168 452 1169 478 q 1163 410 1168 426 q 1143 395 1159 395 q 1129 400 1137 395 q 1117 413 1120 405 l 1099 453 q 1039 499 1080 492 l 921 499 q 1096 81 1056 118 q 1124 64 1109 70 q 1149 55 1139 59 q 1171 47 1160 50 q 1190 40 1181 43 q 1197 5 1219 27 q 1144 -19 1189 -3 q 1082 -42 1099 -35 l 1005 -79 q 963 -65 963 -94 q 968 -34 963 -44 q 980 -9 974 -24 q 991 24 985 6 q 1004 98 1009 78 q 857 499 979 159 l 446 499 q 237 60 335 260 q 241 26 232 46 q 271 -52 271 -31 m 471 554 q 839 551 653 551 l 745 815 q 673 1017 680 998 q 471 554 617 869 m 497 1259 q 467 1280 467 1259 q 485 1311 467 1293 q 513 1351 504 1330 q 529 1391 522 1373 q 544 1423 536 1410 q 567 1436 551 1436 q 590 1421 583 1436 q 602 1387 597 1406 q 610 1349 606 1367 q 622 1325 614 1331 q 646 1307 629 1320 q 681 1280 662 1295 q 749 1232 730 1242 q 779 1196 779 1214 q 749 1162 779 1162 q 701 1186 726 1162 q 641 1229 690 1198 q 583 1264 591 1260 q 564 1267 575 1267 l 497 1259 z "},"":{"ha":1286,"x_min":56,"x_max":1219,"o":"m 271 -52 q 244 -77 271 -77 q 209 -63 224 -77 q 169 -39 194 -50 q 118 -18 143 -28 q 56 21 56 7 q 78 50 56 35 q 116 69 100 64 q 147 79 132 73 q 208 142 180 93 q 378 499 256 235 l 248 499 q 211 497 224 499 q 180 481 197 494 q 148 452 163 467 q 120 426 133 437 q 94 414 106 414 q 76 462 64 414 q 85 547 85 498 l 81 602 q 107 653 81 653 q 137 633 121 653 q 225 558 195 558 l 404 555 q 622 1052 604 994 q 639 1144 639 1110 q 649 1158 639 1154 q 670 1163 660 1163 q 703 1136 694 1163 q 732 1048 711 1109 q 780 906 753 986 q 902 552 858 677 q 1051 559 1031 549 q 1085 581 1071 570 q 1125 622 1112 602 q 1147 644 1139 641 q 1162 646 1155 646 q 1184 601 1197 646 q 1170 517 1171 556 q 1168 452 1169 478 q 1163 410 1168 426 q 1143 395 1159 395 q 1129 400 1137 395 q 1117 413 1120 405 l 1099 453 q 1039 499 1080 492 l 921 499 q 1096 81 1056 118 q 1124 64 1109 70 q 1149 55 1139 59 q 1171 47 1160 50 q 1190 40 1181 43 q 1197 5 1219 27 q 1144 -19 1189 -3 q 1082 -42 1099 -35 l 1005 -79 q 963 -65 963 -94 q 968 -34 963 -44 q 980 -9 974 -24 q 991 24 985 6 q 1004 98 1009 78 q 857 499 979 159 l 446 499 q 237 60 335 260 q 241 26 232 46 q 271 -52 271 -31 m 471 554 q 839 551 653 551 l 745 815 q 673 1017 680 998 q 471 554 617 869 m 819 1257 l 751 1266 q 732 1262 741 1266 q 704 1246 724 1259 q 665 1220 684 1233 q 609 1179 617 1187 q 572 1160 590 1160 q 545 1169 553 1160 q 536 1189 536 1178 q 563 1227 536 1213 q 692 1323 589 1242 q 707 1367 699 1327 q 749 1434 721 1434 q 772 1422 764 1434 q 786 1392 779 1410 q 802 1352 793 1373 q 823 1317 810 1331 q 849 1278 849 1290 q 819 1257 849 1257 z "},"":{"ha":1286,"x_min":56,"x_max":1219,"o":"m 271 -52 q 244 -77 271 -77 q 209 -63 224 -77 q 169 -39 194 -50 q 118 -18 143 -28 q 56 21 56 7 q 78 50 56 35 q 116 69 100 64 q 147 79 132 73 q 208 142 180 93 q 378 499 256 235 l 248 499 q 211 497 224 499 q 180 481 197 494 q 148 452 163 467 q 120 426 133 437 q 94 414 106 414 q 76 462 64 414 q 85 547 85 498 l 81 602 q 107 653 81 653 q 137 633 121 653 q 225 558 195 558 l 404 555 q 622 1052 604 994 q 639 1144 639 1110 q 649 1158 639 1154 q 670 1163 660 1163 q 703 1136 694 1163 q 732 1048 711 1109 q 780 906 753 986 q 902 552 858 677 q 1051 559 1031 549 q 1085 581 1071 570 q 1125 622 1112 602 q 1147 644 1139 641 q 1162 646 1155 646 q 1184 601 1197 646 q 1170 517 1171 556 q 1168 452 1169 478 q 1163 410 1168 426 q 1143 395 1159 395 q 1129 400 1137 395 q 1117 413 1120 405 l 1099 453 q 1039 499 1080 492 l 921 499 q 1096 81 1056 118 q 1124 64 1109 70 q 1149 55 1139 59 q 1171 47 1160 50 q 1190 40 1181 43 q 1197 5 1219 27 q 1144 -19 1189 -3 q 1082 -42 1099 -35 l 1005 -79 q 963 -65 963 -94 q 968 -34 963 -44 q 980 -9 974 -24 q 991 24 985 6 q 1004 98 1009 78 q 857 499 979 159 l 446 499 q 237 60 335 260 q 241 26 232 46 q 271 -52 271 -31 m 471 554 q 839 551 653 551 l 745 815 q 673 1017 680 998 q 471 554 617 869 m 520 1207 l 522 1191 q 503 1152 522 1162 q 430 1218 479 1138 q 405 1240 425 1228 q 377 1259 385 1251 q 370 1278 370 1266 q 410 1302 370 1302 l 465 1297 q 556 1341 502 1297 q 650 1412 587 1367 q 690 1413 668 1432 q 731 1380 713 1394 q 767 1355 749 1367 q 854 1310 789 1342 q 906 1300 876 1301 q 947 1296 936 1299 q 975 1273 975 1289 q 960 1245 975 1255 q 918 1209 927 1221 l 888 1164 q 862 1141 872 1141 q 834 1175 838 1141 q 822 1234 829 1223 q 810 1252 815 1245 q 740 1293 776 1273 q 669 1336 705 1312 l 597 1293 q 543 1255 589 1287 q 520 1207 520 1237 z "},"":{"ha":1286,"x_min":56,"x_max":1219,"o":"m 271 -52 q 244 -77 271 -77 q 209 -63 224 -77 q 169 -39 194 -50 q 118 -18 143 -28 q 56 21 56 7 q 78 50 56 35 q 116 69 100 64 q 147 79 132 73 q 208 142 180 93 q 378 499 256 235 l 248 499 q 211 497 224 499 q 180 481 197 494 q 148 452 163 467 q 120 426 133 437 q 94 414 106 414 q 76 462 64 414 q 85 547 85 498 l 81 602 q 107 653 81 653 q 137 633 121 653 q 225 558 195 558 l 404 555 q 622 1052 604 994 q 639 1144 639 1110 q 649 1158 639 1154 q 670 1163 660 1163 q 703 1136 694 1163 q 732 1048 711 1109 q 780 906 753 986 q 902 552 858 677 q 1051 559 1031 549 q 1085 581 1071 570 q 1125 622 1112 602 q 1147 644 1139 641 q 1162 646 1155 646 q 1184 601 1197 646 q 1170 517 1171 556 q 1168 452 1169 478 q 1163 410 1168 426 q 1143 395 1159 395 q 1129 400 1137 395 q 1117 413 1120 405 l 1099 453 q 1039 499 1080 492 l 921 499 q 1096 81 1056 118 q 1124 64 1109 70 q 1149 55 1139 59 q 1171 47 1160 50 q 1190 40 1181 43 q 1197 5 1219 27 q 1144 -19 1189 -3 q 1082 -42 1099 -35 l 1005 -79 q 963 -65 963 -94 q 968 -34 963 -44 q 980 -9 974 -24 q 991 24 985 6 q 1004 98 1009 78 q 857 499 979 159 l 446 499 q 237 60 335 260 q 241 26 232 46 q 271 -52 271 -31 m 471 554 q 839 551 653 551 l 745 815 q 673 1017 680 998 q 471 554 617 869 m 495 1190 q 477 1165 495 1165 q 454 1174 466 1165 q 436 1193 441 1183 q 425 1212 431 1202 q 410 1230 419 1221 q 365 1256 389 1249 q 328 1282 328 1265 q 336 1300 328 1292 q 356 1308 345 1308 l 378 1307 q 433 1318 422 1309 q 453 1340 443 1326 q 480 1367 464 1353 q 578 1400 521 1400 q 683 1347 640 1400 q 706 1317 694 1332 q 784 1267 745 1267 q 852 1291 826 1267 q 857 1392 876 1313 q 860 1425 852 1415 q 877 1435 869 1435 q 907 1413 895 1434 q 983 1348 937 1364 q 1013 1317 1013 1335 q 1003 1298 1013 1306 q 970 1289 992 1291 q 933 1285 947 1287 q 914 1275 920 1282 q 898 1256 909 1267 q 869 1234 886 1245 q 747 1209 808 1197 q 690 1239 713 1216 q 655 1277 667 1262 q 631 1306 643 1293 q 575 1340 600 1340 q 536 1334 551 1340 q 511 1318 521 1327 q 486 1286 490 1300 q 482 1261 482 1272 l 495 1190 z "},"":{"ha":1286,"x_min":56,"x_max":1219,"o":"m 271 -52 q 244 -77 271 -77 q 209 -63 224 -77 q 169 -39 194 -50 q 118 -18 143 -28 q 56 21 56 7 q 78 50 56 35 q 116 69 100 64 q 147 79 132 73 q 208 142 180 93 q 378 499 256 235 l 248 499 q 211 497 224 499 q 180 481 197 494 q 148 452 163 467 q 120 426 133 437 q 94 414 106 414 q 76 462 64 414 q 85 547 85 498 l 81 602 q 107 653 81 653 q 137 633 121 653 q 225 558 195 558 l 404 555 q 622 1052 604 994 q 639 1144 639 1110 q 649 1158 639 1154 q 670 1163 660 1163 q 703 1136 694 1163 q 732 1048 711 1109 q 780 906 753 986 q 902 552 858 677 q 1051 559 1031 549 q 1085 581 1071 570 q 1125 622 1112 602 q 1147 644 1139 641 q 1162 646 1155 646 q 1184 601 1197 646 q 1170 517 1171 556 q 1168 452 1169 478 q 1163 410 1168 426 q 1143 395 1159 395 q 1129 400 1137 395 q 1117 413 1120 405 l 1099 453 q 1039 499 1080 492 l 921 499 q 1096 81 1056 118 q 1124 64 1109 70 q 1149 55 1139 59 q 1171 47 1160 50 q 1190 40 1181 43 q 1197 5 1219 27 q 1144 -19 1189 -3 q 1082 -42 1099 -35 l 1005 -79 q 963 -65 963 -94 q 968 -34 963 -44 q 980 -9 974 -24 q 991 24 985 6 q 1004 98 1009 78 q 857 499 979 159 l 446 499 q 237 60 335 260 q 241 26 232 46 q 271 -52 271 -31 m 471 554 q 839 551 653 551 l 745 815 q 673 1017 680 998 q 471 554 617 869 m 751 1367 q 782 1362 756 1367 q 899 1357 808 1357 q 936 1334 936 1357 q 913 1293 936 1317 q 857 1228 861 1237 q 814 1211 838 1196 q 805 1223 808 1215 q 793 1242 801 1231 q 774 1267 785 1253 q 726 1346 726 1328 q 751 1367 726 1367 m 622 1334 q 599 1292 622 1316 q 542 1228 548 1238 q 486 1224 513 1183 l 432 1302 q 437 1367 391 1367 l 475 1362 q 574 1357 526 1357 q 622 1334 622 1357 z "},"":{"ha":1286,"x_min":56,"x_max":1219,"o":"m 271 -52 q 244 -77 271 -77 q 209 -63 224 -77 q 169 -39 194 -50 q 118 -18 143 -28 q 56 21 56 7 q 78 50 56 35 q 116 69 100 64 q 147 79 132 73 q 208 142 180 93 q 378 499 256 235 l 248 499 q 211 497 224 499 q 180 481 197 494 q 148 452 163 467 q 120 426 133 437 q 94 414 106 414 q 76 462 64 414 q 85 547 85 498 l 81 602 q 107 653 81 653 q 137 633 121 653 q 225 558 195 558 l 404 555 q 622 1052 604 994 q 639 1144 639 1110 q 649 1158 639 1154 q 670 1163 660 1163 q 703 1136 694 1163 q 732 1048 711 1109 q 780 906 753 986 q 902 552 858 677 q 1051 559 1031 549 q 1085 581 1071 570 q 1125 622 1112 602 q 1147 644 1139 641 q 1162 646 1155 646 q 1184 601 1197 646 q 1170 517 1171 556 q 1168 452 1169 478 q 1163 410 1168 426 q 1143 395 1159 395 q 1129 400 1137 395 q 1117 413 1120 405 l 1099 453 q 1039 499 1080 492 l 921 499 q 1096 81 1056 118 q 1124 64 1109 70 q 1149 55 1139 59 q 1171 47 1160 50 q 1190 40 1181 43 q 1197 5 1219 27 q 1144 -19 1189 -3 q 1082 -42 1099 -35 l 1005 -79 q 963 -65 963 -94 q 968 -34 963 -44 q 980 -9 974 -24 q 991 24 985 6 q 1004 98 1009 78 q 857 499 979 159 l 446 499 q 237 60 335 260 q 241 26 232 46 q 271 -52 271 -31 m 471 554 q 839 551 653 551 l 745 815 q 673 1017 680 998 q 471 554 617 869 m 726 1113 q 715 1110 726 1113 q 687 1106 704 1107 q 661 1105 669 1105 q 636 1107 653 1105 q 599 1115 619 1109 q 558 1131 579 1120 q 522 1160 538 1142 q 483 1266 483 1202 q 538 1384 483 1333 q 709 1434 606 1447 q 850 1322 818 1419 q 859 1257 859 1294 q 847 1196 859 1221 q 814 1154 834 1171 q 771 1127 795 1137 q 726 1113 748 1118 m 787 1267 q 774 1317 787 1297 q 744 1350 762 1337 q 680 1371 712 1371 q 627 1362 648 1371 q 591 1339 606 1354 q 559 1276 559 1310 q 600 1187 559 1221 q 695 1166 640 1153 q 787 1267 787 1188 z "},"":{"ha":1293,"x_min":-7,"x_max":1247,"o":"m 216 105 q 214 86 214 99 q 235 -27 214 73 q 210 -62 241 -62 q 177 -50 189 -62 q 148 -26 165 -37 q 111 -4 132 -16 q 47 31 68 21 q 14 77 -7 56 q 92 111 42 107 l 92 111 q 172 163 117 113 q 256 273 192 182 q 420 515 384 460 q 243 511 259 515 q 211 496 227 508 q 182 471 196 484 q 132 439 148 439 q 113 463 113 439 q 123 567 113 463 l 120 618 q 144 665 120 665 q 181 635 156 665 q 252 572 233 572 q 460 567 257 572 q 711 967 659 859 l 673 1009 l 625 1053 q 623 1061 623 1055 q 655 1080 623 1080 q 715 1086 674 1080 l 774 1095 q 834 1077 834 1103 q 824 1049 833 1061 q 805 1024 814 1037 q 792 1000 795 1010 q 787 979 788 990 q 783 932 785 968 q 919 962 846 945 q 1067 1006 993 978 q 1135 1089 1094 1017 q 1167 1114 1150 1114 q 1190 1099 1184 1114 q 1200 1061 1196 1084 q 1227 958 1212 985 q 1243 918 1243 930 q 1236 901 1243 905 q 1221 896 1228 896 q 1203 903 1214 896 q 1095 944 1134 949 q 1011 928 1055 939 q 925 906 968 918 l 779 865 l 765 563 l 916 564 l 1046 564 q 1143 622 1101 564 q 1159 636 1149 630 q 1176 643 1169 643 q 1196 602 1207 643 q 1179 469 1179 545 l 1181 441 q 1175 418 1181 429 q 1161 407 1169 407 q 1134 424 1146 407 l 1105 465 q 1075 496 1087 491 q 978 507 1048 507 l 810 505 l 762 506 l 749 138 q 924 61 799 113 q 1073 -2 1049 9 q 1107 -14 1097 -14 q 1143 -4 1118 -14 q 1190 14 1168 6 q 1231 24 1221 24 q 1247 6 1247 24 q 1238 -27 1247 -11 q 1214 -64 1228 -44 q 1163 -149 1173 -120 q 1128 -193 1147 -193 q 1093 -130 1105 -193 q 1057 -60 1082 -74 q 992 -28 1033 -47 q 907 8 952 -10 q 746 73 823 43 l 746 57 q 784 -7 746 21 q 809 -25 798 -17 q 821 -42 821 -33 q 781 -64 821 -62 q 714 -70 740 -66 q 671 -75 688 -73 q 626 -82 632 -82 q 595 -68 595 -82 q 607 -38 595 -50 q 628 -13 618 -27 q 650 19 639 2 q 677 84 675 62 q 680 152 678 106 q 685 254 682 197 l 695 507 q 496 513 532 511 q 290 210 350 295 q 216 105 229 124 m 536 565 q 698 564 620 564 l 718 859 l 678 793 q 536 565 600 661 z "},"":{"ha":1021,"x_min":52,"x_max":912,"o":"m 247 -257 q 214 -235 214 -257 q 229 -213 214 -225 q 299 -127 278 -174 q 323 -103 310 -103 q 343 -111 336 -103 q 351 -129 351 -119 l 349 -159 q 473 -236 349 -236 q 560 -182 545 -236 q 557 -128 570 -146 q 531 -99 545 -109 q 502 -81 517 -89 q 472 -64 486 -73 q 439 -17 439 -43 l 439 -9 q 458 36 439 -7 q 206 148 324 50 q 73 354 113 224 q 52 508 52 421 q 72 661 52 594 q 126 780 92 728 q 207 870 161 832 q 307 934 254 908 q 417 977 360 960 q 531 1002 475 994 q 688 1019 627 1019 q 764 1024 749 1020 q 792 1036 779 1029 q 831 1067 821 1051 q 873 1095 848 1095 q 898 1072 898 1095 l 888 1031 q 873 907 873 963 l 876 878 q 857 854 876 854 q 821 881 840 854 q 782 924 802 909 q 741 945 762 939 q 643 956 710 956 q 511 943 575 956 q 389 907 446 931 q 282 847 331 883 q 197 763 233 811 q 120 523 120 661 q 271 179 120 291 q 566 89 393 89 q 785 147 726 89 q 813 186 800 161 q 846 230 826 212 q 880 248 865 248 q 903 209 903 248 l 898 142 q 905 65 898 103 q 912 20 912 28 q 892 -10 912 -10 q 849 10 873 -10 q 814 36 825 30 q 769 50 793 48 q 729 47 746 51 q 688 41 711 44 q 585 30 619 30 l 541 30 q 522 31 531 30 q 522 -23 503 -4 q 554 -42 532 -33 q 592 -63 577 -51 q 618 -92 607 -75 q 644 -182 654 -140 q 618 -246 634 -224 q 579 -279 602 -267 q 489 -298 541 -298 q 411 -290 436 -298 q 365 -274 386 -283 q 325 -258 343 -266 q 289 -251 306 -251 l 247 -257 z "},"":{"ha":874,"x_min":72,"x_max":770,"o":"m 570 470 q 334 470 458 470 q 140 461 210 470 l 140 446 q 224 161 143 271 q 502 1 313 40 q 614 -18 593 -18 q 654 -9 636 -18 q 688 12 673 1 q 715 33 703 24 q 739 43 728 43 q 758 20 758 43 q 747 -31 758 -2 q 719 -158 722 -94 q 698 -188 718 -188 q 630 -122 671 -188 q 557 -76 606 -84 q 88 290 167 -20 q 72 452 72 357 q 101 630 72 547 q 178 774 131 712 q 285 879 226 836 q 404 949 344 922 q 608 1006 511 999 q 679 1059 642 1008 q 736 1109 715 1109 q 758 1063 770 1109 q 765 928 749 1025 q 762 893 769 903 q 746 883 754 883 q 713 907 729 883 q 630 945 686 945 q 520 931 566 945 q 429 894 474 918 q 338 836 384 871 q 254 757 293 802 q 146 535 168 655 q 187 534 165 534 l 235 534 q 575 542 355 534 q 612 562 588 543 q 701 616 684 616 q 725 585 725 616 l 705 495 q 702 452 702 475 l 703 425 q 681 391 703 391 q 656 403 667 391 q 633 430 645 415 q 570 470 601 468 m 313 1201 q 282 1222 282 1201 q 301 1254 282 1235 q 328 1294 319 1272 q 344 1334 337 1315 q 359 1365 351 1352 q 382 1378 367 1378 q 406 1363 398 1378 q 417 1329 413 1348 q 426 1291 422 1310 q 437 1267 430 1273 q 461 1250 445 1262 q 496 1222 477 1237 q 564 1174 546 1184 q 595 1139 595 1156 q 564 1104 595 1104 q 517 1128 541 1104 q 456 1171 505 1140 q 399 1206 407 1202 q 380 1210 391 1210 l 313 1201 z "},"":{"ha":874,"x_min":72,"x_max":770,"o":"m 570 470 q 334 470 458 470 q 140 461 210 470 l 140 446 q 224 161 143 271 q 502 1 313 40 q 614 -18 593 -18 q 654 -9 636 -18 q 688 12 673 1 q 715 33 703 24 q 739 43 728 43 q 758 20 758 43 q 747 -31 758 -2 q 719 -158 722 -94 q 698 -188 718 -188 q 630 -122 671 -188 q 557 -76 606 -84 q 88 290 167 -20 q 72 452 72 357 q 101 630 72 547 q 178 774 131 712 q 285 879 226 836 q 404 949 344 922 q 608 1006 511 999 q 679 1059 642 1008 q 736 1109 715 1109 q 758 1063 770 1109 q 765 928 749 1025 q 762 893 769 903 q 746 883 754 883 q 713 907 729 883 q 630 945 686 945 q 520 931 566 945 q 429 894 474 918 q 338 836 384 871 q 254 757 293 802 q 146 535 168 655 q 187 534 165 534 l 235 534 q 575 542 355 534 q 612 562 588 543 q 701 616 684 616 q 725 585 725 616 l 705 495 q 702 452 702 475 l 703 425 q 681 391 703 391 q 656 403 667 391 q 633 430 645 415 q 570 470 601 468 m 724 1238 l 657 1246 q 638 1243 646 1246 q 610 1226 630 1239 q 570 1200 589 1213 q 515 1160 523 1168 q 477 1141 496 1141 q 451 1149 459 1141 q 442 1169 442 1158 q 469 1208 442 1193 q 598 1303 494 1223 q 612 1347 605 1308 q 654 1415 627 1415 q 677 1402 670 1415 q 692 1372 685 1390 q 707 1332 699 1354 q 729 1297 716 1311 q 755 1259 755 1270 q 724 1238 755 1238 z "},"":{"ha":874,"x_min":72,"x_max":865,"o":"m 570 470 q 334 470 458 470 q 140 461 210 470 l 140 446 q 224 161 143 271 q 502 1 313 40 q 614 -18 593 -18 q 654 -9 636 -18 q 688 12 673 1 q 715 33 703 24 q 739 43 728 43 q 758 20 758 43 q 747 -31 758 -2 q 719 -158 722 -94 q 698 -188 718 -188 q 630 -122 671 -188 q 557 -76 606 -84 q 88 290 167 -20 q 72 452 72 357 q 101 630 72 547 q 178 774 131 712 q 285 879 226 836 q 404 949 344 922 q 608 1006 511 999 q 679 1059 642 1008 q 736 1109 715 1109 q 758 1063 770 1109 q 765 928 749 1025 q 762 893 769 903 q 746 883 754 883 q 713 907 729 883 q 630 945 686 945 q 520 931 566 945 q 429 894 474 918 q 338 836 384 871 q 254 757 293 802 q 146 535 168 655 q 187 534 165 534 l 235 534 q 575 542 355 534 q 612 562 588 543 q 701 616 684 616 q 725 585 725 616 l 705 495 q 702 452 702 475 l 703 425 q 681 391 703 391 q 656 403 667 391 q 633 430 645 415 q 570 470 601 468 m 410 1201 l 412 1185 q 393 1145 412 1156 q 320 1212 369 1132 q 295 1234 315 1222 q 268 1253 275 1245 q 260 1272 260 1260 q 300 1296 260 1296 l 355 1291 q 446 1335 392 1291 q 541 1406 477 1360 q 581 1407 558 1426 q 621 1374 603 1388 q 657 1349 639 1360 q 744 1303 679 1336 q 796 1294 766 1295 q 838 1290 826 1293 q 865 1267 865 1283 q 850 1239 865 1249 q 808 1203 817 1215 l 778 1158 q 752 1135 762 1135 q 724 1168 728 1135 q 712 1228 719 1217 q 701 1246 705 1239 q 630 1286 666 1267 q 559 1330 595 1306 l 488 1286 q 433 1249 479 1281 q 410 1201 410 1231 z "},"":{"ha":874,"x_min":72,"x_max":770,"o":"m 570 470 q 334 470 458 470 q 140 461 210 470 l 140 446 q 224 161 143 271 q 502 1 313 40 q 614 -18 593 -18 q 654 -9 636 -18 q 688 12 673 1 q 715 33 703 24 q 739 43 728 43 q 758 20 758 43 q 747 -31 758 -2 q 719 -158 722 -94 q 698 -188 718 -188 q 630 -122 671 -188 q 557 -76 606 -84 q 88 290 167 -20 q 72 452 72 357 q 101 630 72 547 q 178 774 131 712 q 285 879 226 836 q 404 949 344 922 q 608 1006 511 999 q 679 1059 642 1008 q 736 1109 715 1109 q 758 1063 770 1109 q 765 928 749 1025 q 762 893 769 903 q 746 883 754 883 q 713 907 729 883 q 630 945 686 945 q 520 931 566 945 q 429 894 474 918 q 338 836 384 871 q 254 757 293 802 q 146 535 168 655 q 187 534 165 534 l 235 534 q 575 542 355 534 q 612 562 588 543 q 701 616 684 616 q 725 585 725 616 l 705 495 q 702 452 702 475 l 703 425 q 681 391 703 391 q 656 403 667 391 q 633 430 645 415 q 570 470 601 468 m 562 1304 q 593 1299 568 1304 q 710 1295 619 1295 q 747 1272 747 1295 q 725 1230 747 1255 q 668 1166 673 1175 q 626 1149 649 1134 q 616 1161 620 1153 q 604 1179 612 1168 q 585 1204 596 1190 q 537 1284 537 1265 q 562 1304 537 1304 m 433 1272 q 410 1230 433 1253 q 353 1166 359 1176 q 298 1162 325 1121 l 243 1240 q 249 1304 202 1304 l 286 1299 q 385 1295 337 1295 q 433 1272 433 1295 z "},"":{"ha":472,"x_min":39,"x_max":365,"o":"m 205 1 l 155 -6 q 118 22 118 -6 q 128 44 119 34 q 145 65 136 54 q 165 89 154 77 q 185 113 176 102 q 205 151 205 139 l 208 623 q 205 912 208 785 q 159 977 205 933 q 119 1034 119 1014 q 178 1048 119 1063 q 273 1044 227 1036 q 342 1053 319 1053 q 365 1034 365 1053 q 341 1001 365 1019 q 303 968 318 983 q 281 941 289 954 q 271 899 271 924 l 273 567 l 267 180 l 267 160 q 268 134 267 151 q 286 96 269 118 q 316 57 303 75 q 337 16 337 28 q 300 -5 337 -5 l 205 1 m 69 1192 q 39 1213 39 1192 q 57 1245 39 1226 q 85 1285 76 1263 q 101 1325 94 1306 q 116 1356 108 1343 q 139 1369 123 1369 q 162 1354 155 1369 q 174 1320 170 1339 q 182 1282 178 1301 q 194 1259 186 1264 q 218 1241 201 1253 q 253 1213 234 1228 q 321 1165 302 1175 q 351 1130 351 1147 q 321 1095 351 1095 q 273 1120 298 1095 q 213 1162 262 1131 q 155 1197 163 1194 q 136 1201 147 1201 l 69 1192 z "},"":{"ha":472,"x_min":109,"x_max":421,"o":"m 205 1 l 155 -6 q 118 22 118 -6 q 128 44 119 34 q 145 65 136 54 q 165 89 154 77 q 185 113 176 102 q 205 151 205 139 l 208 623 q 205 912 208 785 q 159 977 205 933 q 119 1034 119 1014 q 178 1048 119 1063 q 273 1044 227 1036 q 342 1053 319 1053 q 365 1034 365 1053 q 341 1001 365 1019 q 303 968 318 983 q 281 941 289 954 q 271 899 271 924 l 273 567 l 267 180 l 267 160 q 268 134 267 151 q 286 96 269 118 q 316 57 303 75 q 337 16 337 28 q 300 -5 337 -5 l 205 1 m 391 1211 l 323 1219 q 304 1216 313 1219 q 276 1199 296 1212 q 237 1173 256 1186 q 181 1133 189 1141 q 144 1114 162 1114 q 117 1122 125 1114 q 109 1142 109 1131 q 135 1181 109 1166 q 264 1276 161 1196 q 279 1320 271 1280 q 321 1388 293 1388 q 344 1375 336 1388 q 358 1345 351 1363 q 374 1305 365 1326 q 395 1270 382 1284 q 421 1232 421 1243 q 391 1211 421 1211 z "},"":{"ha":472,"x_min":-58,"x_max":547,"o":"m 205 1 l 155 -6 q 118 22 118 -6 q 128 44 119 34 q 145 65 136 54 q 165 89 154 77 q 185 113 176 102 q 205 151 205 139 l 208 623 q 205 912 208 785 q 159 977 205 933 q 119 1034 119 1014 q 178 1048 119 1063 q 273 1044 227 1036 q 342 1053 319 1053 q 365 1034 365 1053 q 341 1001 365 1019 q 303 968 318 983 q 281 941 289 954 q 271 899 271 924 l 273 567 l 267 180 l 267 160 q 268 134 267 151 q 286 96 269 118 q 316 57 303 75 q 337 16 337 28 q 300 -5 337 -5 l 205 1 m 92 1141 l 94 1124 q 75 1085 94 1095 q 2 1152 51 1072 q -23 1173 -3 1162 q -51 1192 -43 1185 q -58 1211 -58 1200 q -18 1236 -58 1236 l 37 1231 q 128 1275 74 1231 q 222 1345 159 1300 q 262 1347 240 1366 q 303 1314 285 1327 q 339 1289 321 1300 q 426 1243 361 1276 q 478 1233 448 1234 q 519 1230 508 1232 q 547 1206 547 1223 q 532 1179 547 1189 q 490 1143 499 1154 l 460 1098 q 434 1075 444 1075 q 406 1108 410 1075 q 394 1168 401 1157 q 382 1185 387 1179 q 312 1226 348 1206 q 241 1270 277 1246 l 170 1226 q 115 1189 161 1221 q 92 1141 92 1171 z "},"":{"ha":472,"x_min":-37,"x_max":508,"o":"m 205 1 l 155 -6 q 118 22 118 -6 q 128 44 119 34 q 145 65 136 54 q 165 89 154 77 q 185 113 176 102 q 205 151 205 139 l 208 623 q 205 912 208 785 q 159 977 205 933 q 119 1034 119 1014 q 178 1048 119 1063 q 273 1044 227 1036 q 342 1053 319 1053 q 365 1034 365 1053 q 341 1001 365 1019 q 303 968 318 983 q 281 941 289 954 q 271 899 271 924 l 273 567 l 267 180 l 267 160 q 268 134 267 151 q 286 96 269 118 q 316 57 303 75 q 337 16 337 28 q 300 -5 337 -5 l 205 1 m 323 1300 q 354 1295 328 1300 q 471 1291 380 1291 q 508 1267 508 1291 q 486 1226 508 1251 q 429 1162 433 1171 q 387 1145 410 1130 q 377 1157 380 1149 q 365 1175 373 1164 q 346 1200 357 1186 q 298 1280 298 1261 q 323 1300 298 1300 m 194 1267 q 171 1225 194 1249 q 114 1162 120 1172 q 58 1158 85 1117 l 4 1236 q 9 1300 -37 1300 l 47 1295 q 146 1291 98 1291 q 194 1267 194 1291 z "},"":{"ha":1020,"x_min":2,"x_max":941,"o":"m 105 -2 q 113 20 105 10 q 130 43 121 31 q 149 68 139 55 q 168 92 159 81 q 186 130 186 120 q 163 556 180 213 q 125 550 136 552 q 100 533 114 548 q 73 500 85 517 q 48 469 60 483 q 23 455 36 455 q 2 481 2 455 l 11 575 l 3 651 q 39 661 3 684 l 100 618 q 123 609 115 609 l 161 613 q 139 988 149 863 q 120 1022 138 1004 l 64 1074 q 48 1105 48 1090 q 75 1126 48 1126 l 140 1118 q 208 1125 175 1118 q 273 1135 253 1135 q 293 1116 293 1135 q 264 1078 293 1101 q 205 994 205 1029 l 205 969 l 338 1004 q 777 966 597 1066 q 918 798 874 911 q 941 646 941 739 q 907 473 941 553 q 818 334 873 393 q 689 234 762 275 q 541 168 617 193 q 251 111 403 121 q 280 70 255 99 q 314 26 304 40 q 324 3 324 13 q 283 -20 324 -20 l 216 -19 q 172 -24 195 -19 q 105 -2 105 -37 m 228 565 l 244 181 l 258 181 q 663 304 472 181 q 846 509 793 387 q 873 654 873 572 q 845 799 873 736 q 768 898 816 861 q 526 967 677 967 q 210 909 375 967 l 226 621 q 464 655 317 630 q 520 692 489 660 q 564 736 551 724 q 589 747 577 747 q 609 703 609 747 l 606 634 q 610 591 606 604 q 614 572 614 579 q 575 536 614 526 q 563 541 569 537 l 534 559 q 465 593 481 593 l 443 590 l 309 575 q 228 565 267 570 z "},"":{"ha":1168,"x_min":59,"x_max":1139,"o":"m 273 15 q 210 1 273 -12 q 79 11 163 11 q 59 27 59 11 q 79 58 59 47 q 111 77 100 68 q 129 98 123 86 q 149 181 141 119 q 162 293 156 242 q 174 404 168 343 q 187 527 180 465 q 200 646 194 588 q 221 844 200 646 q 176 911 221 873 q 149 929 163 922 q 123 956 123 941 q 155 985 123 985 l 252 979 q 305 982 281 979 q 349 986 328 986 q 370 968 370 986 q 347 936 370 947 q 277 864 290 909 q 599 439 304 799 q 907 84 888 84 q 907 88 909 84 l 962 879 q 945 923 962 898 q 910 970 927 948 q 893 1005 893 993 q 914 1022 893 1022 q 958 1018 935 1022 q 1015 1014 982 1014 l 1086 1017 q 1092 970 1139 1017 l 1066 944 q 1033 900 1038 914 q 1023 852 1027 885 q 1016 766 1020 819 q 1006 646 1011 713 q 997 507 1002 579 q 987 363 991 435 q 979 229 983 291 q 972 50 972 92 l 972 28 q 961 -14 972 -1 q 939 -26 949 -26 q 914 -19 921 -26 q 888 11 907 -12 q 838 69 869 33 q 767 153 808 105 q 682 253 727 200 q 590 363 637 307 q 498 474 543 420 q 413 578 454 529 q 342 667 373 628 q 271 768 276 751 q 206 153 206 168 l 206 136 q 218 90 206 107 q 245 57 218 90 q 273 15 273 24 m 454 1124 q 437 1099 454 1099 q 413 1108 425 1099 q 396 1126 401 1117 q 385 1145 391 1136 q 369 1164 378 1155 q 324 1190 348 1183 q 287 1216 287 1199 q 295 1233 287 1225 q 315 1241 304 1241 l 337 1240 q 392 1251 382 1242 q 413 1273 402 1260 q 439 1300 423 1286 q 537 1334 480 1334 q 642 1280 600 1334 q 665 1251 654 1265 q 743 1201 705 1201 q 812 1225 785 1201 q 816 1326 835 1246 q 820 1358 811 1348 q 836 1369 828 1369 q 866 1347 854 1367 q 942 1281 897 1298 q 972 1251 972 1268 q 962 1232 972 1240 q 929 1222 951 1224 q 893 1218 907 1221 q 873 1208 879 1216 q 857 1190 868 1200 q 828 1168 846 1179 q 707 1143 768 1131 q 650 1173 673 1149 q 614 1211 627 1196 q 591 1240 602 1226 q 535 1274 559 1274 q 495 1267 510 1274 q 470 1252 480 1261 q 446 1219 450 1234 q 441 1194 441 1205 l 454 1124 z "},"":{"ha":984,"x_min":71,"x_max":907,"o":"m 787 121 q 655 9 731 47 q 511 -29 580 -29 q 390 -16 441 -29 q 292 26 338 -2 q 204 100 245 55 q 134 208 164 144 q 71 536 71 343 q 191 920 71 772 q 497 1067 309 1067 q 783 956 675 1067 q 907 551 907 826 q 787 121 907 280 m 490 36 q 570 45 532 35 q 647 78 609 55 q 719 139 685 101 q 780 235 753 177 q 837 550 837 360 q 597 990 837 926 q 502 1006 537 1006 q 428 997 467 1006 q 350 969 389 989 q 272 917 310 949 q 205 834 234 884 q 140 564 140 725 q 325 83 140 200 q 490 36 397 37 m 311 1244 q 280 1265 280 1244 q 299 1297 280 1278 q 326 1337 317 1316 q 342 1377 335 1358 q 357 1409 349 1396 q 380 1421 365 1421 q 404 1407 396 1421 q 415 1372 411 1392 q 424 1335 420 1353 q 435 1311 428 1316 q 459 1293 443 1305 q 494 1265 475 1280 q 562 1217 544 1227 q 593 1182 593 1200 q 562 1147 593 1147 q 515 1172 539 1147 q 454 1215 503 1183 q 397 1250 405 1246 q 378 1253 389 1253 l 311 1244 z "},"":{"ha":984,"x_min":71,"x_max":907,"o":"m 787 121 q 655 9 731 47 q 511 -29 580 -29 q 390 -16 441 -29 q 292 26 338 -2 q 204 100 245 55 q 134 208 164 144 q 71 536 71 343 q 191 920 71 772 q 497 1067 309 1067 q 783 956 675 1067 q 907 551 907 826 q 787 121 907 280 m 490 36 q 570 45 532 35 q 647 78 609 55 q 719 139 685 101 q 780 235 753 177 q 837 550 837 360 q 597 990 837 926 q 502 1006 537 1006 q 428 997 467 1006 q 350 969 389 989 q 272 917 310 949 q 205 834 234 884 q 140 564 140 725 q 325 83 140 200 q 490 36 397 37 m 649 1227 l 582 1236 q 563 1232 571 1236 q 534 1215 555 1228 q 495 1190 514 1202 q 439 1149 448 1157 q 402 1130 420 1130 q 375 1139 384 1130 q 367 1158 367 1147 q 393 1197 367 1182 q 523 1293 419 1212 q 537 1336 530 1297 q 579 1404 551 1404 q 602 1392 595 1404 q 616 1361 610 1379 q 632 1321 623 1343 q 654 1286 641 1300 q 680 1248 680 1259 q 649 1227 680 1227 z "},"":{"ha":984,"x_min":71,"x_max":907,"o":"m 787 121 q 655 9 731 47 q 511 -29 580 -29 q 390 -16 441 -29 q 292 26 338 -2 q 204 100 245 55 q 134 208 164 144 q 71 536 71 343 q 191 920 71 772 q 497 1067 309 1067 q 783 956 675 1067 q 907 551 907 826 q 787 121 907 280 m 490 36 q 570 45 532 35 q 647 78 609 55 q 719 139 685 101 q 780 235 753 177 q 837 550 837 360 q 597 990 837 926 q 502 1006 537 1006 q 428 997 467 1006 q 350 969 389 989 q 272 917 310 949 q 205 834 234 884 q 140 564 140 725 q 325 83 140 200 q 490 36 397 37 m 334 1193 l 336 1177 q 316 1137 336 1147 q 243 1204 292 1124 q 218 1225 238 1214 q 191 1244 198 1237 q 184 1263 184 1252 q 224 1288 184 1288 l 279 1283 q 370 1327 315 1283 q 464 1398 400 1352 q 504 1399 481 1418 q 544 1366 526 1379 q 581 1341 562 1352 q 667 1295 602 1328 q 720 1285 690 1286 q 761 1282 749 1284 q 788 1259 788 1275 q 773 1231 788 1241 q 732 1195 741 1206 l 701 1150 q 675 1127 686 1127 q 648 1160 651 1127 q 635 1220 642 1209 q 624 1238 629 1231 q 554 1278 589 1259 q 482 1322 518 1298 l 411 1278 q 356 1241 403 1273 q 334 1193 334 1223 z "},"":{"ha":984,"x_min":71,"x_max":907,"o":"m 787 121 q 655 9 731 47 q 511 -29 580 -29 q 390 -16 441 -29 q 292 26 338 -2 q 204 100 245 55 q 134 208 164 144 q 71 536 71 343 q 191 920 71 772 q 497 1067 309 1067 q 783 956 675 1067 q 907 551 907 826 q 787 121 907 280 m 490 36 q 570 45 532 35 q 647 78 609 55 q 719 139 685 101 q 780 235 753 177 q 837 550 837 360 q 597 990 837 926 q 502 1006 537 1006 q 428 997 467 1006 q 350 969 389 989 q 272 917 310 949 q 205 834 234 884 q 140 564 140 725 q 325 83 140 200 q 490 36 397 37 m 309 1176 q 291 1151 309 1151 q 267 1160 279 1151 q 250 1179 255 1169 q 239 1198 245 1188 q 223 1216 233 1207 q 178 1242 202 1235 q 141 1268 141 1251 q 150 1285 141 1278 q 170 1293 158 1293 l 191 1293 q 246 1303 236 1295 q 267 1325 256 1312 q 294 1352 277 1339 q 391 1386 334 1386 q 496 1333 454 1386 q 519 1303 508 1318 q 597 1253 559 1253 q 666 1277 640 1253 q 670 1378 689 1299 q 674 1411 665 1400 q 690 1421 682 1421 q 720 1399 708 1419 q 796 1333 751 1350 q 827 1303 827 1320 q 816 1284 827 1292 q 783 1275 806 1276 q 747 1271 761 1273 q 728 1260 733 1268 q 711 1242 722 1253 q 682 1220 700 1231 q 561 1195 622 1183 q 504 1225 527 1202 q 469 1263 481 1248 q 445 1292 456 1278 q 389 1326 414 1326 q 349 1319 364 1326 q 324 1304 334 1313 q 300 1272 304 1286 q 296 1246 296 1257 l 309 1176 z "},"":{"ha":984,"x_min":71,"x_max":907,"o":"m 787 121 q 655 9 731 47 q 511 -29 580 -29 q 390 -16 441 -29 q 292 26 338 -2 q 204 100 245 55 q 134 208 164 144 q 71 536 71 343 q 191 920 71 772 q 497 1067 309 1067 q 783 956 675 1067 q 907 551 907 826 q 787 121 907 280 m 490 36 q 570 45 532 35 q 647 78 609 55 q 719 139 685 101 q 780 235 753 177 q 837 550 837 360 q 597 990 837 926 q 502 1006 537 1006 q 428 997 467 1006 q 350 969 389 989 q 272 917 310 949 q 205 834 234 884 q 140 564 140 725 q 325 83 140 200 q 490 36 397 37 m 564 1352 q 595 1348 570 1352 q 712 1343 621 1343 q 749 1320 749 1343 q 727 1278 749 1303 q 670 1214 675 1223 q 628 1197 651 1182 q 618 1209 622 1201 q 606 1227 614 1217 q 587 1253 598 1238 q 539 1332 539 1314 q 564 1352 539 1352 m 435 1320 q 412 1278 435 1301 q 355 1214 361 1224 q 300 1210 327 1169 l 245 1288 q 251 1352 204 1352 l 288 1348 q 387 1343 339 1343 q 435 1320 435 1343 z "},"":{"ha":1055,"x_min":92,"x_max":958,"o":"m 736 876 q 764 909 736 909 q 790 898 778 909 q 815 871 802 887 q 880 810 855 824 q 916 770 916 790 q 883 746 916 750 q 777 722 796 746 q 571 492 763 704 q 810 273 745 323 q 901 253 832 256 q 958 225 958 250 q 916 176 958 208 q 857 122 866 139 q 797 92 825 66 q 782 155 785 104 q 770 221 779 206 q 680 310 770 221 q 534 452 589 399 l 330 224 q 308 198 311 203 q 302 161 302 187 q 301 120 302 134 q 297 95 300 106 q 273 73 291 73 q 233 102 250 73 q 191 149 217 129 q 151 173 165 169 q 127 186 136 176 q 118 205 118 195 q 184 241 118 232 q 272 263 256 252 q 310 296 288 275 q 361 348 332 318 q 492 490 428 417 q 288 680 347 630 q 218 737 229 730 q 185 747 208 744 q 141 751 162 749 q 106 756 121 752 q 92 772 92 761 q 118 811 92 799 q 167 841 144 823 q 208 877 191 860 q 238 905 225 893 q 262 917 251 917 q 290 883 290 917 l 283 798 q 294 762 283 774 q 528 531 356 696 q 738 797 728 755 q 741 823 741 809 l 736 876 z "},"":{"ha":1025,"x_min":-4,"x_max":981,"o":"m 815 941 q 928 551 928 811 q 807 121 928 280 q 513 -29 694 -29 q 283 45 386 -29 q 218 106 249 71 l 195 73 q 183 52 190 65 q 175 15 176 38 q 175 -26 175 -7 q 171 -56 175 -44 q 153 -68 167 -68 q 113 -39 127 -68 q 35 -3 102 -19 q -4 30 -4 7 q 58 66 -4 56 q 124 94 105 75 q 180 161 137 106 q 92 535 92 305 q 211 919 92 772 q 517 1067 330 1067 q 766 988 664 1067 l 791 1021 q 800 1052 800 1037 l 789 1124 q 799 1150 789 1142 q 822 1158 808 1158 q 849 1147 836 1158 q 876 1120 862 1136 q 942 1059 919 1072 q 981 1021 981 1036 q 972 1003 981 1011 q 947 995 962 995 l 925 996 q 862 987 878 996 q 815 941 838 975 m 727 933 q 449 997 607 1031 q 292 917 364 979 q 178 719 213 848 q 160 551 160 652 q 225 222 160 351 q 479 578 340 379 q 727 933 684 873 m 260 165 q 517 35 355 35 q 739 139 646 35 q 842 370 812 219 q 851 662 869 509 q 773 885 833 805 l 519 530 l 334 270 q 260 165 292 210 z "},"":{"ha":1048,"x_min":22,"x_max":1008,"o":"m 1008 1088 q 994 1065 1008 1082 q 968 1029 980 1048 q 938 954 939 984 q 936 882 937 924 q 932 789 935 840 q 926 683 930 739 q 917 572 922 627 q 890 401 903 450 q 863 311 876 352 q 828 226 849 269 q 778 141 807 182 q 708 66 749 100 q 492 -6 618 -6 q 275 94 359 -6 q 151 464 172 216 l 113 877 q 101 918 110 906 q 60 960 87 936 q 28 992 33 983 q 22 1008 22 1001 q 65 1033 22 1033 l 100 1029 l 205 1049 q 258 1038 258 1058 q 242 1008 258 1024 q 215 976 226 992 q 197 943 205 960 q 181 882 181 906 q 183 818 181 859 q 189 724 185 778 q 236 327 212 421 q 293 178 260 233 q 496 56 366 56 q 782 279 692 56 q 878 945 878 515 q 868 987 878 973 q 832 1027 858 1002 q 793 1079 793 1063 q 833 1094 793 1094 l 900 1090 q 949 1097 930 1090 q 1008 1088 1008 1119 m 332 1192 q 301 1213 301 1192 q 320 1245 301 1226 q 347 1285 338 1263 q 363 1325 356 1306 q 378 1356 370 1343 q 401 1369 386 1369 q 425 1354 417 1369 q 436 1320 432 1339 q 445 1282 441 1301 q 456 1259 449 1264 q 480 1241 464 1253 q 515 1213 496 1228 q 583 1165 565 1175 q 614 1130 614 1147 q 583 1095 614 1095 q 536 1120 560 1095 q 475 1162 524 1131 q 418 1197 426 1194 q 399 1201 410 1201 l 332 1192 z "},"":{"ha":1048,"x_min":22,"x_max":1008,"o":"m 1008 1088 q 994 1065 1008 1082 q 968 1029 980 1048 q 938 954 939 984 q 936 882 937 924 q 932 789 935 840 q 926 683 930 739 q 917 572 922 627 q 890 401 903 450 q 863 311 876 352 q 828 226 849 269 q 778 141 807 182 q 708 66 749 100 q 492 -6 618 -6 q 275 94 359 -6 q 151 464 172 216 l 113 877 q 101 918 110 906 q 60 960 87 936 q 28 992 33 983 q 22 1008 22 1001 q 65 1033 22 1033 l 100 1029 l 205 1049 q 258 1038 258 1058 q 242 1008 258 1024 q 215 976 226 992 q 197 943 205 960 q 181 882 181 906 q 183 818 181 859 q 189 724 185 778 q 236 327 212 421 q 293 178 260 233 q 496 56 366 56 q 782 279 692 56 q 878 945 878 515 q 868 987 878 973 q 832 1027 858 1002 q 793 1079 793 1063 q 833 1094 793 1094 l 900 1090 q 949 1097 930 1090 q 1008 1088 1008 1119 m 653 1211 l 586 1219 q 567 1216 575 1219 q 538 1199 559 1212 q 499 1173 518 1186 q 444 1133 452 1141 q 406 1114 425 1114 q 379 1122 388 1114 q 371 1142 371 1131 q 397 1181 371 1166 q 527 1276 423 1196 q 541 1320 534 1280 q 583 1388 555 1388 q 606 1375 599 1388 q 621 1345 614 1363 q 636 1305 627 1326 q 658 1270 645 1284 q 684 1232 684 1243 q 653 1211 684 1211 z "},"":{"ha":1048,"x_min":22,"x_max":1008,"o":"m 1008 1088 q 994 1065 1008 1082 q 968 1029 980 1048 q 938 954 939 984 q 936 882 937 924 q 932 789 935 840 q 926 683 930 739 q 917 572 922 627 q 890 401 903 450 q 863 311 876 352 q 828 226 849 269 q 778 141 807 182 q 708 66 749 100 q 492 -6 618 -6 q 275 94 359 -6 q 151 464 172 216 l 113 877 q 101 918 110 906 q 60 960 87 936 q 28 992 33 983 q 22 1008 22 1001 q 65 1033 22 1033 l 100 1029 l 205 1049 q 258 1038 258 1058 q 242 1008 258 1024 q 215 976 226 992 q 197 943 205 960 q 181 882 181 906 q 183 818 181 859 q 189 724 185 778 q 236 327 212 421 q 293 178 260 233 q 496 56 366 56 q 782 279 692 56 q 878 945 878 515 q 868 987 878 973 q 832 1027 858 1002 q 793 1079 793 1063 q 833 1094 793 1094 l 900 1090 q 949 1097 930 1090 q 1008 1088 1008 1119 m 355 1141 l 357 1124 q 337 1085 357 1095 q 264 1152 313 1072 q 239 1173 259 1162 q 212 1192 219 1185 q 205 1211 205 1200 q 245 1236 205 1236 l 300 1231 q 391 1275 336 1231 q 485 1345 421 1300 q 525 1347 503 1366 q 565 1314 547 1327 q 602 1289 583 1300 q 688 1243 623 1276 q 741 1233 711 1234 q 782 1230 770 1232 q 809 1206 809 1223 q 794 1179 809 1189 q 753 1143 762 1154 l 722 1098 q 696 1075 707 1075 q 669 1108 672 1075 q 656 1168 663 1157 q 645 1185 650 1179 q 575 1226 610 1206 q 503 1270 539 1246 l 432 1226 q 377 1189 424 1221 q 355 1141 355 1171 z "},"":{"ha":1048,"x_min":22,"x_max":1008,"o":"m 1008 1088 q 994 1065 1008 1082 q 968 1029 980 1048 q 938 954 939 984 q 936 882 937 924 q 932 789 935 840 q 926 683 930 739 q 917 572 922 627 q 890 401 903 450 q 863 311 876 352 q 828 226 849 269 q 778 141 807 182 q 708 66 749 100 q 492 -6 618 -6 q 275 94 359 -6 q 151 464 172 216 l 113 877 q 101 918 110 906 q 60 960 87 936 q 28 992 33 983 q 22 1008 22 1001 q 65 1033 22 1033 l 100 1029 l 205 1049 q 258 1038 258 1058 q 242 1008 258 1024 q 215 976 226 992 q 197 943 205 960 q 181 882 181 906 q 183 818 181 859 q 189 724 185 778 q 236 327 212 421 q 293 178 260 233 q 496 56 366 56 q 782 279 692 56 q 878 945 878 515 q 868 987 878 973 q 832 1027 858 1002 q 793 1079 793 1063 q 833 1094 793 1094 l 900 1090 q 949 1097 930 1090 q 1008 1088 1008 1119 m 585 1300 q 616 1295 591 1300 q 733 1291 642 1291 q 770 1267 770 1291 q 748 1226 770 1251 q 691 1162 696 1171 q 649 1145 672 1130 q 639 1157 643 1149 q 627 1175 635 1164 q 608 1200 619 1186 q 560 1280 560 1261 q 585 1300 560 1300 m 456 1267 q 433 1225 456 1249 q 376 1162 382 1172 q 321 1158 348 1117 l 267 1236 q 272 1300 225 1300 l 309 1295 q 408 1291 360 1291 q 456 1267 456 1291 z "},"":{"ha":957,"x_min":16,"x_max":941,"o":"m 368 -54 q 346 -35 346 -54 q 384 20 346 -14 q 434 97 434 64 l 436 320 q 431 495 436 437 l 230 787 q 146 906 191 843 q 112 932 132 926 q 81 941 93 939 q 59 945 69 943 q 39 951 49 947 q 16 978 16 962 q 51 1007 16 994 q 110 1035 85 1021 q 153 1059 136 1048 q 207 1082 193 1082 q 227 1062 227 1082 q 221 1039 227 1050 q 208 1015 214 1027 q 195 951 182 966 q 380 672 302 780 q 472 546 457 565 q 747 971 625 756 q 758 1021 762 999 q 750 1055 753 1043 q 763 1131 732 1131 q 791 1113 770 1131 q 829 1082 813 1095 q 895 1044 871 1052 q 941 1000 941 1026 q 891 975 941 977 q 820 951 835 974 q 782 894 805 928 q 733 820 760 860 q 676 734 706 780 q 617 642 647 689 q 503 458 553 542 q 500 340 500 387 l 500 269 l 501 164 l 502 107 q 536 22 502 69 q 554 1 547 8 q 575 -28 575 -16 q 563 -45 575 -41 q 519 -49 551 -49 l 446 -48 l 368 -54 m 693 1211 l 626 1219 q 607 1216 615 1219 q 578 1199 599 1212 q 539 1173 558 1186 q 484 1133 492 1141 q 446 1114 465 1114 q 419 1122 428 1114 q 411 1142 411 1131 q 437 1181 411 1166 q 567 1276 463 1196 q 581 1320 574 1280 q 623 1388 595 1388 q 646 1375 639 1388 q 661 1345 654 1363 q 676 1305 667 1326 q 698 1270 685 1284 q 724 1232 724 1243 q 693 1211 724 1211 z "},"":{"ha":879,"x_min":56,"x_max":813,"o":"m 113 3 q 121 26 113 16 q 137 48 129 37 q 156 71 146 59 q 175 94 166 83 q 194 129 194 119 q 175 468 184 259 q 146 1001 158 845 q 127 1031 145 1017 q 65 1085 75 1076 q 56 1110 56 1095 q 82 1131 56 1131 l 149 1125 q 230 1134 195 1125 q 274 1142 265 1142 q 300 1121 300 1142 q 272 1083 300 1106 q 212 1008 212 1035 q 223 818 212 997 q 500 866 358 866 q 787 739 716 866 q 813 624 813 692 q 797 504 813 555 q 751 415 780 453 q 682 352 722 377 q 595 311 642 326 q 246 294 452 262 q 253 139 250 165 q 262 102 256 113 q 277 82 269 92 l 316 39 q 332 8 332 20 q 291 -15 332 -15 l 223 -14 q 179 -18 203 -14 q 113 3 113 -32 m 590 795 q 227 754 437 831 l 235 553 q 243 365 240 432 q 531 361 395 325 q 718 494 661 395 q 745 602 745 543 q 726 699 745 661 q 590 795 688 771 z "},"":{"ha":832,"x_min":39,"x_max":770,"o":"m 250 -121 l 170 -117 q 89 -122 113 -117 q 58 -126 66 -126 q 44 -120 50 -126 q 39 -106 39 -114 q 45 -90 39 -99 q 60 -71 51 -81 q 79 -49 68 -61 q 99 -20 90 -37 q 120 54 120 18 q 118 136 120 90 q 114 243 116 182 q 109 673 102 541 q 134 866 116 805 q 178 972 151 928 q 239 1046 205 1017 q 307 1093 272 1076 q 525 1113 412 1147 q 648 1016 611 1086 q 667 927 667 980 q 654 833 667 874 q 621 763 642 791 q 575 715 601 734 q 521 680 549 696 q 571 651 543 665 q 626 618 598 637 q 679 575 653 600 q 726 515 705 550 q 770 326 770 439 q 703 136 770 209 q 514 60 631 60 q 450 73 486 60 q 357 97 383 97 q 309 116 309 97 q 321 140 309 131 q 350 160 333 149 q 387 188 368 171 q 415 227 406 205 q 442 256 427 256 q 467 244 462 256 q 473 218 473 233 l 472 197 q 480 146 472 159 q 533 119 496 119 q 602 133 571 119 q 656 173 633 147 q 705 319 705 229 q 631 533 705 459 q 552 593 591 572 q 495 625 513 614 q 464 642 477 636 q 441 652 451 648 q 419 678 419 663 q 423 699 419 692 q 433 711 427 706 q 467 726 436 713 q 520 756 497 740 q 559 797 543 773 q 596 925 596 848 q 539 1031 596 994 q 433 1059 494 1059 q 325 1028 372 1059 q 244 945 277 996 q 176 705 181 846 q 175 344 171 511 q 182 113 180 177 q 187 31 184 48 q 199 -5 191 14 q 265 -74 220 -49 q 288 -104 288 -87 q 250 -121 288 -121 z "},"":{"ha":1055,"x_min":37,"x_max":1065,"o":"m 894 2 q 871 47 862 2 q 880 151 888 130 l 755 347 q 680 474 720 405 q 622 335 648 389 q 549 225 595 281 q 458 130 503 170 q 186 -2 310 -2 q 83 40 121 -2 q 67 191 37 92 q 257 431 106 323 q 547 564 393 528 q 621 578 588 574 q 524 755 547 708 q 490 777 512 770 q 395 813 406 806 q 383 829 383 820 q 418 862 383 851 q 526 917 479 879 q 578 939 553 939 q 603 913 603 939 l 578 830 q 579 783 570 800 l 723 519 q 896 239 817 351 q 939 189 924 199 q 976 170 954 179 q 1017 153 998 161 q 1065 116 1065 133 q 1031 83 1065 97 q 976 56 997 70 q 940 30 954 41 q 916 10 926 18 q 894 2 906 2 m 137 182 q 128 134 128 152 q 132 104 128 117 q 144 83 136 92 q 184 62 161 62 q 276 83 224 62 q 368 135 328 104 q 448 205 409 165 q 576 380 530 292 q 638 523 616 458 q 410 453 531 513 q 222 316 298 398 q 137 182 157 245 m 276 1135 q 245 1156 245 1135 q 264 1188 245 1169 q 292 1228 283 1206 q 308 1268 300 1249 q 322 1299 315 1286 q 346 1312 330 1312 q 369 1297 361 1312 q 381 1263 376 1282 q 389 1225 385 1244 q 401 1202 393 1207 q 425 1184 408 1196 q 460 1156 441 1171 q 528 1108 509 1118 q 558 1073 558 1090 q 528 1038 558 1038 q 480 1063 505 1038 q 419 1105 469 1074 q 362 1140 370 1137 q 343 1144 354 1144 l 276 1135 z "},"":{"ha":1055,"x_min":37,"x_max":1065,"o":"m 894 2 q 871 47 862 2 q 880 151 888 130 l 755 347 q 680 474 720 405 q 622 335 648 389 q 549 225 595 281 q 458 130 503 170 q 186 -2 310 -2 q 83 40 121 -2 q 67 191 37 92 q 257 431 106 323 q 547 564 393 528 q 621 578 588 574 q 524 755 547 708 q 490 777 512 770 q 395 813 406 806 q 383 829 383 820 q 418 862 383 851 q 526 917 479 879 q 578 939 553 939 q 603 913 603 939 l 578 830 q 579 783 570 800 l 723 519 q 896 239 817 351 q 939 189 924 199 q 976 170 954 179 q 1017 153 998 161 q 1065 116 1065 133 q 1031 83 1065 97 q 976 56 997 70 q 940 30 954 41 q 916 10 926 18 q 894 2 906 2 m 137 182 q 128 134 128 152 q 132 104 128 117 q 144 83 136 92 q 184 62 161 62 q 276 83 224 62 q 368 135 328 104 q 448 205 409 165 q 576 380 530 292 q 638 523 616 458 q 410 453 531 513 q 222 316 298 398 q 137 182 157 245 m 778 1135 l 711 1144 q 692 1140 700 1144 q 663 1124 684 1137 q 624 1097 643 1111 q 568 1057 576 1065 q 531 1038 549 1038 q 504 1047 513 1038 q 496 1066 496 1056 q 522 1105 496 1090 q 652 1201 548 1120 q 666 1244 659 1205 q 708 1312 680 1312 q 731 1300 724 1312 q 745 1270 739 1288 q 761 1230 752 1251 q 783 1195 770 1208 q 808 1156 808 1168 q 778 1135 808 1135 z "},"":{"ha":1055,"x_min":37,"x_max":1065,"o":"m 894 2 q 871 47 862 2 q 880 151 888 130 l 755 347 q 680 474 720 405 q 622 335 648 389 q 549 225 595 281 q 458 130 503 170 q 186 -2 310 -2 q 83 40 121 -2 q 67 191 37 92 q 257 431 106 323 q 547 564 393 528 q 621 578 588 574 q 524 755 547 708 q 490 777 512 770 q 395 813 406 806 q 383 829 383 820 q 418 862 383 851 q 526 917 479 879 q 578 939 553 939 q 603 913 603 939 l 578 830 q 579 783 570 800 l 723 519 q 896 239 817 351 q 939 189 924 199 q 976 170 954 179 q 1017 153 998 161 q 1065 116 1065 133 q 1031 83 1065 97 q 976 56 997 70 q 940 30 954 41 q 916 10 926 18 q 894 2 906 2 m 137 182 q 128 134 128 152 q 132 104 128 117 q 144 83 136 92 q 184 62 161 62 q 276 83 224 62 q 368 135 328 104 q 448 205 409 165 q 576 380 530 292 q 638 523 616 458 q 410 453 531 513 q 222 316 298 398 q 137 182 157 245 m 378 1036 l 380 1020 q 360 981 380 991 q 288 1047 336 967 q 262 1069 282 1057 q 235 1088 242 1080 q 228 1107 228 1095 q 268 1131 228 1131 l 323 1126 q 414 1171 359 1126 q 478 1221 444 1196 q 518 1248 512 1246 q 533 1250 525 1250 q 562 1238 551 1250 q 663 1141 605 1183 q 700 1114 681 1127 q 752 1092 722 1099 q 793 1082 783 1086 q 819 1057 819 1073 q 795 1026 819 1039 q 752 999 760 1008 q 734 981 743 991 q 717 962 725 970 q 687 942 696 942 q 671 951 678 942 q 664 975 664 960 l 665 1002 q 653 1060 665 1034 q 526 1165 532 1160 q 456 1125 492 1154 q 400 1084 419 1097 q 378 1036 378 1066 z "},"":{"ha":1055,"x_min":37,"x_max":1065,"o":"m 894 2 q 871 47 862 2 q 880 151 888 130 l 755 347 q 680 474 720 405 q 622 335 648 389 q 549 225 595 281 q 458 130 503 170 q 186 -2 310 -2 q 83 40 121 -2 q 67 191 37 92 q 257 431 106 323 q 547 564 393 528 q 621 578 588 574 q 524 755 547 708 q 490 777 512 770 q 395 813 406 806 q 383 829 383 820 q 418 862 383 851 q 526 917 479 879 q 578 939 553 939 q 603 913 603 939 l 578 830 q 579 783 570 800 l 723 519 q 896 239 817 351 q 939 189 924 199 q 976 170 954 179 q 1017 153 998 161 q 1065 116 1065 133 q 1031 83 1065 97 q 976 56 997 70 q 940 30 954 41 q 916 10 926 18 q 894 2 906 2 m 137 182 q 128 134 128 152 q 132 104 128 117 q 144 83 136 92 q 184 62 161 62 q 276 83 224 62 q 368 135 328 104 q 448 205 409 165 q 576 380 530 292 q 638 523 616 458 q 410 453 531 513 q 222 316 298 398 q 137 182 157 245 m 381 1065 q 355 1018 381 1018 q 331 1028 342 1018 q 315 1055 319 1039 q 242 1131 300 1103 q 221 1154 221 1141 q 232 1177 221 1168 q 254 1186 242 1186 l 312 1178 q 338 1183 330 1178 q 357 1194 347 1187 q 381 1208 368 1201 q 486 1219 438 1236 q 538 1192 525 1207 q 557 1165 552 1176 q 568 1143 562 1154 q 642 1092 597 1092 q 700 1147 693 1092 q 702 1180 702 1163 l 701 1203 q 711 1234 701 1223 q 731 1245 721 1245 q 760 1223 751 1245 q 784 1184 768 1202 q 815 1153 800 1167 q 841 1129 830 1139 q 852 1106 852 1118 q 841 1085 852 1095 q 812 1076 829 1076 l 765 1081 q 742 1075 748 1081 q 726 1062 736 1069 q 701 1048 716 1055 q 581 1042 635 1019 q 507 1118 538 1059 q 431 1166 481 1166 q 389 1139 404 1166 q 379 1101 379 1122 l 381 1065 z "},"":{"ha":1055,"x_min":37,"x_max":1065,"o":"m 894 2 q 871 47 862 2 q 880 151 888 130 l 755 347 q 680 474 720 405 q 622 335 648 389 q 549 225 595 281 q 458 130 503 170 q 186 -2 310 -2 q 83 40 121 -2 q 67 191 37 92 q 257 431 106 323 q 547 564 393 528 q 621 578 588 574 q 524 755 547 708 q 490 777 512 770 q 395 813 406 806 q 383 829 383 820 q 418 862 383 851 q 526 917 479 879 q 578 939 553 939 q 603 913 603 939 l 578 830 q 579 783 570 800 l 723 519 q 896 239 817 351 q 939 189 924 199 q 976 170 954 179 q 1017 153 998 161 q 1065 116 1065 133 q 1031 83 1065 97 q 976 56 997 70 q 940 30 954 41 q 916 10 926 18 q 894 2 906 2 m 137 182 q 128 134 128 152 q 132 104 128 117 q 144 83 136 92 q 184 62 161 62 q 276 83 224 62 q 368 135 328 104 q 448 205 409 165 q 576 380 530 292 q 638 523 616 458 q 410 453 531 513 q 222 316 298 398 q 137 182 157 245 m 602 1181 q 633 1177 607 1181 q 749 1172 659 1172 q 787 1149 787 1172 q 764 1107 787 1132 q 707 1043 712 1052 q 665 1026 688 1011 q 655 1038 659 1030 q 644 1057 652 1046 q 625 1081 635 1067 q 576 1161 576 1143 q 602 1181 576 1181 m 473 1149 q 450 1107 473 1131 q 393 1043 399 1053 q 337 1039 364 998 l 283 1118 q 288 1181 241 1181 l 326 1177 q 425 1172 376 1172 q 473 1149 473 1172 z "},"":{"ha":1055,"x_min":37,"x_max":1065,"o":"m 894 2 q 871 47 862 2 q 880 151 888 130 l 755 347 q 680 474 720 405 q 622 335 648 389 q 549 225 595 281 q 458 130 503 170 q 186 -2 310 -2 q 83 40 121 -2 q 67 191 37 92 q 257 431 106 323 q 547 564 393 528 q 621 578 588 574 q 524 755 547 708 q 490 777 512 770 q 395 813 406 806 q 383 829 383 820 q 418 862 383 851 q 526 917 479 879 q 578 939 553 939 q 603 913 603 939 l 578 830 q 579 783 570 800 l 723 519 q 896 239 817 351 q 939 189 924 199 q 976 170 954 179 q 1017 153 998 161 q 1065 116 1065 133 q 1031 83 1065 97 q 976 56 997 70 q 940 30 954 41 q 916 10 926 18 q 894 2 906 2 m 137 182 q 128 134 128 152 q 132 104 128 117 q 144 83 136 92 q 184 62 161 62 q 276 83 224 62 q 368 135 328 104 q 448 205 409 165 q 576 380 530 292 q 638 523 616 458 q 410 453 531 513 q 222 316 298 398 q 137 182 157 245 m 582 1028 q 571 1025 582 1028 q 542 1021 559 1023 q 517 1020 525 1020 q 492 1022 509 1020 q 455 1030 475 1024 q 414 1046 435 1036 q 377 1076 393 1057 q 338 1181 338 1117 q 393 1299 338 1248 q 564 1349 462 1362 q 705 1238 673 1334 q 715 1173 715 1209 q 702 1111 715 1136 q 670 1069 690 1086 q 627 1043 650 1053 q 582 1028 604 1033 m 642 1181 q 630 1232 642 1212 q 600 1264 617 1253 q 536 1286 568 1286 q 483 1277 504 1286 q 446 1255 462 1269 q 414 1191 414 1225 q 455 1102 414 1136 q 551 1082 496 1068 q 642 1181 642 1103 z "},"":{"ha":1258,"x_min":-2,"x_max":1177,"o":"m 705 5 l 713 89 q 710 117 713 108 q 664 198 707 126 q 545 413 621 271 q 384 155 492 266 q 129 13 245 13 q 38 52 73 13 q 24 194 -2 101 q 111 345 46 269 q 340 507 197 444 q 472 549 411 538 q 349 791 376 732 q 319 812 339 805 q 237 845 248 838 q 225 861 225 852 q 254 891 225 882 q 302 912 282 900 q 338 937 322 925 q 417 935 417 992 q 408 896 417 918 q 397 819 386 837 l 508 597 q 643 888 511 779 q 796 968 715 947 q 990 962 885 991 q 1137 844 1100 929 q 1149 773 1149 813 q 1139 702 1149 732 q 1111 648 1128 671 q 1073 611 1094 626 q 1032 586 1052 595 q 968 570 996 570 q 866 580 898 570 q 810 592 834 590 q 770 595 787 594 q 745 601 753 597 q 736 616 736 606 q 747 641 736 627 q 772 672 758 656 q 814 723 812 718 q 820 733 817 728 q 828 742 823 738 q 868 743 851 764 q 886 684 878 732 q 898 634 894 635 q 908 631 903 633 q 922 628 914 629 q 1001 634 977 621 q 1043 665 1025 647 q 1076 814 1101 727 q 980 901 1058 874 q 876 916 939 916 q 759 889 813 916 q 662 818 704 863 q 570 594 570 721 q 650 404 570 476 q 861 332 730 332 q 1051 380 1003 332 q 1084 424 1072 399 q 1102 457 1097 450 q 1115 465 1107 465 q 1131 459 1123 465 q 1139 441 1139 453 q 1142 415 1139 429 q 1148 387 1144 401 q 1166 340 1156 359 q 1177 310 1177 321 q 1147 284 1177 284 q 1108 298 1138 284 q 1076 312 1078 312 l 999 288 q 709 298 849 251 q 653 321 680 307 q 731 191 706 228 q 766 148 757 154 q 795 134 775 142 q 833 118 814 126 q 877 83 877 98 q 845 51 877 69 q 762 -1 771 9 q 727 -23 744 -23 q 705 5 705 -23 m 92 92 q 137 73 106 73 q 207 91 169 73 q 282 137 245 108 q 354 206 319 167 q 419 290 389 245 q 513 473 481 382 l 498 500 q 234 380 360 479 q 85 185 114 286 q 92 92 68 125 z "},"":{"ha":1042,"x_min":205,"x_max":990,"o":"m 291 -257 q 258 -235 258 -257 q 273 -213 258 -225 q 343 -127 322 -174 q 367 -103 354 -103 q 388 -111 380 -103 q 395 -129 395 -119 l 393 -159 q 517 -236 393 -236 q 604 -182 589 -236 q 602 -128 614 -146 q 575 -99 589 -109 q 546 -81 562 -89 q 515 -64 530 -73 q 486 -3 473 -37 l 501 35 q 305 136 384 55 q 205 434 205 241 q 279 659 205 564 q 445 780 340 736 q 619 816 532 816 l 726 806 q 818 844 780 806 q 856 862 836 862 q 873 833 883 862 q 844 686 844 746 l 847 662 q 842 643 847 651 q 830 635 837 635 q 801 656 815 635 q 777 692 786 677 q 757 720 767 708 q 709 750 735 747 q 613 758 649 758 q 537 748 577 758 q 459 720 497 739 q 387 675 420 702 q 328 613 353 648 q 273 442 273 538 q 301 278 273 347 q 376 167 330 209 q 602 90 462 90 q 711 100 661 90 q 788 119 761 111 q 834 136 816 127 q 862 154 852 144 q 880 174 873 163 l 905 220 q 936 247 919 247 q 953 208 953 247 q 973 59 953 126 q 958 7 990 7 q 924 17 944 7 q 896 35 905 27 q 879 50 886 43 q 787 57 851 71 q 565 30 659 30 q 563 -20 550 -7 q 598 -42 576 -33 q 636 -63 621 -51 q 663 -92 651 -75 q 688 -182 699 -140 q 662 -246 678 -224 q 623 -279 646 -267 q 533 -298 585 -298 q 455 -290 480 -298 q 409 -274 430 -283 q 369 -258 387 -266 q 333 -251 350 -251 l 291 -257 z "},"":{"ha":937,"x_min":83,"x_max":877,"o":"m 877 112 q 837 87 877 74 q 758 102 772 106 q 721 87 745 98 q 666 66 698 77 q 420 44 555 28 q 239 104 322 56 q 104 271 144 159 q 83 407 83 329 q 103 545 83 484 q 159 654 124 606 q 238 737 193 703 q 332 795 283 772 q 631 829 471 861 q 802 721 749 804 q 830 623 830 677 q 819 534 830 568 q 788 475 807 500 q 745 434 769 450 q 696 407 721 417 q 617 388 650 388 q 503 400 542 388 q 436 414 464 412 q 389 417 408 416 q 360 423 370 418 q 351 437 351 427 q 370 473 351 456 q 444 558 418 514 q 502 582 475 606 q 512 540 509 575 q 543 458 517 470 q 623 448 560 448 q 709 492 665 448 q 759 597 759 541 q 511 779 759 779 q 260 667 369 779 q 153 414 153 557 q 245 182 153 264 q 495 102 334 102 q 711 155 640 102 q 752 203 739 176 q 773 247 766 231 q 789 272 781 262 q 806 282 796 282 q 821 278 816 282 q 829 267 827 273 q 835 239 831 264 q 857 157 845 178 q 877 112 877 121 m 309 1048 q 279 1069 279 1048 q 297 1101 279 1082 q 325 1141 316 1120 q 341 1181 334 1162 q 356 1213 348 1200 q 379 1225 363 1225 q 402 1211 395 1225 q 414 1176 410 1196 q 422 1139 418 1157 q 434 1115 427 1120 q 458 1097 441 1109 q 494 1069 474 1084 q 561 1021 543 1031 q 591 986 591 1004 q 561 951 591 951 q 513 976 538 951 q 453 1019 502 987 q 395 1054 404 1050 q 376 1057 387 1057 l 309 1048 z "},"":{"ha":937,"x_min":83,"x_max":877,"o":"m 877 112 q 837 87 877 74 q 758 102 772 106 q 721 87 745 98 q 666 66 698 77 q 420 44 555 28 q 239 104 322 56 q 104 271 144 159 q 83 407 83 329 q 103 545 83 484 q 159 654 124 606 q 238 737 193 703 q 332 795 283 772 q 631 829 471 861 q 802 721 749 804 q 830 623 830 677 q 819 534 830 568 q 788 475 807 500 q 745 434 769 450 q 696 407 721 417 q 617 388 650 388 q 503 400 542 388 q 436 414 464 412 q 389 417 408 416 q 360 423 370 418 q 351 437 351 427 q 370 473 351 456 q 444 558 418 514 q 502 582 475 606 q 512 540 509 575 q 543 458 517 470 q 623 448 560 448 q 709 492 665 448 q 759 597 759 541 q 511 779 759 779 q 260 667 369 779 q 153 414 153 557 q 245 182 153 264 q 495 102 334 102 q 711 155 640 102 q 752 203 739 176 q 773 247 766 231 q 789 272 781 262 q 806 282 796 282 q 821 278 816 282 q 829 267 827 273 q 835 239 831 264 q 857 157 845 178 q 877 112 877 121 m 678 1024 l 611 1033 q 592 1029 600 1033 q 564 1013 584 1025 q 524 986 543 1000 q 469 946 477 954 q 431 927 450 927 q 405 936 413 927 q 396 955 396 945 q 422 994 396 979 q 552 1090 448 1009 q 566 1133 559 1094 q 608 1201 581 1201 q 631 1189 624 1201 q 646 1158 639 1177 q 661 1119 652 1140 q 683 1084 670 1097 q 709 1045 709 1057 q 678 1024 709 1024 z "},"":{"ha":937,"x_min":83,"x_max":877,"o":"m 877 112 q 837 87 877 74 q 758 102 772 106 q 721 87 745 98 q 666 66 698 77 q 420 44 555 28 q 239 104 322 56 q 104 271 144 159 q 83 407 83 329 q 103 545 83 484 q 159 654 124 606 q 238 737 193 703 q 332 795 283 772 q 631 829 471 861 q 802 721 749 804 q 830 623 830 677 q 819 534 830 568 q 788 475 807 500 q 745 434 769 450 q 696 407 721 417 q 617 388 650 388 q 503 400 542 388 q 436 414 464 412 q 389 417 408 416 q 360 423 370 418 q 351 437 351 427 q 370 473 351 456 q 444 558 418 514 q 502 582 475 606 q 512 540 509 575 q 543 458 517 470 q 623 448 560 448 q 709 492 665 448 q 759 597 759 541 q 511 779 759 779 q 260 667 369 779 q 153 414 153 557 q 245 182 153 264 q 495 102 334 102 q 711 155 640 102 q 752 203 739 176 q 773 247 766 231 q 789 272 781 262 q 806 282 796 282 q 821 278 816 282 q 829 267 827 273 q 835 239 831 264 q 857 157 845 178 q 877 112 877 121 m 390 960 l 392 943 q 372 904 392 914 q 300 970 349 890 q 274 992 294 981 q 247 1011 254 1004 q 240 1030 240 1019 q 280 1055 240 1055 l 335 1050 q 426 1094 372 1050 q 490 1144 456 1119 q 531 1171 524 1169 q 545 1173 537 1173 q 574 1161 564 1173 q 675 1064 617 1107 q 712 1038 693 1050 q 765 1016 734 1022 q 805 1006 795 1009 q 831 981 831 996 q 807 949 831 962 q 764 923 772 931 q 746 904 755 914 q 729 885 737 894 q 700 865 709 865 q 683 874 690 865 q 676 899 676 883 l 677 926 q 665 983 677 958 q 538 1088 544 1084 q 468 1049 505 1077 q 412 1008 431 1021 q 390 960 390 989 z "},"":{"ha":937,"x_min":83,"x_max":877,"o":"m 877 112 q 837 87 877 74 q 758 102 772 106 q 721 87 745 98 q 666 66 698 77 q 420 44 555 28 q 239 104 322 56 q 104 271 144 159 q 83 407 83 329 q 103 545 83 484 q 159 654 124 606 q 238 737 193 703 q 332 795 283 772 q 631 829 471 861 q 802 721 749 804 q 830 623 830 677 q 819 534 830 568 q 788 475 807 500 q 745 434 769 450 q 696 407 721 417 q 617 388 650 388 q 503 400 542 388 q 436 414 464 412 q 389 417 408 416 q 360 423 370 418 q 351 437 351 427 q 370 473 351 456 q 444 558 418 514 q 502 582 475 606 q 512 540 509 575 q 543 458 517 470 q 623 448 560 448 q 709 492 665 448 q 759 597 759 541 q 511 779 759 779 q 260 667 369 779 q 153 414 153 557 q 245 182 153 264 q 495 102 334 102 q 711 155 640 102 q 752 203 739 176 q 773 247 766 231 q 789 272 781 262 q 806 282 796 282 q 821 278 816 282 q 829 267 827 273 q 835 239 831 264 q 857 157 845 178 q 877 112 877 121 m 591 1105 q 623 1100 597 1105 q 739 1095 648 1095 q 777 1072 777 1095 q 754 1031 777 1055 q 697 966 702 975 q 655 949 678 935 q 645 961 649 954 q 633 980 642 969 q 614 1004 625 991 q 566 1084 566 1066 q 591 1105 566 1105 m 463 1072 q 439 1030 463 1054 q 382 966 389 977 q 327 962 354 922 l 273 1041 q 278 1105 231 1105 l 315 1101 q 414 1095 366 1095 q 463 1072 463 1095 z "},"":{"ha":595,"x_min":83,"x_max":449,"o":"m 239 -35 q 204 -9 204 -35 q 223 27 204 1 q 260 76 242 52 q 280 114 278 100 l 295 675 q 281 711 294 695 q 252 741 268 726 q 224 768 237 755 q 211 798 211 782 q 259 816 211 827 q 338 807 296 807 l 414 810 q 449 785 449 810 q 428 754 449 770 q 394 727 408 739 q 374 707 381 715 q 361 680 361 692 l 347 159 l 347 113 q 367 55 347 83 q 396 13 387 26 q 406 -9 406 0 q 367 -33 406 -33 l 337 -32 l 239 -35 m 113 1093 q 83 1114 83 1093 q 101 1146 83 1127 q 129 1186 120 1164 q 145 1226 138 1207 q 160 1257 152 1244 q 183 1270 168 1270 q 206 1255 199 1270 q 218 1221 214 1240 q 227 1183 222 1202 q 238 1160 231 1165 q 262 1142 245 1154 q 298 1114 278 1129 q 365 1066 347 1076 q 395 1031 395 1048 q 365 996 395 996 q 317 1021 342 996 q 257 1063 306 1032 q 199 1098 208 1095 q 180 1102 191 1102 l 113 1093 z "},"":{"ha":595,"x_min":204,"x_max":591,"o":"m 239 -35 q 204 -9 204 -35 q 223 27 204 1 q 260 76 242 52 q 280 114 278 100 l 295 675 q 281 711 294 695 q 252 741 268 726 q 224 768 237 755 q 211 798 211 782 q 259 816 211 827 q 338 807 296 807 l 414 810 q 449 785 449 810 q 428 754 449 770 q 394 727 408 739 q 374 707 381 715 q 361 680 361 692 l 347 159 l 347 113 q 367 55 347 83 q 396 13 387 26 q 406 -9 406 0 q 367 -33 406 -33 l 337 -32 l 239 -35 m 561 1099 l 494 1107 q 475 1104 483 1107 q 446 1087 467 1100 q 407 1061 426 1074 q 351 1021 359 1029 q 314 1002 332 1002 q 287 1010 296 1002 q 279 1029 279 1019 q 305 1069 279 1054 q 435 1164 331 1084 q 449 1208 441 1168 q 491 1276 463 1276 q 514 1263 507 1276 q 528 1233 522 1251 q 544 1193 535 1215 q 566 1158 553 1172 q 591 1120 591 1131 q 561 1099 591 1099 z "},"":{"ha":595,"x_min":33,"x_max":624,"o":"m 239 -35 q 204 -9 204 -35 q 223 27 204 1 q 260 76 242 52 q 280 114 278 100 l 295 675 q 281 711 294 695 q 252 741 268 726 q 224 768 237 755 q 211 798 211 782 q 259 816 211 827 q 338 807 296 807 l 414 810 q 449 785 449 810 q 428 754 449 770 q 394 727 408 739 q 374 707 381 715 q 361 680 361 692 l 347 159 l 347 113 q 367 55 347 83 q 396 13 387 26 q 406 -9 406 0 q 367 -33 406 -33 l 337 -32 l 239 -35 m 183 1000 l 185 983 q 165 944 185 954 q 93 1010 142 930 q 67 1032 87 1021 q 40 1051 47 1044 q 33 1070 33 1059 q 73 1095 33 1095 l 128 1090 q 219 1134 165 1090 q 283 1184 250 1159 q 324 1211 317 1209 q 338 1213 330 1213 q 368 1201 357 1213 q 468 1104 410 1147 q 505 1078 486 1090 q 558 1056 528 1062 q 598 1046 588 1049 q 624 1021 624 1036 q 600 989 624 1002 q 557 963 566 971 q 539 944 549 954 q 522 925 530 934 q 493 905 502 905 q 476 914 484 905 q 469 939 469 923 l 470 966 q 458 1023 470 998 q 332 1128 337 1124 q 261 1089 298 1117 q 205 1048 224 1061 q 183 1000 183 1029 z "},"":{"ha":595,"x_min":47,"x_max":592,"o":"m 239 -35 q 204 -9 204 -35 q 223 27 204 1 q 260 76 242 52 q 280 114 278 100 l 295 675 q 281 711 294 695 q 252 741 268 726 q 224 768 237 755 q 211 798 211 782 q 259 816 211 827 q 338 807 296 807 l 414 810 q 449 785 449 810 q 428 754 449 770 q 394 727 408 739 q 374 707 381 715 q 361 680 361 692 l 347 159 l 347 113 q 367 55 347 83 q 396 13 387 26 q 406 -9 406 0 q 367 -33 406 -33 l 337 -32 l 239 -35 m 407 1147 q 438 1142 412 1147 q 555 1137 464 1137 q 592 1114 592 1137 q 570 1073 592 1097 q 513 1008 517 1017 q 471 991 494 977 q 461 1003 465 996 q 449 1022 457 1011 q 430 1046 441 1033 q 382 1126 382 1108 q 407 1147 382 1147 m 278 1114 q 255 1072 278 1096 q 198 1008 204 1019 q 142 1004 170 964 l 88 1083 q 94 1147 47 1147 l 131 1143 q 230 1137 182 1137 q 278 1114 278 1137 z "},"":{"ha":832,"x_min":58,"x_max":765,"o":"m 242 1248 q 259 1196 274 1248 q 260 1103 247 1154 q 325 1028 262 1095 l 347 1048 q 381 1100 374 1072 q 393 1149 389 1128 q 419 1198 404 1198 q 446 1173 432 1198 l 460 1142 q 517 1073 475 1108 q 526 1050 526 1064 q 513 1033 526 1037 q 480 1027 500 1028 q 406 1018 418 1024 q 388 1008 393 1012 q 378 1000 383 1004 q 359 985 372 996 q 566 762 539 796 q 613 707 593 728 q 654 660 633 685 q 695 605 675 635 q 730 538 715 575 q 765 360 765 458 q 719 195 765 276 q 517 31 648 72 q 353 24 444 7 q 198 92 269 40 q 90 247 122 149 q 73 360 73 297 q 89 475 73 424 q 132 566 104 526 q 195 636 159 606 q 273 685 231 665 q 498 719 382 735 q 536 711 522 715 q 316 954 485 773 q 292 936 307 945 q 270 915 278 926 q 258 879 262 903 q 248 827 253 854 q 216 787 239 787 q 196 799 203 787 q 182 823 189 810 q 169 845 176 836 q 155 863 162 854 q 125 890 138 882 q 106 913 106 901 q 139 945 106 945 q 256 975 209 945 q 278 994 270 983 q 216 1051 227 1044 q 193 1061 205 1059 q 163 1065 180 1063 q 128 1069 146 1067 q 94 1074 110 1071 q 58 1091 58 1081 q 71 1111 58 1101 q 103 1135 83 1120 q 209 1227 166 1179 q 242 1248 227 1248 m 166 489 q 160 473 166 489 q 146 425 153 456 q 140 366 140 393 q 145 306 140 338 q 162 241 150 273 q 196 179 175 209 q 250 126 217 149 q 430 76 319 76 q 631 171 553 76 q 697 360 697 254 q 626 587 697 498 q 584 637 606 612 q 453 661 525 661 q 337 647 381 661 q 259 608 292 632 q 203 553 227 584 q 166 489 180 522 z "},"":{"ha":962,"x_min":73,"x_max":903,"o":"m 288 -5 q 267 -24 288 -24 l 232 -20 l 110 -16 q 106 32 73 -14 l 148 94 q 161 122 159 109 q 165 161 163 134 q 170 227 168 187 q 174 316 172 267 q 179 418 176 366 q 184 525 182 471 q 187 624 186 578 q 191 777 191 726 q 164 826 186 797 q 132 866 142 854 q 123 884 123 878 q 144 899 123 899 q 188 900 165 899 q 235 901 212 900 l 323 909 q 332 861 362 909 l 266 787 q 255 768 256 774 q 253 743 254 762 q 251 697 252 724 q 246 591 248 663 q 346 751 282 679 q 519 842 427 842 q 722 650 652 842 q 757 513 743 593 q 781 379 772 433 q 795 292 790 325 q 808 224 806 232 q 818 203 810 216 q 838 180 827 191 q 882 145 861 155 q 903 120 903 136 q 890 100 903 105 q 856 92 878 96 q 763 71 787 83 q 721 57 734 57 q 700 90 688 57 l 713 119 q 742 203 742 187 q 740 242 742 220 q 734 292 737 264 q 718 394 726 358 q 704 467 710 429 q 689 547 698 505 q 667 630 680 589 q 632 705 653 671 q 512 779 587 779 q 311 595 397 779 q 241 370 247 462 q 227 137 227 157 q 233 102 227 117 q 249 70 240 86 l 285 10 q 288 -5 288 3 m 354 1056 q 328 1009 354 1009 q 303 1020 315 1009 q 288 1046 292 1030 q 215 1122 273 1094 q 194 1145 194 1132 q 204 1168 194 1159 q 227 1177 215 1177 l 285 1169 q 311 1174 302 1169 q 330 1185 319 1179 q 354 1199 340 1192 q 459 1211 411 1227 q 511 1183 498 1198 q 530 1156 525 1167 q 541 1135 535 1145 q 614 1083 570 1083 q 673 1139 666 1083 q 675 1171 675 1154 l 674 1194 q 684 1225 674 1214 q 704 1236 694 1236 q 733 1215 724 1236 q 757 1176 741 1193 q 788 1144 772 1158 q 814 1120 803 1131 q 825 1098 825 1109 q 814 1077 825 1086 q 785 1067 802 1067 l 738 1072 q 715 1066 721 1072 q 699 1053 709 1060 q 674 1040 689 1046 q 553 1033 608 1010 q 480 1109 511 1050 q 404 1157 454 1157 q 362 1131 376 1157 q 352 1092 352 1113 l 354 1056 z "},"":{"ha":863,"x_min":99,"x_max":764,"o":"m 528 92 q 509 87 528 92 q 459 78 490 81 q 414 75 429 75 q 370 79 400 75 q 305 95 340 83 q 233 130 270 107 q 167 190 197 153 q 99 408 99 273 q 184 637 99 537 q 357 745 262 729 q 497 751 416 763 q 640 690 574 739 q 747 526 715 636 q 764 393 764 469 q 741 266 764 318 q 684 179 719 214 q 608 124 650 144 q 528 92 567 103 m 323 158 q 337 153 323 158 q 376 143 351 147 q 414 138 401 138 q 453 141 428 138 q 508 153 477 144 q 573 178 539 161 q 634 223 606 195 q 698 394 698 288 q 543 671 698 610 q 300 652 424 718 q 270 637 283 643 q 193 532 222 604 q 168 411 168 471 q 181 310 168 351 q 217 238 195 268 q 267 189 239 208 q 323 158 295 170 m 280 975 q 250 996 250 975 q 268 1028 250 1009 q 296 1068 287 1046 q 312 1108 304 1089 q 327 1139 319 1126 q 350 1152 334 1152 q 373 1137 366 1152 q 385 1103 380 1122 q 393 1065 389 1084 q 405 1042 397 1047 q 429 1024 412 1036 q 465 996 445 1011 q 532 948 513 958 q 562 913 562 930 q 532 878 562 878 q 484 903 509 878 q 424 945 473 914 q 366 980 374 977 q 347 984 358 984 l 280 975 z "},"":{"ha":863,"x_min":99,"x_max":764,"o":"m 528 92 q 509 87 528 92 q 459 78 490 81 q 414 75 429 75 q 370 79 400 75 q 305 95 340 83 q 233 130 270 107 q 167 190 197 153 q 99 408 99 273 q 184 637 99 537 q 357 745 262 729 q 497 751 416 763 q 640 690 574 739 q 747 526 715 636 q 764 393 764 469 q 741 266 764 318 q 684 179 719 214 q 608 124 650 144 q 528 92 567 103 m 323 158 q 337 153 323 158 q 376 143 351 147 q 414 138 401 138 q 453 141 428 138 q 508 153 477 144 q 573 178 539 161 q 634 223 606 195 q 698 394 698 288 q 543 671 698 610 q 300 652 424 718 q 270 637 283 643 q 193 532 222 604 q 168 411 168 471 q 181 310 168 351 q 217 238 195 268 q 267 189 239 208 q 323 158 295 170 m 620 979 l 553 988 q 534 984 542 988 q 505 968 526 981 q 466 941 485 955 q 410 901 418 909 q 373 882 391 882 q 346 891 355 882 q 338 910 338 900 q 364 949 338 935 q 494 1045 390 964 q 508 1088 500 1049 q 550 1156 522 1156 q 573 1144 566 1156 q 587 1114 581 1132 q 603 1074 594 1095 q 625 1039 612 1053 q 650 1000 650 1012 q 620 979 650 979 z "},"":{"ha":863,"x_min":99,"x_max":764,"o":"m 528 92 q 509 87 528 92 q 459 78 490 81 q 414 75 429 75 q 370 79 400 75 q 305 95 340 83 q 233 130 270 107 q 167 190 197 153 q 99 408 99 273 q 184 637 99 537 q 357 745 262 729 q 497 751 416 763 q 640 690 574 739 q 747 526 715 636 q 764 393 764 469 q 741 266 764 318 q 684 179 719 214 q 608 124 650 144 q 528 92 567 103 m 323 158 q 337 153 323 158 q 376 143 351 147 q 414 138 401 138 q 453 141 428 138 q 508 153 477 144 q 573 178 539 161 q 634 223 606 195 q 698 394 698 288 q 543 671 698 610 q 300 652 424 718 q 270 637 283 643 q 193 532 222 604 q 168 411 168 471 q 181 310 168 351 q 217 238 195 268 q 267 189 239 208 q 323 158 295 170 m 285 908 l 287 892 q 267 852 287 863 q 195 919 243 839 q 169 941 189 929 q 142 960 149 952 q 135 979 135 967 q 175 1003 135 1003 l 230 998 q 321 1042 267 998 q 385 1093 351 1067 q 426 1120 419 1118 q 440 1122 432 1122 q 469 1109 458 1122 q 570 1013 512 1055 q 607 986 588 999 q 660 964 629 970 q 700 954 690 958 q 726 929 726 945 q 702 898 726 911 q 659 871 667 880 q 641 852 650 863 q 624 833 632 842 q 594 814 604 814 q 578 823 585 814 q 571 847 571 831 l 572 874 q 560 932 572 906 q 433 1037 439 1032 q 363 997 399 1025 q 307 956 326 969 q 285 908 285 938 z "},"":{"ha":863,"x_min":99,"x_max":764,"o":"m 528 92 q 509 87 528 92 q 459 78 490 81 q 414 75 429 75 q 370 79 400 75 q 305 95 340 83 q 233 130 270 107 q 167 190 197 153 q 99 408 99 273 q 184 637 99 537 q 357 745 262 729 q 497 751 416 763 q 640 690 574 739 q 747 526 715 636 q 764 393 764 469 q 741 266 764 318 q 684 179 719 214 q 608 124 650 144 q 528 92 567 103 m 323 158 q 337 153 323 158 q 376 143 351 147 q 414 138 401 138 q 453 141 428 138 q 508 153 477 144 q 573 178 539 161 q 634 223 606 195 q 698 394 698 288 q 543 671 698 610 q 300 652 424 718 q 270 637 283 643 q 193 532 222 604 q 168 411 168 471 q 181 310 168 351 q 217 238 195 268 q 267 189 239 208 q 323 158 295 170 m 290 919 q 264 872 290 872 q 239 883 251 872 q 223 909 227 893 q 151 985 209 957 q 130 1008 130 995 q 140 1031 130 1022 q 163 1040 151 1040 l 220 1032 q 247 1037 238 1032 q 266 1048 255 1042 q 290 1062 276 1055 q 395 1074 347 1090 q 447 1046 433 1061 q 466 1019 460 1030 q 477 998 471 1008 q 550 946 506 946 q 608 1002 602 946 q 610 1034 610 1017 l 610 1057 q 620 1088 610 1077 q 640 1099 629 1099 q 668 1078 660 1099 q 692 1039 677 1056 q 723 1007 708 1021 q 750 983 739 994 q 761 961 761 972 q 749 940 761 949 q 721 930 738 930 l 673 935 q 650 929 656 935 q 634 916 644 923 q 610 903 625 909 q 489 896 544 873 q 416 972 446 913 q 339 1020 390 1020 q 298 994 312 1020 q 288 955 288 976 l 290 919 z "},"":{"ha":863,"x_min":99,"x_max":764,"o":"m 528 92 q 509 87 528 92 q 459 78 490 81 q 414 75 429 75 q 370 79 400 75 q 305 95 340 83 q 233 130 270 107 q 167 190 197 153 q 99 408 99 273 q 184 637 99 537 q 357 745 262 729 q 497 751 416 763 q 640 690 574 739 q 747 526 715 636 q 764 393 764 469 q 741 266 764 318 q 684 179 719 214 q 608 124 650 144 q 528 92 567 103 m 323 158 q 337 153 323 158 q 376 143 351 147 q 414 138 401 138 q 453 141 428 138 q 508 153 477 144 q 573 178 539 161 q 634 223 606 195 q 698 394 698 288 q 543 671 698 610 q 300 652 424 718 q 270 637 283 643 q 193 532 222 604 q 168 411 168 471 q 181 310 168 351 q 217 238 195 268 q 267 189 239 208 q 323 158 295 170 m 519 1029 q 551 1025 525 1029 q 667 1020 576 1020 q 705 997 705 1020 q 682 956 705 980 q 625 891 630 900 q 583 874 606 859 q 573 886 577 878 q 562 905 570 894 q 543 929 553 916 q 494 1009 494 991 q 519 1029 494 1029 m 391 997 q 368 955 391 979 q 311 891 317 901 q 255 887 282 846 l 201 966 q 206 1029 159 1029 l 243 1025 q 342 1020 294 1020 q 391 997 391 1020 z "},"":{"ha":1189,"x_min":109,"x_max":1084,"o":"m 132 532 q 109 507 109 532 l 122 460 q 115 363 130 418 q 119 327 109 338 q 138 315 130 315 q 155 319 146 315 q 171 329 163 323 q 206 359 187 341 q 235 379 225 377 q 275 382 245 382 q 354 383 305 382 q 465 384 403 383 q 718 385 650 385 q 932 385 910 385 q 966 379 955 385 q 987 365 977 373 q 1021 334 1001 353 q 1057 309 1045 309 q 1083 340 1083 309 l 1076 408 q 1080 458 1076 437 q 1084 492 1084 479 q 1076 517 1084 505 q 1056 530 1068 530 q 1034 519 1044 530 q 1010 495 1023 509 q 949 456 978 460 q 873 449 921 452 q 766 444 825 446 q 305 446 475 434 q 247 459 264 449 q 216 480 230 469 l 168 517 q 132 532 146 532 m 677 163 l 636 161 q 543 167 570 161 q 504 174 513 174 q 488 166 494 174 q 491 125 473 151 q 532 71 508 100 q 567 20 556 42 q 625 14 595 -38 q 650 46 634 29 q 681 79 666 62 q 718 138 718 119 q 677 163 718 163 m 669 665 l 628 666 q 535 661 562 666 q 495 654 505 654 q 479 661 486 654 q 483 702 465 677 q 524 756 500 728 q 559 807 548 785 q 617 814 587 865 q 642 782 626 798 q 673 749 658 765 q 710 690 710 708 q 669 665 710 665 z "},"":{"ha":864,"x_min":12,"x_max":851,"o":"m 416 75 q 246 121 328 75 l 216 81 q 197 46 199 60 q 196 5 196 31 q 191 -43 196 -22 q 167 -64 186 -64 q 145 -55 156 -64 q 129 -37 134 -46 q 115 -23 125 -28 q 62 -1 93 -9 q 12 34 12 12 q 45 64 12 57 l 45 64 q 138 98 102 77 q 193 161 151 111 q 99 408 99 248 q 184 637 99 537 q 357 745 262 729 q 434 756 394 756 q 610 711 532 756 l 659 779 q 671 801 671 790 l 660 882 q 691 914 660 914 q 721 903 708 914 q 749 875 734 891 q 814 814 789 827 q 851 779 851 795 q 814 752 851 757 q 709 727 741 752 q 663 671 705 725 q 764 391 764 576 q 684 174 764 254 q 416 75 587 75 m 574 661 q 434 693 514 693 q 351 672 392 693 q 289 638 310 650 q 252 618 269 625 q 179 467 198 563 q 193 296 161 374 q 239 219 211 250 q 574 661 380 397 m 289 179 q 509 155 385 121 q 682 294 635 189 q 701 407 701 335 q 679 535 701 479 q 625 623 658 590 l 517 481 l 339 247 q 289 179 312 210 z "},"":{"ha":842,"x_min":73,"x_max":745,"o":"m 610 167 l 610 182 l 592 491 l 558 395 q 493 230 512 267 q 456 169 473 194 q 416 125 438 144 q 307 81 365 81 q 132 408 132 81 l 140 739 q 123 781 140 763 q 94 812 105 800 q 73 847 73 833 q 111 869 73 869 l 155 867 q 237 876 206 867 q 275 884 269 884 q 292 870 292 884 q 250 806 292 846 q 219 776 233 791 q 203 750 205 761 q 200 707 202 739 q 197 631 199 675 q 194 352 189 413 q 207 261 200 292 q 227 206 214 230 q 307 152 255 152 q 520 453 421 152 q 568 781 607 718 q 535 810 559 795 q 501 850 501 833 q 539 877 501 877 l 572 876 q 648 882 622 876 q 682 888 677 888 q 703 869 703 888 q 681 825 703 850 q 648 783 659 799 q 637 752 637 766 q 638 711 637 738 q 642 644 640 684 q 646 557 644 605 q 652 460 649 509 q 659 362 655 410 q 665 275 662 315 q 675 172 672 185 q 681 149 677 159 q 690 130 685 138 l 732 81 q 720 49 745 56 q 655 44 702 44 q 591 39 608 44 q 543 53 543 24 q 550 78 543 69 q 566 97 557 86 q 585 121 575 108 q 610 167 608 153 m 196 1109 q 165 1131 165 1109 q 184 1162 165 1143 q 212 1202 203 1181 q 228 1242 220 1223 q 242 1274 235 1261 q 266 1286 250 1286 q 289 1272 281 1286 q 301 1237 296 1257 q 309 1200 305 1218 q 321 1176 313 1181 q 345 1158 328 1171 q 380 1131 361 1145 q 448 1082 429 1093 q 478 1047 478 1065 q 448 1013 478 1013 q 400 1037 425 1013 q 339 1080 389 1048 q 282 1115 290 1111 q 263 1118 274 1118 l 196 1109 z "},"":{"ha":842,"x_min":73,"x_max":745,"o":"m 610 167 l 610 182 l 592 491 l 558 395 q 493 230 512 267 q 456 169 473 194 q 416 125 438 144 q 307 81 365 81 q 132 408 132 81 l 140 739 q 123 781 140 763 q 94 812 105 800 q 73 847 73 833 q 111 869 73 869 l 155 867 q 237 876 206 867 q 275 884 269 884 q 292 870 292 884 q 250 806 292 846 q 219 776 233 791 q 203 750 205 761 q 200 707 202 739 q 197 631 199 675 q 194 352 189 413 q 207 261 200 292 q 227 206 214 230 q 307 152 255 152 q 520 453 421 152 q 568 781 607 718 q 535 810 559 795 q 501 850 501 833 q 539 877 501 877 l 572 876 q 648 882 622 876 q 682 888 677 888 q 703 869 703 888 q 681 825 703 850 q 648 783 659 799 q 637 752 637 766 q 638 711 637 738 q 642 644 640 684 q 646 557 644 605 q 652 460 649 509 q 659 362 655 410 q 665 275 662 315 q 675 172 672 185 q 681 149 677 159 q 690 130 685 138 l 732 81 q 720 49 745 56 q 655 44 702 44 q 591 39 608 44 q 543 53 543 24 q 550 78 543 69 q 566 97 557 86 q 585 121 575 108 q 610 167 608 153 m 581 1099 l 514 1107 q 495 1104 503 1107 q 467 1087 487 1100 q 427 1061 446 1074 q 372 1021 380 1029 q 334 1002 353 1002 q 308 1010 316 1002 q 299 1029 299 1019 q 326 1069 299 1054 q 455 1164 351 1084 q 469 1208 462 1168 q 511 1276 484 1276 q 534 1263 527 1276 q 549 1233 542 1251 q 564 1193 555 1215 q 586 1158 573 1172 q 612 1120 612 1131 q 581 1099 612 1099 z "},"":{"ha":842,"x_min":73,"x_max":745,"o":"m 610 167 l 610 182 l 592 491 l 558 395 q 493 230 512 267 q 456 169 473 194 q 416 125 438 144 q 307 81 365 81 q 132 408 132 81 l 140 739 q 123 781 140 763 q 94 812 105 800 q 73 847 73 833 q 111 869 73 869 l 155 867 q 237 876 206 867 q 275 884 269 884 q 292 870 292 884 q 250 806 292 846 q 219 776 233 791 q 203 750 205 761 q 200 707 202 739 q 197 631 199 675 q 194 352 189 413 q 207 261 200 292 q 227 206 214 230 q 307 152 255 152 q 520 453 421 152 q 568 781 607 718 q 535 810 559 795 q 501 850 501 833 q 539 877 501 877 l 572 876 q 648 882 622 876 q 682 888 677 888 q 703 869 703 888 q 681 825 703 850 q 648 783 659 799 q 637 752 637 766 q 638 711 637 738 q 642 644 640 684 q 646 557 644 605 q 652 460 649 509 q 659 362 655 410 q 665 275 662 315 q 675 172 672 185 q 681 149 677 159 q 690 130 685 138 l 732 81 q 720 49 745 56 q 655 44 702 44 q 591 39 608 44 q 543 53 543 24 q 550 78 543 69 q 566 97 557 86 q 585 121 575 108 q 610 167 608 153 m 266 1034 l 268 1018 q 248 979 268 989 q 176 1045 224 965 q 150 1067 170 1055 q 123 1086 130 1078 q 116 1105 116 1093 q 156 1129 116 1129 l 211 1124 q 302 1168 248 1124 q 366 1219 332 1194 q 407 1246 400 1244 q 421 1248 413 1248 q 450 1236 439 1248 q 551 1139 493 1181 q 588 1112 569 1125 q 641 1090 610 1097 q 681 1080 671 1084 q 707 1055 707 1071 q 683 1024 707 1037 q 640 997 648 1006 q 622 979 631 989 q 605 960 613 968 q 575 940 585 940 q 559 949 566 940 q 552 973 552 958 l 553 1000 q 541 1058 553 1032 q 414 1163 420 1158 q 344 1123 380 1152 q 288 1082 307 1095 q 266 1034 266 1064 z "},"":{"ha":842,"x_min":73,"x_max":745,"o":"m 610 167 l 610 182 l 592 491 l 558 395 q 493 230 512 267 q 456 169 473 194 q 416 125 438 144 q 307 81 365 81 q 132 408 132 81 l 140 739 q 123 781 140 763 q 94 812 105 800 q 73 847 73 833 q 111 869 73 869 l 155 867 q 237 876 206 867 q 275 884 269 884 q 292 870 292 884 q 250 806 292 846 q 219 776 233 791 q 203 750 205 761 q 200 707 202 739 q 197 631 199 675 q 194 352 189 413 q 207 261 200 292 q 227 206 214 230 q 307 152 255 152 q 520 453 421 152 q 568 781 607 718 q 535 810 559 795 q 501 850 501 833 q 539 877 501 877 l 572 876 q 648 882 622 876 q 682 888 677 888 q 703 869 703 888 q 681 825 703 850 q 648 783 659 799 q 637 752 637 766 q 638 711 637 738 q 642 644 640 684 q 646 557 644 605 q 652 460 649 509 q 659 362 655 410 q 665 275 662 315 q 675 172 672 185 q 681 149 677 159 q 690 130 685 138 l 732 81 q 720 49 745 56 q 655 44 702 44 q 591 39 608 44 q 543 53 543 24 q 550 78 543 69 q 566 97 557 86 q 585 121 575 108 q 610 167 608 153 m 491 1145 q 522 1140 496 1145 q 639 1135 548 1135 q 676 1112 676 1135 q 654 1071 676 1095 q 597 1006 602 1015 q 555 989 578 975 q 545 1001 549 994 q 533 1020 541 1009 q 514 1044 525 1031 q 466 1124 466 1106 q 491 1145 466 1145 m 362 1112 q 339 1070 362 1094 q 282 1006 288 1017 q 227 1002 254 962 l 172 1081 q 178 1145 131 1145 l 215 1141 q 314 1135 266 1135 q 362 1112 362 1135 z "},"":{"ha":899,"x_min":31,"x_max":909,"o":"m 330 -20 l 296 -21 q 277 12 260 -21 q 302 44 285 27 q 329 71 320 60 q 354 118 351 94 q 360 166 357 142 q 366 214 363 190 l 391 426 q 173 668 231 478 q 148 760 156 722 q 130 806 139 797 q 112 824 121 816 q 90 841 102 832 q 64 861 77 850 q 31 911 31 889 q 51 925 31 925 q 94 927 70 925 q 142 932 117 928 q 221 947 199 939 q 249 955 242 955 q 260 943 260 955 q 251 916 260 931 q 230 884 241 901 q 199 813 199 837 q 205 757 199 789 q 226 688 212 724 q 260 615 239 652 q 307 550 280 579 q 446 484 370 484 q 684 665 589 484 q 732 793 724 742 q 699 850 732 813 q 667 899 667 886 q 688 916 667 916 q 718 913 693 916 q 767 909 742 909 q 807 911 793 909 q 831 915 821 913 q 869 920 861 920 q 879 870 909 920 q 843 829 866 848 q 788 765 797 789 q 766 707 779 741 q 734 635 753 673 q 689 559 715 597 q 629 491 663 522 q 459 420 553 423 q 439 270 458 412 q 418 107 418 117 q 428 80 418 97 q 451 46 439 62 q 474 15 464 30 q 485 -12 485 1 q 460 -27 485 -27 l 330 -20 m 659 1101 l 592 1109 q 573 1106 581 1109 q 545 1089 565 1102 q 505 1063 524 1076 q 450 1023 458 1031 q 412 1004 431 1004 q 386 1013 394 1004 q 377 1031 377 1021 q 404 1071 377 1056 q 533 1166 429 1086 q 547 1210 540 1171 q 589 1278 562 1278 q 612 1265 605 1278 q 627 1235 620 1253 q 642 1195 633 1217 q 664 1160 651 1174 q 690 1122 690 1133 q 659 1101 690 1101 z "},"":{"ha":830,"x_min":77,"x_max":736,"o":"m 132 -77 q 77 -53 77 -77 q 123 1 77 -37 q 183 88 180 47 l 180 289 l 178 553 q 170 1029 173 1015 q 161 1052 168 1042 q 148 1070 155 1061 l 116 1104 q 85 1149 85 1135 q 112 1171 85 1171 l 177 1164 l 268 1174 q 300 1168 285 1174 q 311 1133 325 1157 q 292 1114 307 1125 q 266 1091 277 1102 q 247 1072 254 1080 q 235 1041 235 1055 l 235 901 q 237 663 235 786 q 339 808 264 758 q 530 849 422 866 q 723 666 680 825 q 736 560 736 619 q 723 459 736 500 q 690 388 711 418 q 644 338 670 358 q 591 308 618 319 q 357 321 475 260 q 241 441 275 363 q 258 57 245 86 q 310 -4 272 25 l 309 -4 q 347 -56 347 -34 q 316 -79 347 -79 l 212 -73 l 132 -77 m 597 383 q 633 420 618 397 q 669 540 669 472 q 660 645 669 608 q 633 709 650 683 q 596 752 616 736 q 553 779 575 769 q 370 755 455 821 q 279 616 302 703 q 282 490 262 554 q 395 366 311 402 q 597 383 504 318 z "},"":{"ha":899,"x_min":31,"x_max":909,"o":"m 330 -20 l 296 -21 q 277 12 260 -21 q 302 44 285 27 q 329 71 320 60 q 354 118 351 94 q 360 166 357 142 q 366 214 363 190 l 391 426 q 173 668 231 478 q 148 760 156 722 q 130 806 139 797 q 112 824 121 816 q 90 841 102 832 q 64 861 77 850 q 31 911 31 889 q 51 925 31 925 q 94 927 70 925 q 142 932 117 928 q 221 947 199 939 q 249 955 242 955 q 260 943 260 955 q 251 916 260 931 q 230 884 241 901 q 199 813 199 837 q 205 757 199 789 q 226 688 212 724 q 260 615 239 652 q 307 550 280 579 q 446 484 370 484 q 684 665 589 484 q 732 793 724 742 q 699 850 732 813 q 667 899 667 886 q 688 916 667 916 q 718 913 693 916 q 767 909 742 909 q 807 911 793 909 q 831 915 821 913 q 869 920 861 920 q 879 870 909 920 q 843 829 866 848 q 788 765 797 789 q 766 707 779 741 q 734 635 753 673 q 689 559 715 597 q 629 491 663 522 q 459 420 553 423 q 439 270 458 412 q 418 107 418 117 q 428 80 418 97 q 451 46 439 62 q 474 15 464 30 q 485 -12 485 1 q 460 -27 485 -27 l 330 -20 m 591 1185 q 622 1181 596 1185 q 739 1176 648 1176 q 776 1153 776 1176 q 753 1112 776 1136 q 696 1047 701 1056 q 654 1030 677 1015 q 645 1042 648 1034 q 633 1061 641 1050 q 614 1085 625 1072 q 566 1165 566 1147 q 591 1185 566 1185 m 462 1153 q 439 1111 462 1135 q 382 1047 388 1057 q 326 1043 353 1002 l 272 1122 q 277 1185 231 1185 l 315 1181 q 414 1176 366 1176 q 462 1153 462 1176 z "}}}
